<svg width="50" height="50" viewBox="0 0 50 50" fill="none" xmlns="http://www.w3.org/2000/svg">
<rect opacity="0.1" width="50" height="50" fill="#FF694B"/>
<path d="M27 29C27 30.77 26.23 32.37 25 33.46C23.94 34.42 22.54 35 21 35C17.69 35 15 32.31 15 29C15 26.24 16.88 23.9 19.42 23.21C20.11 24.95 21.59 26.29 23.42 26.79C23.92 26.93 24.45 27 25 27C25.55 27 26.08 26.93 26.58 26.79C26.85 27.47 27 28.22 27 29Z" stroke="#FF694B" stroke-width="1.5" stroke-linecap="round" stroke-linejoin="round"/>
<path d="M31 21C31 21.78 30.85 22.53 30.58 23.21C29.89 24.95 28.41 26.29 26.58 26.79C26.08 26.93 25.55 27 25 27C24.45 27 23.92 26.93 23.42 26.79C21.59 26.29 20.11 24.95 19.42 23.21C19.15 22.53 19 21.78 19 21C19 17.69 21.69 15 25 15C28.31 15 31 17.69 31 21Z" stroke="#FF694B" stroke-width="1.5" stroke-linecap="round" stroke-linejoin="round"/>
<path d="M35 29C35 32.31 32.31 35 29 35C27.46 35 26.06 34.42 25 33.46C26.23 32.37 27 30.77 27 29C27 28.22 26.85 27.47 26.58 26.79C28.41 26.29 29.89 24.95 30.58 23.21C33.12 23.9 35 26.24 35 29Z" stroke="#FF694B" stroke-width="1.5" stroke-linecap="round" stroke-linejoin="round"/>
</svg>

