<svg width="50" height="50" viewBox="0 0 50 50" fill="none" xmlns="http://www.w3.org/2000/svg">
<rect opacity="0.1" width="50" height="50" fill="#FF694B"/>
<path d="M22 26C21.34 26.33 20.79 26.82 20.38 27.43C20.15 27.78 20.15 28.22 20.38 28.57C20.79 29.18 21.34 29.67 22 30" stroke="#FF694B" stroke-width="1.5" stroke-linecap="round" stroke-linejoin="round"/>
<path d="M28.21 26C28.87 26.33 29.42 26.82 29.83 27.43C30.06 27.78 30.06 28.22 29.83 28.57C29.42 29.18 28.87 29.67 28.21 30" stroke="#FF694B" stroke-width="1.5" stroke-linecap="round" stroke-linejoin="round"/>
<path d="M22 35H28C33 35 35 33 35 28V22C35 17 33 15 28 15H22C17 15 15 17 15 22V28C15 33 17 35 22 35Z" stroke="#FF694B" stroke-width="1.5" stroke-linecap="round" stroke-linejoin="round"/>
<path d="M15.23 21.01L34.45 21" stroke="#FF694B" stroke-width="1.5" stroke-linecap="round" stroke-linejoin="round"/>
</svg>
