<svg width="48" height="48" viewBox="0 0 48 48" fill="none" xmlns="http://www.w3.org/2000/svg">
<rect width="48" height="48" fill="#DAE2FF"/>
<path d="M22.5833 32.5V36.75C22.5833 37.5292 21.9458 38.1667 21.1667 38.1667C20.3875 38.1667 19.75 37.5292 19.75 36.75V32.5H22.5833Z" fill="#305DFF"/>
<path d="M28.25 32.5V36.75C28.25 37.5292 27.6125 38.1667 26.8334 38.1667C26.0542 38.1667 25.4167 37.5292 25.4167 36.75V32.5H28.25Z" fill="#305DFF"/>
<path d="M31.0834 22.5833V29.6667C31.0834 31.225 29.8084 32.5 28.25 32.5H19.75C18.1917 32.5 16.9167 31.225 16.9167 29.6667V22.5833C16.9167 21.025 18.1917 19.75 19.75 19.75H28.25C29.8084 19.75 31.0834 21.025 31.0834 22.5833Z" fill="#305DFF"/>
<path d="M14.0833 22.5833V28.25C14.0833 29.0292 13.4458 29.6667 12.6667 29.6667C11.8875 29.6667 11.25 29.0292 11.25 28.25V22.5833C11.25 21.8042 11.8875 21.1667 12.6667 21.1667C13.4458 21.1667 14.0833 21.8042 14.0833 22.5833Z" fill="#305DFF"/>
<path d="M36.75 22.5833V28.25C36.75 29.0292 36.1125 29.6667 35.3334 29.6667C34.5542 29.6667 33.9167 29.0292 33.9167 28.25V22.5833C33.9167 21.8042 34.5542 21.1667 35.3334 21.1667C36.1125 21.1667 36.75 21.8042 36.75 22.5833Z" fill="#305DFF"/>
<path d="M20.5999 17.7667H27.4C28.6467 17.7667 29.6666 16.7467 29.6666 15.5C29.6666 12.3692 27.1308 9.83334 24 9.83334C20.8691 9.83334 18.3333 12.3692 18.3333 15.5C18.3333 16.7467 19.3533 17.7667 20.5999 17.7667Z" fill="#305DFF"/>
</svg>
