<svg width="48" height="48" viewBox="0 0 48 48" fill="none" xmlns="http://www.w3.org/2000/svg">
<rect width="48" height="48" fill="#D1F7FF"/>
<path fill-rule="evenodd" clip-rule="evenodd" d="M34.0584 34.1433C34.8942 32.8683 35.2059 32.2167 35.8434 30.7859C31.14 29.0008 30.3892 22.3 35.0359 19.7358C33.6192 17.9508 31.6217 16.9167 29.7375 16.9167C28.3775 16.9167 27.4425 17.2709 26.6067 17.5967C25.8984 17.8659 25.2609 18.1067 24.4675 18.1067C23.6175 18.1067 22.8667 17.8375 22.0734 17.5542C21.2092 17.2425 20.3025 16.9167 19.1692 16.9167C17.0584 16.9167 14.8059 18.2058 13.375 20.4158C11.3634 23.5325 11.7175 29.3692 14.9617 34.3558C16.1234 36.1408 17.6817 38.1383 19.7075 38.1667C20.5575 38.1808 21.11 37.9259 21.7192 37.6567C22.4134 37.345 23.1642 37.005 24.4817 37.005C25.7992 36.9908 26.5359 37.345 27.23 37.6567C27.825 37.9259 28.3634 38.1808 29.1992 38.1667C31.2534 38.1383 32.8967 35.9283 34.0584 34.1433Z" fill="#00BEE6"/>
<path fill-rule="evenodd" clip-rule="evenodd" d="M29.44 9.83333C29.6666 11.3917 29.0291 12.9358 28.1933 14.0125C27.3008 15.1742 25.7425 16.0808 24.2408 16.0242C23.9716 14.5225 24.6658 12.9783 25.5158 11.9441C26.465 10.8108 28.0658 9.93249 29.44 9.83333Z" fill="#00BEE6"/>
</svg>
