<svg width="350" height="350" viewBox="0 0 480 350" fill="none" xmlns="http://www.w3.org/2000/svg">
<g filter="url(#filter0_d_2_355)">
<rect x="30" y="20" width="420" height="290" fill="white"/>
</g>
<path d="M131.67 255.5L123.88 251V254.5H85V256.5H123.88V260L131.67 255.5Z" fill="#FF694B"/>
<path d="M88.06 165.4V176.452H93.784V178H86.422V165.4H88.06ZM99.1016 178.216C98.2496 178.216 97.4636 178.006 96.7436 177.586C96.0236 177.166 95.4476 176.596 95.0156 175.876C94.5956 175.144 94.3856 174.352 94.3856 173.5C94.3856 172.648 94.5956 171.862 95.0156 171.142C95.4476 170.422 96.0236 169.852 96.7436 169.432C97.4636 169.012 98.2496 168.802 99.1016 168.802C99.9536 168.802 100.74 169.012 101.46 169.432C102.18 169.852 102.75 170.422 103.17 171.142C103.602 171.862 103.818 172.648 103.818 173.5C103.818 174.352 103.602 175.144 103.17 175.876C102.75 176.596 102.18 177.166 101.46 177.586C100.74 178.006 99.9536 178.216 99.1016 178.216ZM99.1016 176.668C99.6776 176.668 100.206 176.53 100.686 176.254C101.166 175.966 101.544 175.582 101.82 175.102C102.108 174.61 102.252 174.076 102.252 173.5C102.252 172.924 102.108 172.396 101.82 171.916C101.544 171.436 101.166 171.058 100.686 170.782C100.206 170.494 99.6776 170.35 99.1016 170.35C98.5256 170.35 97.9916 170.494 97.4996 170.782C97.0196 171.058 96.6356 171.436 96.3476 171.916C96.0716 172.396 95.9336 172.924 95.9336 173.5C95.9336 174.076 96.0716 174.61 96.3476 175.102C96.6356 175.582 97.0196 175.966 97.4996 176.254C97.9916 176.53 98.5256 176.668 99.1016 176.668ZM109.848 168.802C109.992 168.802 110.1 168.808 110.172 168.82L110.046 170.296C109.902 170.272 109.788 170.26 109.704 170.26C108.936 170.26 108.288 170.494 107.76 170.962C107.244 171.43 106.986 172.108 106.986 172.996V178H105.438V169H106.986V170.548C107.19 170.056 107.538 169.642 108.03 169.306C108.534 168.97 109.14 168.802 109.848 168.802ZM115.379 168.784C116.255 168.784 117.035 169 117.719 169.432C118.403 169.852 118.931 170.428 119.303 171.16C119.687 171.88 119.879 172.666 119.879 173.518C119.879 173.614 119.873 173.722 119.861 173.842C119.849 173.95 119.837 174.04 119.825 174.112H112.247C112.367 174.916 112.715 175.576 113.291 176.092C113.879 176.596 114.623 176.848 115.523 176.848C116.075 176.848 116.597 176.722 117.089 176.47C117.593 176.218 117.965 175.906 118.205 175.534L119.429 176.254C119.033 176.878 118.493 177.364 117.809 177.712C117.137 178.048 116.369 178.216 115.505 178.216C114.557 178.216 113.717 178.012 112.985 177.604C112.253 177.196 111.683 176.638 111.275 175.93C110.867 175.21 110.663 174.4 110.663 173.5C110.663 172.612 110.861 171.814 111.257 171.106C111.665 170.386 112.223 169.822 112.931 169.414C113.651 168.994 114.467 168.784 115.379 168.784ZM118.403 172.852C118.283 172.012 117.959 171.352 117.431 170.872C116.903 170.392 116.219 170.152 115.379 170.152C114.791 170.152 114.257 170.278 113.777 170.53C113.297 170.782 112.919 171.118 112.643 171.538C112.367 171.946 112.223 172.384 112.211 172.852H118.403ZM131.766 168.784C132.294 168.784 132.834 168.898 133.386 169.126C133.938 169.342 134.412 169.738 134.808 170.314C135.216 170.878 135.42 171.646 135.42 172.618V178H133.854V172.618C133.854 171.742 133.614 171.118 133.134 170.746C132.654 170.362 132.096 170.17 131.46 170.17C130.944 170.17 130.47 170.32 130.038 170.62C129.618 170.92 129.336 171.412 129.192 172.096C129.204 172.204 129.21 172.378 129.21 172.618V178H127.662V172.618C127.662 171.742 127.416 171.118 126.924 170.746C126.444 170.362 125.886 170.17 125.25 170.17C124.758 170.17 124.296 170.314 123.864 170.602C123.444 170.89 123.156 171.352 123 171.988V178H121.452V169H123V169.936C123.312 169.588 123.69 169.312 124.134 169.108C124.578 168.892 125.052 168.784 125.556 168.784C126.144 168.784 126.738 168.922 127.338 169.198C127.95 169.474 128.424 169.93 128.76 170.566C129.048 170.062 129.456 169.642 129.984 169.306C130.524 168.958 131.118 168.784 131.766 168.784ZM143.143 166.948C142.843 166.948 142.603 166.864 142.423 166.696C142.243 166.528 142.153 166.294 142.153 165.994C142.153 165.706 142.243 165.478 142.423 165.31C142.603 165.13 142.843 165.04 143.143 165.04C143.443 165.04 143.683 165.13 143.863 165.31C144.043 165.478 144.133 165.706 144.133 165.994C144.133 166.294 144.043 166.528 143.863 166.696C143.695 166.864 143.455 166.948 143.143 166.948ZM142.369 178V169H143.917V178H142.369ZM151.274 168.784C152.15 168.784 152.93 168.994 153.614 169.414C154.31 169.822 154.85 170.386 155.234 171.106C155.618 171.826 155.81 172.624 155.81 173.5C155.81 174.388 155.618 175.192 155.234 175.912C154.85 176.62 154.316 177.184 153.632 177.604C152.948 178.012 152.162 178.216 151.274 178.216C150.626 178.216 150.008 178.078 149.42 177.802C148.832 177.526 148.328 177.142 147.908 176.65V181.6H146.36V169H147.908V170.35C148.328 169.858 148.832 169.474 149.42 169.198C150.008 168.922 150.626 168.784 151.274 168.784ZM151.112 176.704C151.7 176.704 152.234 176.566 152.714 176.29C153.194 176.014 153.572 175.63 153.848 175.138C154.124 174.646 154.262 174.1 154.262 173.5C154.262 172.888 154.124 172.342 153.848 171.862C153.572 171.37 153.194 170.986 152.714 170.71C152.234 170.422 151.7 170.278 151.112 170.278C150.524 170.278 149.984 170.422 149.492 170.71C149 170.986 148.61 171.37 148.322 171.862C148.046 172.354 147.908 172.906 147.908 173.518C147.908 174.118 148.046 174.664 148.322 175.156C148.61 175.636 149 176.014 149.492 176.29C149.984 176.566 150.524 176.704 151.112 176.704ZM158.87 171.466C158.87 171.814 159.032 172.066 159.356 172.222C159.692 172.378 160.226 172.546 160.958 172.726C161.666 172.894 162.242 173.062 162.686 173.23C163.142 173.398 163.526 173.662 163.838 174.022C164.162 174.382 164.324 174.868 164.324 175.48C164.324 176.308 163.982 176.974 163.298 177.478C162.614 177.97 161.756 178.216 160.724 178.216C159.8 178.216 159.02 178.036 158.384 177.676C157.748 177.316 157.286 176.812 156.998 176.164L158.276 175.498C158.468 175.978 158.774 176.338 159.194 176.578C159.614 176.806 160.124 176.92 160.724 176.92C161.288 176.92 161.774 176.794 162.182 176.542C162.602 176.29 162.812 175.942 162.812 175.498C162.812 175.222 162.71 174.994 162.506 174.814C162.314 174.634 162.068 174.496 161.768 174.4C161.48 174.304 161.066 174.184 160.526 174.04C159.842 173.872 159.284 173.71 158.852 173.554C158.432 173.386 158.066 173.14 157.754 172.816C157.454 172.492 157.304 172.054 157.304 171.502C157.304 170.974 157.454 170.506 157.754 170.098C158.054 169.678 158.462 169.354 158.978 169.126C159.494 168.898 160.07 168.784 160.706 168.784C161.462 168.784 162.128 168.946 162.704 169.27C163.292 169.594 163.742 170.044 164.054 170.62L162.776 171.268C162.596 170.884 162.332 170.59 161.984 170.386C161.636 170.17 161.21 170.062 160.706 170.062C160.142 170.062 159.692 170.194 159.356 170.458C159.032 170.71 158.87 171.046 158.87 171.466ZM172.042 169H173.59V178H172.042V176.938C171.718 177.322 171.328 177.634 170.872 177.874C170.416 178.102 169.918 178.216 169.378 178.216C168.85 178.216 168.31 178.108 167.758 177.892C167.206 177.664 166.732 177.268 166.336 176.704C165.94 176.128 165.742 175.354 165.742 174.382V169H167.29V174.382C167.29 175.258 167.53 175.888 168.01 176.272C168.502 176.644 169.066 176.83 169.702 176.83C170.326 176.83 170.872 176.614 171.34 176.182C171.808 175.738 172.042 175.018 172.042 174.022V169ZM186.469 168.784C186.997 168.784 187.537 168.898 188.089 169.126C188.641 169.342 189.115 169.738 189.511 170.314C189.919 170.878 190.123 171.646 190.123 172.618V178H188.557V172.618C188.557 171.742 188.317 171.118 187.837 170.746C187.357 170.362 186.799 170.17 186.163 170.17C185.647 170.17 185.173 170.32 184.741 170.62C184.321 170.92 184.039 171.412 183.895 172.096C183.907 172.204 183.913 172.378 183.913 172.618V178H182.365V172.618C182.365 171.742 182.119 171.118 181.627 170.746C181.147 170.362 180.589 170.17 179.953 170.17C179.461 170.17 178.999 170.314 178.567 170.602C178.147 170.89 177.859 171.352 177.703 171.988V178H176.155V169H177.703V169.936C178.015 169.588 178.393 169.312 178.837 169.108C179.281 168.892 179.755 168.784 180.259 168.784C180.847 168.784 181.441 168.922 182.041 169.198C182.653 169.474 183.127 169.93 183.463 170.566C183.751 170.062 184.159 169.642 184.687 169.306C185.227 168.958 185.821 168.784 186.469 168.784ZM204.489 165.4H206.037V178H204.489V176.65C204.069 177.142 203.565 177.532 202.977 177.82C202.401 178.096 201.783 178.234 201.123 178.234C200.247 178.234 199.461 178.03 198.765 177.622C198.069 177.202 197.529 176.632 197.145 175.912C196.761 175.192 196.569 174.394 196.569 173.518C196.569 172.63 196.761 171.832 197.145 171.124C197.529 170.404 198.063 169.84 198.747 169.432C199.443 169.012 200.235 168.802 201.123 168.802C201.783 168.802 202.401 168.946 202.977 169.234C203.565 169.51 204.069 169.894 204.489 170.386V165.4ZM201.285 176.74C201.873 176.74 202.413 176.602 202.905 176.326C203.397 176.038 203.781 175.648 204.057 175.156C204.345 174.664 204.489 174.112 204.489 173.5C204.489 172.9 204.345 172.36 204.057 171.88C203.781 171.388 203.397 171.004 202.905 170.728C202.413 170.452 201.873 170.314 201.285 170.314C200.697 170.314 200.163 170.452 199.683 170.728C199.203 171.004 198.825 171.388 198.549 171.88C198.273 172.372 198.135 172.918 198.135 173.518C198.135 174.13 198.273 174.682 198.549 175.174C198.825 175.654 199.203 176.038 199.683 176.326C200.163 176.602 200.697 176.74 201.285 176.74ZM212.375 178.216C211.523 178.216 210.737 178.006 210.017 177.586C209.297 177.166 208.721 176.596 208.289 175.876C207.869 175.144 207.659 174.352 207.659 173.5C207.659 172.648 207.869 171.862 208.289 171.142C208.721 170.422 209.297 169.852 210.017 169.432C210.737 169.012 211.523 168.802 212.375 168.802C213.227 168.802 214.013 169.012 214.733 169.432C215.453 169.852 216.023 170.422 216.443 171.142C216.875 171.862 217.091 172.648 217.091 173.5C217.091 174.352 216.875 175.144 216.443 175.876C216.023 176.596 215.453 177.166 214.733 177.586C214.013 178.006 213.227 178.216 212.375 178.216ZM212.375 176.668C212.951 176.668 213.479 176.53 213.959 176.254C214.439 175.966 214.817 175.582 215.093 175.102C215.381 174.61 215.525 174.076 215.525 173.5C215.525 172.924 215.381 172.396 215.093 171.916C214.817 171.436 214.439 171.058 213.959 170.782C213.479 170.494 212.951 170.35 212.375 170.35C211.799 170.35 211.265 170.494 210.773 170.782C210.293 171.058 209.909 171.436 209.621 171.916C209.345 172.396 209.207 172.924 209.207 173.5C209.207 174.076 209.345 174.61 209.621 175.102C209.909 175.582 210.293 175.966 210.773 176.254C211.265 176.53 211.799 176.668 212.375 176.668ZM220.26 176.092C220.26 176.296 220.302 176.44 220.386 176.524C220.482 176.596 220.626 176.632 220.818 176.632C220.926 176.632 221.028 176.626 221.124 176.614C221.22 176.602 221.31 176.59 221.394 176.578V178C221.01 178.06 220.686 178.09 220.422 178.09C219.882 178.09 219.462 177.952 219.162 177.676C218.862 177.388 218.712 176.89 218.712 176.182V165.4H220.26V176.092ZM226.701 178.216C225.849 178.216 225.063 178.006 224.343 177.586C223.623 177.166 223.047 176.596 222.615 175.876C222.195 175.144 221.985 174.352 221.985 173.5C221.985 172.648 222.195 171.862 222.615 171.142C223.047 170.422 223.623 169.852 224.343 169.432C225.063 169.012 225.849 168.802 226.701 168.802C227.553 168.802 228.339 169.012 229.059 169.432C229.779 169.852 230.349 170.422 230.769 171.142C231.201 171.862 231.417 172.648 231.417 173.5C231.417 174.352 231.201 175.144 230.769 175.876C230.349 176.596 229.779 177.166 229.059 177.586C228.339 178.006 227.553 178.216 226.701 178.216ZM226.701 176.668C227.277 176.668 227.805 176.53 228.285 176.254C228.765 175.966 229.143 175.582 229.419 175.102C229.707 174.61 229.851 174.076 229.851 173.5C229.851 172.924 229.707 172.396 229.419 171.916C229.143 171.436 228.765 171.058 228.285 170.782C227.805 170.494 227.277 170.35 226.701 170.35C226.125 170.35 225.591 170.494 225.099 170.782C224.619 171.058 224.235 171.436 223.947 171.916C223.671 172.396 223.533 172.924 223.533 173.5C223.533 174.076 223.671 174.61 223.947 175.102C224.235 175.582 224.619 175.966 225.099 176.254C225.591 176.53 226.125 176.668 226.701 176.668ZM237.448 168.802C237.592 168.802 237.7 168.808 237.772 168.82L237.646 170.296C237.502 170.272 237.388 170.26 237.304 170.26C236.536 170.26 235.888 170.494 235.36 170.962C234.844 171.43 234.586 172.108 234.586 172.996V178H233.038V169H234.586V170.548C234.79 170.056 235.138 169.642 235.63 169.306C236.134 168.97 236.74 168.802 237.448 168.802ZM245.319 171.466C245.319 171.814 245.481 172.066 245.805 172.222C246.141 172.378 246.675 172.546 247.407 172.726C248.115 172.894 248.691 173.062 249.135 173.23C249.591 173.398 249.975 173.662 250.287 174.022C250.611 174.382 250.773 174.868 250.773 175.48C250.773 176.308 250.431 176.974 249.747 177.478C249.063 177.97 248.205 178.216 247.173 178.216C246.249 178.216 245.469 178.036 244.833 177.676C244.197 177.316 243.735 176.812 243.447 176.164L244.725 175.498C244.917 175.978 245.223 176.338 245.643 176.578C246.063 176.806 246.573 176.92 247.173 176.92C247.737 176.92 248.223 176.794 248.631 176.542C249.051 176.29 249.261 175.942 249.261 175.498C249.261 175.222 249.159 174.994 248.955 174.814C248.763 174.634 248.517 174.496 248.217 174.4C247.929 174.304 247.515 174.184 246.975 174.04C246.291 173.872 245.733 173.71 245.301 173.554C244.881 173.386 244.515 173.14 244.203 172.816C243.903 172.492 243.753 172.054 243.753 171.502C243.753 170.974 243.903 170.506 244.203 170.098C244.503 169.678 244.911 169.354 245.427 169.126C245.943 168.898 246.519 168.784 247.155 168.784C247.911 168.784 248.577 168.946 249.153 169.27C249.741 169.594 250.191 170.044 250.503 170.62L249.225 171.268C249.045 170.884 248.781 170.59 248.433 170.386C248.085 170.17 247.659 170.062 247.155 170.062C246.591 170.062 246.141 170.194 245.805 170.458C245.481 170.71 245.319 171.046 245.319 171.466ZM253.147 166.948C252.847 166.948 252.607 166.864 252.427 166.696C252.247 166.528 252.157 166.294 252.157 165.994C252.157 165.706 252.247 165.478 252.427 165.31C252.607 165.13 252.847 165.04 253.147 165.04C253.447 165.04 253.687 165.13 253.867 165.31C254.047 165.478 254.137 165.706 254.137 165.994C254.137 166.294 254.047 166.528 253.867 166.696C253.699 166.864 253.459 166.948 253.147 166.948ZM252.373 178V169H253.921V178H252.373ZM259.08 175.192C259.08 175.744 259.182 176.128 259.386 176.344C259.602 176.548 259.944 176.65 260.412 176.65C260.556 176.65 260.856 176.626 261.312 176.578V178C260.796 178.06 260.364 178.09 260.016 178.09C259.164 178.09 258.534 177.886 258.126 177.478C257.73 177.07 257.532 176.338 257.532 175.282V170.422H255.534V169H257.532V166.552L259.08 165.994V169H261.276V170.422H259.08V175.192ZM275.434 169H277V178H275.434V176.65C275.014 177.142 274.51 177.532 273.922 177.82C273.346 178.096 272.728 178.234 272.068 178.234C271.192 178.234 270.406 178.03 269.71 177.622C269.014 177.202 268.474 176.632 268.09 175.912C267.706 175.192 267.514 174.394 267.514 173.518C267.514 172.63 267.706 171.832 268.09 171.124C268.474 170.404 269.008 169.84 269.692 169.432C270.388 169.012 271.18 168.802 272.068 168.802C272.728 168.802 273.346 168.946 273.922 169.234C274.51 169.51 275.014 169.894 275.434 170.386V169ZM272.23 176.74C272.818 176.74 273.358 176.602 273.85 176.326C274.342 176.038 274.726 175.648 275.002 175.156C275.29 174.664 275.434 174.112 275.434 173.5C275.434 172.9 275.29 172.36 275.002 171.88C274.726 171.388 274.342 171.004 273.85 170.728C273.358 170.452 272.818 170.314 272.23 170.314C271.642 170.314 271.108 170.452 270.628 170.728C270.148 171.004 269.77 171.388 269.494 171.88C269.218 172.372 269.08 172.918 269.08 173.518C269.08 174.13 269.218 174.682 269.494 175.174C269.77 175.654 270.148 176.038 270.628 176.326C271.108 176.602 271.642 176.74 272.23 176.74ZM289.846 168.784C290.374 168.784 290.914 168.898 291.466 169.126C292.018 169.342 292.492 169.738 292.888 170.314C293.296 170.878 293.5 171.646 293.5 172.618V178H291.934V172.618C291.934 171.742 291.694 171.118 291.214 170.746C290.734 170.362 290.176 170.17 289.54 170.17C289.024 170.17 288.55 170.32 288.118 170.62C287.698 170.92 287.416 171.412 287.272 172.096C287.284 172.204 287.29 172.378 287.29 172.618V178H285.742V172.618C285.742 171.742 285.496 171.118 285.004 170.746C284.524 170.362 283.966 170.17 283.33 170.17C282.838 170.17 282.376 170.314 281.944 170.602C281.524 170.89 281.236 171.352 281.08 171.988V178H279.532V169H281.08V169.936C281.392 169.588 281.77 169.312 282.214 169.108C282.658 168.892 283.132 168.784 283.636 168.784C284.224 168.784 284.818 168.922 285.418 169.198C286.03 169.474 286.504 169.93 286.84 170.566C287.128 170.062 287.536 169.642 288.064 169.306C288.604 168.958 289.198 168.784 289.846 168.784ZM299.615 168.784C300.491 168.784 301.271 169 301.955 169.432C302.639 169.852 303.167 170.428 303.539 171.16C303.923 171.88 304.115 172.666 304.115 173.518C304.115 173.614 304.109 173.722 304.097 173.842C304.085 173.95 304.073 174.04 304.061 174.112H296.483C296.603 174.916 296.951 175.576 297.527 176.092C298.115 176.596 298.859 176.848 299.759 176.848C300.311 176.848 300.833 176.722 301.325 176.47C301.829 176.218 302.201 175.906 302.441 175.534L303.665 176.254C303.269 176.878 302.729 177.364 302.045 177.712C301.373 178.048 300.605 178.216 299.741 178.216C298.793 178.216 297.953 178.012 297.221 177.604C296.489 177.196 295.919 176.638 295.511 175.93C295.103 175.21 294.899 174.4 294.899 173.5C294.899 172.612 295.097 171.814 295.493 171.106C295.901 170.386 296.459 169.822 297.167 169.414C297.887 168.994 298.703 168.784 299.615 168.784ZM302.639 172.852C302.519 172.012 302.195 171.352 301.667 170.872C301.139 170.392 300.455 170.152 299.615 170.152C299.027 170.152 298.493 170.278 298.013 170.53C297.533 170.782 297.155 171.118 296.879 171.538C296.603 171.946 296.459 172.384 296.447 172.852H302.639ZM308.211 175.192C308.211 175.744 308.313 176.128 308.517 176.344C308.733 176.548 309.075 176.65 309.543 176.65C309.687 176.65 309.987 176.626 310.443 176.578V178C309.927 178.06 309.495 178.09 309.147 178.09C308.295 178.09 307.665 177.886 307.257 177.478C306.861 177.07 306.663 176.338 306.663 175.282V170.422H304.665V169H306.663V166.552L308.211 165.994V169H310.407V170.422H308.211V175.192ZM313.12 178.144C312.82 178.096 312.61 178 312.49 177.856C312.382 177.712 312.328 177.472 312.328 177.136C312.328 176.8 312.418 176.542 312.598 176.362C312.79 176.182 313.042 176.092 313.354 176.092C313.678 176.092 313.936 176.194 314.128 176.398C314.32 176.59 314.416 176.848 314.416 177.172C314.404 177.544 314.35 177.862 314.254 178.126C314.158 178.39 313.978 178.732 313.714 179.152L313.012 180.214L312.418 179.728L313.12 178.144ZM329.359 176.254C328.927 176.854 328.375 177.334 327.703 177.694C327.043 178.042 326.323 178.216 325.543 178.216C324.691 178.216 323.905 178.006 323.185 177.586C322.465 177.166 321.889 176.596 321.457 175.876C321.037 175.144 320.827 174.352 320.827 173.5C320.827 172.648 321.037 171.862 321.457 171.142C321.889 170.422 322.465 169.852 323.185 169.432C323.905 169.012 324.691 168.802 325.543 168.802C326.311 168.802 327.025 168.976 327.685 169.324C328.345 169.672 328.897 170.14 329.341 170.728L328.063 171.592C327.751 171.196 327.379 170.89 326.947 170.674C326.515 170.458 326.047 170.35 325.543 170.35C324.967 170.35 324.439 170.494 323.959 170.782C323.479 171.058 323.095 171.436 322.807 171.916C322.531 172.396 322.393 172.924 322.393 173.5C322.393 174.076 322.531 174.61 322.807 175.102C323.095 175.582 323.479 175.966 323.959 176.254C324.439 176.53 324.967 176.668 325.543 176.668C326.047 176.668 326.515 176.56 326.947 176.344C327.391 176.116 327.763 175.804 328.063 175.408L329.359 176.254ZM334.895 178.216C334.043 178.216 333.257 178.006 332.537 177.586C331.817 177.166 331.241 176.596 330.809 175.876C330.389 175.144 330.179 174.352 330.179 173.5C330.179 172.648 330.389 171.862 330.809 171.142C331.241 170.422 331.817 169.852 332.537 169.432C333.257 169.012 334.043 168.802 334.895 168.802C335.747 168.802 336.533 169.012 337.253 169.432C337.973 169.852 338.543 170.422 338.963 171.142C339.395 171.862 339.611 172.648 339.611 173.5C339.611 174.352 339.395 175.144 338.963 175.876C338.543 176.596 337.973 177.166 337.253 177.586C336.533 178.006 335.747 178.216 334.895 178.216ZM334.895 176.668C335.471 176.668 335.999 176.53 336.479 176.254C336.959 175.966 337.337 175.582 337.613 175.102C337.901 174.61 338.045 174.076 338.045 173.5C338.045 172.924 337.901 172.396 337.613 171.916C337.337 171.436 336.959 171.058 336.479 170.782C335.999 170.494 335.471 170.35 334.895 170.35C334.319 170.35 333.785 170.494 333.293 170.782C332.813 171.058 332.429 171.436 332.141 171.916C331.865 172.396 331.727 172.924 331.727 173.5C331.727 174.076 331.865 174.61 332.141 175.102C332.429 175.582 332.813 175.966 333.293 176.254C333.785 176.53 334.319 176.668 334.895 176.668ZM345.443 168.784C345.971 168.784 346.511 168.898 347.063 169.126C347.615 169.342 348.089 169.738 348.485 170.314C348.881 170.878 349.079 171.646 349.079 172.618V178H347.531V172.618C347.531 171.742 347.291 171.118 346.811 170.746C346.331 170.362 345.767 170.17 345.119 170.17C344.495 170.17 343.949 170.392 343.481 170.836C343.013 171.268 342.779 171.982 342.779 172.978V178H341.231V169H342.779V170.062C343.103 169.678 343.493 169.372 343.949 169.144C344.405 168.904 344.903 168.784 345.443 168.784ZM352.317 171.466C352.317 171.814 352.479 172.066 352.803 172.222C353.139 172.378 353.673 172.546 354.405 172.726C355.113 172.894 355.689 173.062 356.133 173.23C356.589 173.398 356.973 173.662 357.285 174.022C357.609 174.382 357.771 174.868 357.771 175.48C357.771 176.308 357.429 176.974 356.745 177.478C356.061 177.97 355.203 178.216 354.171 178.216C353.247 178.216 352.467 178.036 351.831 177.676C351.195 177.316 350.733 176.812 350.445 176.164L351.723 175.498C351.915 175.978 352.221 176.338 352.641 176.578C353.061 176.806 353.571 176.92 354.171 176.92C354.735 176.92 355.221 176.794 355.629 176.542C356.049 176.29 356.259 175.942 356.259 175.498C356.259 175.222 356.157 174.994 355.953 174.814C355.761 174.634 355.515 174.496 355.215 174.4C354.927 174.304 354.513 174.184 353.973 174.04C353.289 173.872 352.731 173.71 352.299 173.554C351.879 173.386 351.513 173.14 351.201 172.816C350.901 172.492 350.751 172.054 350.751 171.502C350.751 170.974 350.901 170.506 351.201 170.098C351.501 169.678 351.909 169.354 352.425 169.126C352.941 168.898 353.517 168.784 354.153 168.784C354.909 168.784 355.575 168.946 356.151 169.27C356.739 169.594 357.189 170.044 357.501 170.62L356.223 171.268C356.043 170.884 355.779 170.59 355.431 170.386C355.083 170.17 354.657 170.062 354.153 170.062C353.589 170.062 353.139 170.194 352.803 170.458C352.479 170.71 352.317 171.046 352.317 171.466ZM363.529 168.784C364.405 168.784 365.185 169 365.869 169.432C366.553 169.852 367.081 170.428 367.453 171.16C367.837 171.88 368.029 172.666 368.029 173.518C368.029 173.614 368.023 173.722 368.011 173.842C367.999 173.95 367.987 174.04 367.975 174.112H360.397C360.517 174.916 360.865 175.576 361.441 176.092C362.029 176.596 362.773 176.848 363.673 176.848C364.225 176.848 364.747 176.722 365.239 176.47C365.743 176.218 366.115 175.906 366.355 175.534L367.579 176.254C367.183 176.878 366.643 177.364 365.959 177.712C365.287 178.048 364.519 178.216 363.655 178.216C362.707 178.216 361.867 178.012 361.135 177.604C360.403 177.196 359.833 176.638 359.425 175.93C359.017 175.21 358.813 174.4 358.813 173.5C358.813 172.612 359.011 171.814 359.407 171.106C359.815 170.386 360.373 169.822 361.081 169.414C361.801 168.994 362.617 168.784 363.529 168.784ZM366.553 172.852C366.433 172.012 366.109 171.352 365.581 170.872C365.053 170.392 364.369 170.152 363.529 170.152C362.941 170.152 362.407 170.278 361.927 170.53C361.447 170.782 361.069 171.118 360.793 171.538C360.517 171.946 360.373 172.384 360.361 172.852H366.553ZM377.558 176.254C377.126 176.854 376.574 177.334 375.902 177.694C375.242 178.042 374.522 178.216 373.742 178.216C372.89 178.216 372.104 178.006 371.384 177.586C370.664 177.166 370.088 176.596 369.656 175.876C369.236 175.144 369.026 174.352 369.026 173.5C369.026 172.648 369.236 171.862 369.656 171.142C370.088 170.422 370.664 169.852 371.384 169.432C372.104 169.012 372.89 168.802 373.742 168.802C374.51 168.802 375.224 168.976 375.884 169.324C376.544 169.672 377.096 170.14 377.54 170.728L376.262 171.592C375.95 171.196 375.578 170.89 375.146 170.674C374.714 170.458 374.246 170.35 373.742 170.35C373.166 170.35 372.638 170.494 372.158 170.782C371.678 171.058 371.294 171.436 371.006 171.916C370.73 172.396 370.592 172.924 370.592 173.5C370.592 174.076 370.73 174.61 371.006 175.102C371.294 175.582 371.678 175.966 372.158 176.254C372.638 176.53 373.166 176.668 373.742 176.668C374.246 176.668 374.714 176.56 375.146 176.344C375.59 176.116 375.962 175.804 376.262 175.408L377.558 176.254ZM381.723 175.192C381.723 175.744 381.825 176.128 382.029 176.344C382.245 176.548 382.587 176.65 383.055 176.65C383.199 176.65 383.499 176.626 383.955 176.578V178C383.439 178.06 383.007 178.09 382.659 178.09C381.807 178.09 381.177 177.886 380.769 177.478C380.373 177.07 380.175 176.338 380.175 175.282V170.422H378.177V169H380.175V166.552L381.723 165.994V169H383.919V170.422H381.723V175.192ZM389.58 168.784C390.456 168.784 391.236 169 391.92 169.432C392.604 169.852 393.132 170.428 393.504 171.16C393.888 171.88 394.08 172.666 394.08 173.518C394.08 173.614 394.074 173.722 394.062 173.842C394.05 173.95 394.038 174.04 394.026 174.112H386.448C386.568 174.916 386.916 175.576 387.492 176.092C388.08 176.596 388.824 176.848 389.724 176.848C390.276 176.848 390.798 176.722 391.29 176.47C391.794 176.218 392.166 175.906 392.406 175.534L393.63 176.254C393.234 176.878 392.694 177.364 392.01 177.712C391.338 178.048 390.57 178.216 389.706 178.216C388.758 178.216 387.918 178.012 387.186 177.604C386.454 177.196 385.884 176.638 385.476 175.93C385.068 175.21 384.864 174.4 384.864 173.5C384.864 172.612 385.062 171.814 385.458 171.106C385.866 170.386 386.424 169.822 387.132 169.414C387.852 168.994 388.668 168.784 389.58 168.784ZM392.604 172.852C392.484 172.012 392.16 171.352 391.632 170.872C391.104 170.392 390.42 170.152 389.58 170.152C388.992 170.152 388.458 170.278 387.978 170.53C387.498 170.782 387.12 171.118 386.844 171.538C386.568 171.946 386.424 172.384 386.412 172.852H392.604ZM93.676 199H95.242V208H93.676V206.65C93.256 207.142 92.752 207.532 92.164 207.82C91.588 208.096 90.97 208.234 90.31 208.234C89.434 208.234 88.648 208.03 87.952 207.622C87.256 207.202 86.716 206.632 86.332 205.912C85.948 205.192 85.756 204.394 85.756 203.518C85.756 202.63 85.948 201.832 86.332 201.124C86.716 200.404 87.25 199.84 87.934 199.432C88.63 199.012 89.422 198.802 90.31 198.802C90.97 198.802 91.588 198.946 92.164 199.234C92.752 199.51 93.256 199.894 93.676 200.386V199ZM90.472 206.74C91.06 206.74 91.6 206.602 92.092 206.326C92.584 206.038 92.968 205.648 93.244 205.156C93.532 204.664 93.676 204.112 93.676 203.5C93.676 202.9 93.532 202.36 93.244 201.88C92.968 201.388 92.584 201.004 92.092 200.728C91.6 200.452 91.06 200.314 90.472 200.314C89.884 200.314 89.35 200.452 88.87 200.728C88.39 201.004 88.012 201.388 87.736 201.88C87.46 202.372 87.322 202.918 87.322 203.518C87.322 204.13 87.46 204.682 87.736 205.174C88.012 205.654 88.39 206.038 88.87 206.326C89.35 206.602 89.884 206.74 90.472 206.74ZM104.821 195.4H106.369V208H104.821V206.65C104.401 207.142 103.897 207.532 103.309 207.82C102.733 208.096 102.115 208.234 101.455 208.234C100.579 208.234 99.7925 208.03 99.0965 207.622C98.4005 207.202 97.8605 206.632 97.4765 205.912C97.0925 205.192 96.9005 204.394 96.9005 203.518C96.9005 202.63 97.0925 201.832 97.4765 201.124C97.8605 200.404 98.3945 199.84 99.0785 199.432C99.7745 199.012 100.567 198.802 101.455 198.802C102.115 198.802 102.733 198.946 103.309 199.234C103.897 199.51 104.401 199.894 104.821 200.386V195.4ZM101.617 206.74C102.205 206.74 102.745 206.602 103.237 206.326C103.729 206.038 104.113 205.648 104.389 205.156C104.677 204.664 104.821 204.112 104.821 203.5C104.821 202.9 104.677 202.36 104.389 201.88C104.113 201.388 103.729 201.004 103.237 200.728C102.745 200.452 102.205 200.314 101.617 200.314C101.029 200.314 100.495 200.452 100.015 200.728C99.5345 201.004 99.1565 201.388 98.8805 201.88C98.6045 202.372 98.4665 202.918 98.4665 203.518C98.4665 204.13 98.6045 204.682 98.8805 205.174C99.1565 205.654 99.5345 206.038 100.015 206.326C100.495 206.602 101.029 206.74 101.617 206.74ZM109.675 196.948C109.375 196.948 109.135 196.864 108.955 196.696C108.775 196.528 108.685 196.294 108.685 195.994C108.685 195.706 108.775 195.478 108.955 195.31C109.135 195.13 109.375 195.04 109.675 195.04C109.975 195.04 110.215 195.13 110.395 195.31C110.575 195.478 110.665 195.706 110.665 195.994C110.665 196.294 110.575 196.528 110.395 196.696C110.227 196.864 109.987 196.948 109.675 196.948ZM108.901 208V199H110.449V208H108.901ZM117.805 198.784C118.681 198.784 119.461 198.994 120.145 199.414C120.841 199.822 121.381 200.386 121.765 201.106C122.149 201.826 122.341 202.624 122.341 203.5C122.341 204.388 122.149 205.192 121.765 205.912C121.381 206.62 120.847 207.184 120.163 207.604C119.479 208.012 118.693 208.216 117.805 208.216C117.157 208.216 116.539 208.078 115.951 207.802C115.363 207.526 114.859 207.142 114.439 206.65V211.6H112.891V199H114.439V200.35C114.859 199.858 115.363 199.474 115.951 199.198C116.539 198.922 117.157 198.784 117.805 198.784ZM117.643 206.704C118.231 206.704 118.765 206.566 119.245 206.29C119.725 206.014 120.103 205.63 120.379 205.138C120.655 204.646 120.793 204.1 120.793 203.5C120.793 202.888 120.655 202.342 120.379 201.862C120.103 201.37 119.725 200.986 119.245 200.71C118.765 200.422 118.231 200.278 117.643 200.278C117.055 200.278 116.515 200.422 116.023 200.71C115.531 200.986 115.141 201.37 114.853 201.862C114.577 202.354 114.439 202.906 114.439 203.518C114.439 204.118 114.577 204.664 114.853 205.156C115.141 205.636 115.531 206.014 116.023 206.29C116.515 206.566 117.055 206.704 117.643 206.704ZM124.95 196.948C124.65 196.948 124.41 196.864 124.23 196.696C124.05 196.528 123.96 196.294 123.96 195.994C123.96 195.706 124.05 195.478 124.23 195.31C124.41 195.13 124.65 195.04 124.95 195.04C125.25 195.04 125.49 195.13 125.67 195.31C125.85 195.478 125.94 195.706 125.94 195.994C125.94 196.294 125.85 196.528 125.67 196.696C125.502 196.864 125.262 196.948 124.95 196.948ZM124.176 208V199H125.724V208H124.176ZM129.127 201.466C129.127 201.814 129.289 202.066 129.613 202.222C129.949 202.378 130.483 202.546 131.215 202.726C131.923 202.894 132.499 203.062 132.943 203.23C133.399 203.398 133.783 203.662 134.095 204.022C134.419 204.382 134.581 204.868 134.581 205.48C134.581 206.308 134.239 206.974 133.555 207.478C132.871 207.97 132.013 208.216 130.981 208.216C130.057 208.216 129.277 208.036 128.641 207.676C128.005 207.316 127.543 206.812 127.255 206.164L128.533 205.498C128.725 205.978 129.031 206.338 129.451 206.578C129.871 206.806 130.381 206.92 130.981 206.92C131.545 206.92 132.031 206.794 132.439 206.542C132.859 206.29 133.069 205.942 133.069 205.498C133.069 205.222 132.967 204.994 132.763 204.814C132.571 204.634 132.325 204.496 132.025 204.4C131.737 204.304 131.323 204.184 130.783 204.04C130.099 203.872 129.541 203.71 129.109 203.554C128.689 203.386 128.323 203.14 128.011 202.816C127.711 202.492 127.561 202.054 127.561 201.502C127.561 200.974 127.711 200.506 128.011 200.098C128.311 199.678 128.719 199.354 129.235 199.126C129.751 198.898 130.327 198.784 130.963 198.784C131.719 198.784 132.385 198.946 132.961 199.27C133.549 199.594 133.999 200.044 134.311 200.62L133.033 201.268C132.853 200.884 132.589 200.59 132.241 200.386C131.893 200.17 131.467 200.062 130.963 200.062C130.399 200.062 129.949 200.194 129.613 200.458C129.289 200.71 129.127 201.046 129.127 201.466ZM144.226 206.254C143.794 206.854 143.242 207.334 142.57 207.694C141.91 208.042 141.19 208.216 140.41 208.216C139.558 208.216 138.772 208.006 138.052 207.586C137.332 207.166 136.756 206.596 136.324 205.876C135.904 205.144 135.694 204.352 135.694 203.5C135.694 202.648 135.904 201.862 136.324 201.142C136.756 200.422 137.332 199.852 138.052 199.432C138.772 199.012 139.558 198.802 140.41 198.802C141.178 198.802 141.892 198.976 142.552 199.324C143.212 199.672 143.764 200.14 144.208 200.728L142.93 201.592C142.618 201.196 142.246 200.89 141.814 200.674C141.382 200.458 140.914 200.35 140.41 200.35C139.834 200.35 139.306 200.494 138.826 200.782C138.346 201.058 137.962 201.436 137.674 201.916C137.398 202.396 137.26 202.924 137.26 203.5C137.26 204.076 137.398 204.61 137.674 205.102C137.962 205.582 138.346 205.966 138.826 206.254C139.306 206.53 139.834 206.668 140.41 206.668C140.914 206.668 141.382 206.56 141.814 206.344C142.258 206.116 142.63 205.804 142.93 205.408L144.226 206.254ZM146.554 196.948C146.254 196.948 146.014 196.864 145.834 196.696C145.654 196.528 145.564 196.294 145.564 195.994C145.564 195.706 145.654 195.478 145.834 195.31C146.014 195.13 146.254 195.04 146.554 195.04C146.854 195.04 147.094 195.13 147.274 195.31C147.454 195.478 147.544 195.706 147.544 195.994C147.544 196.294 147.454 196.528 147.274 196.696C147.106 196.864 146.866 196.948 146.554 196.948ZM145.78 208V199H147.328V208H145.78ZM153.982 198.784C154.51 198.784 155.05 198.898 155.602 199.126C156.154 199.342 156.628 199.738 157.024 200.314C157.42 200.878 157.618 201.646 157.618 202.618V208H156.07V202.618C156.07 201.742 155.83 201.118 155.35 200.746C154.87 200.362 154.306 200.17 153.658 200.17C153.034 200.17 152.488 200.392 152.02 200.836C151.552 201.268 151.318 201.982 151.318 202.978V208H149.77V199H151.318V200.062C151.642 199.678 152.032 199.372 152.488 199.144C152.944 198.904 153.442 198.784 153.982 198.784ZM167.066 199H168.614V207.568C168.614 208.42 168.404 209.164 167.984 209.8C167.576 210.448 167.012 210.946 166.292 211.294C165.572 211.642 164.762 211.816 163.862 211.816C162.818 211.816 161.894 211.618 161.09 211.222C160.286 210.838 159.716 210.316 159.38 209.656L160.712 208.882C160.916 209.302 161.288 209.656 161.828 209.944C162.38 210.232 163.064 210.376 163.88 210.376C164.804 210.376 165.566 210.118 166.166 209.602C166.766 209.086 167.066 208.408 167.066 207.568V206.668C166.646 207.16 166.142 207.544 165.554 207.82C164.966 208.096 164.348 208.234 163.7 208.234C162.824 208.234 162.038 208.03 161.342 207.622C160.658 207.202 160.124 206.632 159.74 205.912C159.356 205.192 159.164 204.394 159.164 203.518C159.164 202.63 159.356 201.832 159.74 201.124C160.124 200.404 160.658 199.84 161.342 199.432C162.026 199.012 162.812 198.802 163.7 198.802C164.348 198.802 164.966 198.94 165.554 199.216C166.142 199.492 166.646 199.876 167.066 200.368V199ZM163.862 206.74C164.45 206.74 164.99 206.602 165.482 206.326C165.974 206.038 166.358 205.648 166.634 205.156C166.922 204.664 167.066 204.112 167.066 203.5C167.066 202.9 166.922 202.36 166.634 201.88C166.358 201.388 165.974 201.004 165.482 200.728C164.99 200.452 164.45 200.314 163.862 200.314C163.274 200.314 162.74 200.452 162.26 200.728C161.78 201.004 161.402 201.388 161.126 201.88C160.85 202.372 160.712 202.918 160.712 203.518C160.712 204.13 160.85 204.682 161.126 205.174C161.402 205.654 161.78 206.038 162.26 206.326C162.74 206.602 163.274 206.74 163.862 206.74ZM179.943 198.784C180.819 198.784 181.599 199 182.283 199.432C182.967 199.852 183.495 200.428 183.867 201.16C184.251 201.88 184.443 202.666 184.443 203.518C184.443 203.614 184.437 203.722 184.425 203.842C184.413 203.95 184.401 204.04 184.389 204.112H176.811C176.931 204.916 177.279 205.576 177.855 206.092C178.443 206.596 179.187 206.848 180.087 206.848C180.639 206.848 181.161 206.722 181.653 206.47C182.157 206.218 182.529 205.906 182.769 205.534L183.993 206.254C183.597 206.878 183.057 207.364 182.373 207.712C181.701 208.048 180.933 208.216 180.069 208.216C179.121 208.216 178.281 208.012 177.549 207.604C176.817 207.196 176.247 206.638 175.839 205.93C175.431 205.21 175.227 204.4 175.227 203.5C175.227 202.612 175.425 201.814 175.821 201.106C176.229 200.386 176.787 199.822 177.495 199.414C178.215 198.994 179.031 198.784 179.943 198.784ZM182.967 202.852C182.847 202.012 182.523 201.352 181.995 200.872C181.467 200.392 180.783 200.152 179.943 200.152C179.355 200.152 178.821 200.278 178.341 200.53C177.861 200.782 177.483 201.118 177.207 201.538C176.931 201.946 176.787 202.384 176.775 202.852H182.967ZM187.564 206.092C187.564 206.296 187.606 206.44 187.69 206.524C187.786 206.596 187.93 206.632 188.122 206.632C188.23 206.632 188.332 206.626 188.428 206.614C188.524 206.602 188.614 206.59 188.698 206.578V208C188.314 208.06 187.99 208.09 187.726 208.09C187.186 208.09 186.766 207.952 186.466 207.676C186.166 207.388 186.016 206.89 186.016 206.182V195.4H187.564V206.092ZM191.272 196.948C190.972 196.948 190.732 196.864 190.552 196.696C190.372 196.528 190.282 196.294 190.282 195.994C190.282 195.706 190.372 195.478 190.552 195.31C190.732 195.13 190.972 195.04 191.272 195.04C191.572 195.04 191.812 195.13 191.992 195.31C192.172 195.478 192.262 195.706 192.262 195.994C192.262 196.294 192.172 196.528 191.992 196.696C191.824 196.864 191.584 196.948 191.272 196.948ZM190.498 208V199H192.046V208H190.498ZM197.205 205.192C197.205 205.744 197.307 206.128 197.511 206.344C197.727 206.548 198.069 206.65 198.537 206.65C198.681 206.65 198.981 206.626 199.437 206.578V208C198.921 208.06 198.489 208.09 198.141 208.09C197.289 208.09 196.659 207.886 196.251 207.478C195.855 207.07 195.657 206.338 195.657 205.282V200.422H193.659V199H195.657V196.552L197.205 195.994V199H199.401V200.422H197.205V205.192ZM202.114 208.144C201.814 208.096 201.604 208 201.484 207.856C201.376 207.712 201.322 207.472 201.322 207.136C201.322 206.8 201.412 206.542 201.592 206.362C201.784 206.182 202.036 206.092 202.348 206.092C202.672 206.092 202.93 206.194 203.122 206.398C203.314 206.59 203.41 206.848 203.41 207.172C203.398 207.544 203.344 207.862 203.248 208.126C203.152 208.39 202.972 208.732 202.708 209.152L202.006 210.214L201.412 209.728L202.114 208.144ZM211.639 201.466C211.639 201.814 211.801 202.066 212.125 202.222C212.461 202.378 212.995 202.546 213.727 202.726C214.435 202.894 215.011 203.062 215.455 203.23C215.911 203.398 216.295 203.662 216.607 204.022C216.931 204.382 217.093 204.868 217.093 205.48C217.093 206.308 216.751 206.974 216.067 207.478C215.383 207.97 214.525 208.216 213.493 208.216C212.569 208.216 211.789 208.036 211.153 207.676C210.517 207.316 210.055 206.812 209.767 206.164L211.045 205.498C211.237 205.978 211.543 206.338 211.963 206.578C212.383 206.806 212.893 206.92 213.493 206.92C214.057 206.92 214.543 206.794 214.951 206.542C215.371 206.29 215.581 205.942 215.581 205.498C215.581 205.222 215.479 204.994 215.275 204.814C215.083 204.634 214.837 204.496 214.537 204.4C214.249 204.304 213.835 204.184 213.295 204.04C212.611 203.872 212.053 203.71 211.621 203.554C211.201 203.386 210.835 203.14 210.523 202.816C210.223 202.492 210.073 202.054 210.073 201.502C210.073 200.974 210.223 200.506 210.523 200.098C210.823 199.678 211.231 199.354 211.747 199.126C212.263 198.898 212.839 198.784 213.475 198.784C214.231 198.784 214.897 198.946 215.473 199.27C216.061 199.594 216.511 200.044 216.823 200.62L215.545 201.268C215.365 200.884 215.101 200.59 214.753 200.386C214.405 200.17 213.979 200.062 213.475 200.062C212.911 200.062 212.461 200.194 212.125 200.458C211.801 200.71 211.639 201.046 211.639 201.466ZM222.852 198.784C223.728 198.784 224.508 199 225.192 199.432C225.876 199.852 226.404 200.428 226.776 201.16C227.16 201.88 227.352 202.666 227.352 203.518C227.352 203.614 227.346 203.722 227.334 203.842C227.322 203.95 227.31 204.04 227.298 204.112H219.72C219.84 204.916 220.188 205.576 220.764 206.092C221.352 206.596 222.096 206.848 222.996 206.848C223.548 206.848 224.07 206.722 224.562 206.47C225.066 206.218 225.438 205.906 225.678 205.534L226.902 206.254C226.506 206.878 225.966 207.364 225.282 207.712C224.61 208.048 223.842 208.216 222.978 208.216C222.03 208.216 221.19 208.012 220.458 207.604C219.726 207.196 219.156 206.638 218.748 205.93C218.34 205.21 218.136 204.4 218.136 203.5C218.136 202.612 218.334 201.814 218.73 201.106C219.138 200.386 219.696 199.822 220.404 199.414C221.124 198.994 221.94 198.784 222.852 198.784ZM225.876 202.852C225.756 202.012 225.432 201.352 224.904 200.872C224.376 200.392 223.692 200.152 222.852 200.152C222.264 200.152 221.73 200.278 221.25 200.53C220.77 200.782 220.392 201.118 220.116 201.538C219.84 201.946 219.696 202.384 219.684 202.852H225.876ZM236.322 195.4H237.87V208H236.322V206.65C235.902 207.142 235.398 207.532 234.81 207.82C234.234 208.096 233.616 208.234 232.956 208.234C232.08 208.234 231.294 208.03 230.598 207.622C229.902 207.202 229.362 206.632 228.978 205.912C228.594 205.192 228.402 204.394 228.402 203.518C228.402 202.63 228.594 201.832 228.978 201.124C229.362 200.404 229.896 199.84 230.58 199.432C231.276 199.012 232.068 198.802 232.956 198.802C233.616 198.802 234.234 198.946 234.81 199.234C235.398 199.51 235.902 199.894 236.322 200.386V195.4ZM233.118 206.74C233.706 206.74 234.246 206.602 234.738 206.326C235.23 206.038 235.614 205.648 235.89 205.156C236.178 204.664 236.322 204.112 236.322 203.5C236.322 202.9 236.178 202.36 235.89 201.88C235.614 201.388 235.23 201.004 234.738 200.728C234.246 200.452 233.706 200.314 233.118 200.314C232.53 200.314 231.996 200.452 231.516 200.728C231.036 201.004 230.658 201.388 230.382 201.88C230.106 202.372 229.968 202.918 229.968 203.518C229.968 204.13 230.106 204.682 230.382 205.174C230.658 205.654 231.036 206.038 231.516 206.326C231.996 206.602 232.53 206.74 233.118 206.74ZM252.459 195.4H254.007V208H252.459V206.65C252.039 207.142 251.535 207.532 250.947 207.82C250.371 208.096 249.753 208.234 249.093 208.234C248.217 208.234 247.431 208.03 246.735 207.622C246.039 207.202 245.499 206.632 245.115 205.912C244.731 205.192 244.539 204.394 244.539 203.518C244.539 202.63 244.731 201.832 245.115 201.124C245.499 200.404 246.033 199.84 246.717 199.432C247.413 199.012 248.205 198.802 249.093 198.802C249.753 198.802 250.371 198.946 250.947 199.234C251.535 199.51 252.039 199.894 252.459 200.386V195.4ZM249.255 206.74C249.843 206.74 250.383 206.602 250.875 206.326C251.367 206.038 251.751 205.648 252.027 205.156C252.315 204.664 252.459 204.112 252.459 203.5C252.459 202.9 252.315 202.36 252.027 201.88C251.751 201.388 251.367 201.004 250.875 200.728C250.383 200.452 249.843 200.314 249.255 200.314C248.667 200.314 248.133 200.452 247.653 200.728C247.173 201.004 246.795 201.388 246.519 201.88C246.243 202.372 246.105 202.918 246.105 203.518C246.105 204.13 246.243 204.682 246.519 205.174C246.795 205.654 247.173 206.038 247.653 206.326C248.133 206.602 248.667 206.74 249.255 206.74ZM260.346 208.216C259.494 208.216 258.708 208.006 257.988 207.586C257.268 207.166 256.692 206.596 256.26 205.876C255.84 205.144 255.63 204.352 255.63 203.5C255.63 202.648 255.84 201.862 256.26 201.142C256.692 200.422 257.268 199.852 257.988 199.432C258.708 199.012 259.494 198.802 260.346 198.802C261.198 198.802 261.984 199.012 262.704 199.432C263.424 199.852 263.994 200.422 264.414 201.142C264.846 201.862 265.062 202.648 265.062 203.5C265.062 204.352 264.846 205.144 264.414 205.876C263.994 206.596 263.424 207.166 262.704 207.586C261.984 208.006 261.198 208.216 260.346 208.216ZM260.346 206.668C260.922 206.668 261.45 206.53 261.93 206.254C262.41 205.966 262.788 205.582 263.064 205.102C263.352 204.61 263.496 204.076 263.496 203.5C263.496 202.924 263.352 202.396 263.064 201.916C262.788 201.436 262.41 201.058 261.93 200.782C261.45 200.494 260.922 200.35 260.346 200.35C259.77 200.35 259.236 200.494 258.744 200.782C258.264 201.058 257.88 201.436 257.592 201.916C257.316 202.396 257.178 202.924 257.178 203.5C257.178 204.076 257.316 204.61 257.592 205.102C257.88 205.582 258.264 205.966 258.744 206.254C259.236 206.53 259.77 206.668 260.346 206.668ZM275.814 198.784C276.69 198.784 277.47 199 278.154 199.432C278.838 199.852 279.366 200.428 279.738 201.16C280.122 201.88 280.314 202.666 280.314 203.518C280.314 203.614 280.308 203.722 280.296 203.842C280.284 203.95 280.272 204.04 280.26 204.112H272.682C272.802 204.916 273.15 205.576 273.726 206.092C274.314 206.596 275.058 206.848 275.958 206.848C276.51 206.848 277.032 206.722 277.524 206.47C278.028 206.218 278.4 205.906 278.64 205.534L279.864 206.254C279.468 206.878 278.928 207.364 278.244 207.712C277.572 208.048 276.804 208.216 275.94 208.216C274.992 208.216 274.152 208.012 273.42 207.604C272.688 207.196 272.118 206.638 271.71 205.93C271.302 205.21 271.098 204.4 271.098 203.5C271.098 202.612 271.296 201.814 271.692 201.106C272.1 200.386 272.658 199.822 273.366 199.414C274.086 198.994 274.902 198.784 275.814 198.784ZM278.838 202.852C278.718 202.012 278.394 201.352 277.866 200.872C277.338 200.392 276.654 200.152 275.814 200.152C275.226 200.152 274.692 200.278 274.212 200.53C273.732 200.782 273.354 201.118 273.078 201.538C272.802 201.946 272.658 202.384 272.646 202.852H278.838ZM282.643 196.948C282.343 196.948 282.103 196.864 281.923 196.696C281.743 196.528 281.653 196.294 281.653 195.994C281.653 195.706 281.743 195.478 281.923 195.31C282.103 195.13 282.343 195.04 282.643 195.04C282.943 195.04 283.183 195.13 283.363 195.31C283.543 195.478 283.633 195.706 283.633 195.994C283.633 196.294 283.543 196.528 283.363 196.696C283.195 196.864 282.955 196.948 282.643 196.948ZM281.869 208V199H283.417V208H281.869ZM291.714 199H293.262V208H291.714V206.938C291.39 207.322 291 207.634 290.544 207.874C290.088 208.102 289.59 208.216 289.05 208.216C288.522 208.216 287.982 208.108 287.43 207.892C286.878 207.664 286.404 207.268 286.008 206.704C285.612 206.128 285.414 205.354 285.414 204.382V199H286.962V204.382C286.962 205.258 287.202 205.888 287.682 206.272C288.174 206.644 288.738 206.83 289.374 206.83C289.998 206.83 290.544 206.614 291.012 206.182C291.48 205.738 291.714 205.018 291.714 204.022V199ZM296.717 201.466C296.717 201.814 296.879 202.066 297.203 202.222C297.539 202.378 298.073 202.546 298.805 202.726C299.513 202.894 300.089 203.062 300.533 203.23C300.989 203.398 301.373 203.662 301.685 204.022C302.009 204.382 302.171 204.868 302.171 205.48C302.171 206.308 301.829 206.974 301.145 207.478C300.461 207.97 299.603 208.216 298.571 208.216C297.647 208.216 296.867 208.036 296.231 207.676C295.595 207.316 295.133 206.812 294.845 206.164L296.123 205.498C296.315 205.978 296.621 206.338 297.041 206.578C297.461 206.806 297.971 206.92 298.571 206.92C299.135 206.92 299.621 206.794 300.029 206.542C300.449 206.29 300.659 205.942 300.659 205.498C300.659 205.222 300.557 204.994 300.353 204.814C300.161 204.634 299.915 204.496 299.615 204.4C299.327 204.304 298.913 204.184 298.373 204.04C297.689 203.872 297.131 203.71 296.699 203.554C296.279 203.386 295.913 203.14 295.601 202.816C295.301 202.492 295.151 202.054 295.151 201.502C295.151 200.974 295.301 200.506 295.601 200.098C295.901 199.678 296.309 199.354 296.825 199.126C297.341 198.898 297.917 198.784 298.553 198.784C299.309 198.784 299.975 198.946 300.551 199.27C301.139 199.594 301.589 200.044 301.901 200.62L300.623 201.268C300.443 200.884 300.179 200.59 299.831 200.386C299.483 200.17 299.057 200.062 298.553 200.062C297.989 200.062 297.539 200.194 297.203 200.458C296.879 200.71 296.717 201.046 296.717 201.466ZM314.104 198.784C314.632 198.784 315.172 198.898 315.724 199.126C316.276 199.342 316.75 199.738 317.146 200.314C317.554 200.878 317.758 201.646 317.758 202.618V208H316.192V202.618C316.192 201.742 315.952 201.118 315.472 200.746C314.992 200.362 314.434 200.17 313.798 200.17C313.282 200.17 312.808 200.32 312.376 200.62C311.956 200.92 311.674 201.412 311.53 202.096C311.542 202.204 311.548 202.378 311.548 202.618V208H310V202.618C310 201.742 309.754 201.118 309.262 200.746C308.782 200.362 308.224 200.17 307.588 200.17C307.096 200.17 306.634 200.314 306.202 200.602C305.782 200.89 305.494 201.352 305.338 201.988V208H303.79V199H305.338V199.936C305.65 199.588 306.028 199.312 306.472 199.108C306.916 198.892 307.39 198.784 307.894 198.784C308.482 198.784 309.076 198.922 309.676 199.198C310.288 199.474 310.762 199.93 311.098 200.566C311.386 200.062 311.794 199.642 312.322 199.306C312.862 198.958 313.456 198.784 314.104 198.784ZM323.873 208.216C323.021 208.216 322.235 208.006 321.515 207.586C320.795 207.166 320.219 206.596 319.787 205.876C319.367 205.144 319.157 204.352 319.157 203.5C319.157 202.648 319.367 201.862 319.787 201.142C320.219 200.422 320.795 199.852 321.515 199.432C322.235 199.012 323.021 198.802 323.873 198.802C324.725 198.802 325.511 199.012 326.231 199.432C326.951 199.852 327.521 200.422 327.941 201.142C328.373 201.862 328.589 202.648 328.589 203.5C328.589 204.352 328.373 205.144 327.941 205.876C327.521 206.596 326.951 207.166 326.231 207.586C325.511 208.006 324.725 208.216 323.873 208.216ZM323.873 206.668C324.449 206.668 324.977 206.53 325.457 206.254C325.937 205.966 326.315 205.582 326.591 205.102C326.879 204.61 327.023 204.076 327.023 203.5C327.023 202.924 326.879 202.396 326.591 201.916C326.315 201.436 325.937 201.058 325.457 200.782C324.977 200.494 324.449 200.35 323.873 200.35C323.297 200.35 322.763 200.494 322.271 200.782C321.791 201.058 321.407 201.436 321.119 201.916C320.843 202.396 320.705 202.924 320.705 203.5C320.705 204.076 320.843 204.61 321.119 205.102C321.407 205.582 321.791 205.966 322.271 206.254C322.763 206.53 323.297 206.668 323.873 206.668ZM330.507 207.298C330.507 207.01 330.585 206.788 330.741 206.632C330.909 206.464 331.131 206.38 331.407 206.38C331.695 206.38 331.917 206.464 332.073 206.632C332.229 206.788 332.307 207.01 332.307 207.298C332.307 207.574 332.229 207.796 332.073 207.964C331.917 208.12 331.695 208.198 331.407 208.198C331.131 208.198 330.909 208.12 330.741 207.964C330.585 207.796 330.507 207.574 330.507 207.298Z" fill="#757683"/>
<path d="M168.208 77.2C169.776 77.2 171.216 77.576 172.528 78.328C173.856 79.064 174.904 80.08 175.672 81.376C176.44 82.656 176.824 84.08 176.824 85.648C176.824 87.216 176.44 88.64 175.672 89.92C174.904 91.184 173.856 92.184 172.528 92.92C171.216 93.64 169.776 94 168.208 94H161.8V77.2H168.208ZM168.208 91.48C169.296 91.48 170.296 91.224 171.208 90.712C172.12 90.2 172.84 89.496 173.368 88.6C173.896 87.704 174.16 86.712 174.16 85.624C174.16 84.536 173.896 83.544 173.368 82.648C172.84 81.736 172.12 81.024 171.208 80.512C170.296 79.984 169.296 79.72 168.208 79.72H164.464V91.48H168.208ZM180.224 79.624C179.744 79.624 179.36 79.496 179.072 79.24C178.8 78.968 178.664 78.6 178.664 78.136C178.664 77.672 178.8 77.312 179.072 77.056C179.36 76.784 179.744 76.648 180.224 76.648C180.704 76.648 181.08 76.784 181.352 77.056C181.64 77.312 181.784 77.672 181.784 78.136C181.784 78.6 181.64 78.968 181.352 79.24C181.08 79.496 180.704 79.624 180.224 79.624ZM178.952 94V82H181.472V94H178.952ZM194.038 82H196.558V93.4C196.558 94.536 196.278 95.536 195.718 96.4C195.158 97.264 194.382 97.928 193.39 98.392C192.414 98.872 191.31 99.112 190.078 99.112C188.686 99.112 187.438 98.848 186.334 98.32C185.246 97.792 184.47 97.088 184.006 96.208L186.166 94.96C186.422 95.472 186.894 95.904 187.582 96.256C188.286 96.608 189.142 96.784 190.15 96.784C191.286 96.784 192.214 96.472 192.934 95.848C193.67 95.224 194.038 94.408 194.038 93.4V92.56C193.478 93.104 192.83 93.536 192.094 93.856C191.374 94.16 190.622 94.312 189.838 94.312C188.638 94.312 187.582 94.04 186.67 93.496C185.758 92.936 185.046 92.184 184.534 91.24C184.038 90.28 183.79 89.208 183.79 88.024C183.79 86.84 184.038 85.768 184.534 84.808C185.046 83.848 185.758 83.096 186.67 82.552C187.582 81.992 188.638 81.712 189.838 81.712C190.622 81.712 191.374 81.872 192.094 82.192C192.83 82.496 193.478 82.928 194.038 83.488V82ZM190.15 91.888C190.87 91.888 191.526 91.72 192.118 91.384C192.71 91.048 193.174 90.584 193.51 89.992C193.862 89.4 194.038 88.736 194.038 88C194.038 87.264 193.862 86.608 193.51 86.032C193.174 85.44 192.71 84.984 192.118 84.664C191.526 84.328 190.87 84.16 190.15 84.16C189.43 84.16 188.774 84.328 188.182 84.664C187.606 84.984 187.15 85.44 186.814 86.032C186.478 86.624 186.31 87.288 186.31 88.024C186.31 88.76 186.478 89.424 186.814 90.016C187.15 90.608 187.606 91.072 188.182 91.408C188.774 91.728 189.43 91.888 190.15 91.888ZM201.084 79.624C200.604 79.624 200.22 79.496 199.932 79.24C199.66 78.968 199.524 78.6 199.524 78.136C199.524 77.672 199.66 77.312 199.932 77.056C200.22 76.784 200.604 76.648 201.084 76.648C201.564 76.648 201.94 76.784 202.212 77.056C202.5 77.312 202.644 77.672 202.644 78.136C202.644 78.6 202.5 78.968 202.212 79.24C201.94 79.496 201.564 79.624 201.084 79.624ZM199.812 94V82H202.332V94H199.812ZM209.417 90.064C209.417 90.704 209.545 91.144 209.801 91.384C210.073 91.624 210.505 91.744 211.097 91.744C211.433 91.744 211.817 91.72 212.249 91.672V94C211.529 94.08 210.921 94.12 210.425 94.12C209.225 94.12 208.337 93.84 207.761 93.28C207.185 92.704 206.897 91.688 206.897 90.232V84.28H204.425V82H206.897V78.88L209.417 78.016V82H212.201V84.28H209.417V90.064ZM223.967 82H226.487V94H223.967V92.536C223.407 93.096 222.759 93.536 222.023 93.856C221.303 94.16 220.551 94.312 219.767 94.312C218.567 94.312 217.511 94.04 216.599 93.496C215.687 92.936 214.975 92.184 214.463 91.24C213.967 90.28 213.719 89.208 213.719 88.024C213.719 86.84 213.967 85.768 214.463 84.808C214.975 83.848 215.687 83.096 216.599 82.552C217.511 81.992 218.567 81.712 219.767 81.712C220.551 81.712 221.303 81.872 222.023 82.192C222.759 82.496 223.407 82.928 223.967 83.488V82ZM220.055 91.888C220.775 91.888 221.431 91.72 222.023 91.384C222.631 91.048 223.103 90.584 223.439 89.992C223.791 89.4 223.967 88.736 223.967 88C223.967 87.264 223.791 86.608 223.439 86.032C223.103 85.44 222.631 84.984 222.023 84.664C221.431 84.328 220.775 84.16 220.055 84.16C219.335 84.16 218.679 84.328 218.087 84.664C217.511 84.984 217.055 85.44 216.719 86.032C216.399 86.624 216.239 87.288 216.239 88.024C216.239 88.76 216.399 89.424 216.719 90.016C217.055 90.608 217.511 91.072 218.087 91.408C218.679 91.728 219.335 91.888 220.055 91.888ZM231.886 91.024C231.886 91.296 231.942 91.488 232.054 91.6C232.182 91.696 232.382 91.744 232.654 91.744C232.862 91.744 233.11 91.72 233.398 91.672V94C232.694 94.096 232.198 94.144 231.91 94.144C231.094 94.144 230.462 93.928 230.014 93.496C229.582 93.064 229.366 92.296 229.366 91.192V77.2H231.886V91.024ZM175.168 109.248V109.2H177.832V126H175.168V114.024L170.152 122.448H169.48L164.464 113.976V126.024H161.8V109.2H164.464V109.248L164.56 109.2L169.816 118.056L175.072 109.2L175.168 109.248ZM190.287 114H192.807V126H190.287V124.536C189.727 125.096 189.079 125.536 188.343 125.856C187.623 126.16 186.871 126.312 186.087 126.312C184.887 126.312 183.831 126.04 182.919 125.496C182.007 124.936 181.295 124.184 180.783 123.24C180.287 122.28 180.039 121.208 180.039 120.024C180.039 118.84 180.287 117.768 180.783 116.808C181.295 115.848 182.007 115.096 182.919 114.552C183.831 113.992 184.887 113.712 186.087 113.712C186.871 113.712 187.623 113.872 188.343 114.192C189.079 114.496 189.727 114.928 190.287 115.488V114ZM186.375 123.888C187.095 123.888 187.751 123.72 188.343 123.384C188.951 123.048 189.423 122.584 189.759 121.992C190.111 121.4 190.287 120.736 190.287 120C190.287 119.264 190.111 118.608 189.759 118.032C189.423 117.44 188.951 116.984 188.343 116.664C187.751 116.328 187.095 116.16 186.375 116.16C185.655 116.16 184.999 116.328 184.407 116.664C183.831 116.984 183.375 117.44 183.039 118.032C182.719 118.624 182.559 119.288 182.559 120.024C182.559 120.76 182.719 121.424 183.039 122.016C183.375 122.608 183.831 123.072 184.407 123.408C184.999 123.728 185.655 123.888 186.375 123.888ZM202.374 113.736C202.55 113.736 202.686 113.744 202.782 113.76L202.59 116.16C202.414 116.112 202.246 116.088 202.086 116.088C201.094 116.088 200.262 116.392 199.59 117C198.918 117.592 198.582 118.432 198.582 119.52V126H196.062V114H198.582V116.04C198.854 115.4 199.318 114.856 199.974 114.408C200.646 113.96 201.446 113.736 202.374 113.736ZM216.154 126H212.986L209.314 121.224L207.418 123.288V126H204.898V109.2H207.418V119.592L212.458 114H215.962L211.042 119.352L216.154 126ZM222.559 113.688C223.727 113.688 224.767 113.976 225.679 114.552C226.591 115.112 227.303 115.88 227.815 116.856C228.327 117.816 228.583 118.872 228.583 120.024C228.583 120.216 228.551 120.52 228.487 120.936H218.791C218.999 121.896 219.447 122.664 220.135 123.24C220.839 123.816 221.727 124.104 222.799 124.104C223.455 124.104 224.079 123.96 224.671 123.672C225.279 123.384 225.727 123.008 226.015 122.544L227.983 123.696C227.439 124.528 226.719 125.176 225.823 125.64C224.927 126.088 223.903 126.312 222.751 126.312C221.471 126.312 220.335 126.04 219.343 125.496C218.367 124.952 217.607 124.2 217.063 123.24C216.535 122.28 216.271 121.2 216.271 120C216.271 118.816 216.535 117.744 217.063 116.784C217.607 115.824 218.351 115.072 219.295 114.528C220.255 113.968 221.343 113.688 222.559 113.688ZM226.183 118.944C226.055 118 225.663 117.256 225.007 116.712C224.367 116.168 223.551 115.896 222.559 115.896C221.871 115.896 221.239 116.04 220.663 116.328C220.087 116.6 219.631 116.976 219.295 117.456C218.959 117.92 218.783 118.416 218.767 118.944H226.183ZM234.285 122.064C234.285 122.704 234.413 123.144 234.669 123.384C234.941 123.624 235.373 123.744 235.965 123.744C236.301 123.744 236.685 123.72 237.117 123.672V126C236.397 126.08 235.789 126.12 235.293 126.12C234.093 126.12 233.205 125.84 232.629 125.28C232.053 124.704 231.765 123.688 231.765 122.232V116.28H229.293V114H231.765V110.88L234.285 110.016V114H237.069V116.28H234.285V122.064ZM240.857 111.624C240.377 111.624 239.993 111.496 239.705 111.24C239.433 110.968 239.297 110.6 239.297 110.136C239.297 109.672 239.433 109.312 239.705 109.056C239.993 108.784 240.377 108.648 240.857 108.648C241.337 108.648 241.713 108.784 241.985 109.056C242.273 109.312 242.417 109.672 242.417 110.136C242.417 110.6 242.273 110.968 241.985 111.24C241.713 111.496 241.337 111.624 240.857 111.624ZM239.585 126V114H242.105V126H239.585ZM251.09 113.688C251.794 113.688 252.506 113.84 253.226 114.144C253.962 114.432 254.594 114.96 255.122 115.728C255.65 116.496 255.914 117.528 255.914 118.824V126H253.394V118.824C253.394 117.8 253.106 117.064 252.53 116.616C251.954 116.152 251.282 115.92 250.514 115.92C249.762 115.92 249.114 116.184 248.57 116.712C248.026 117.24 247.754 118.096 247.754 119.28V126H245.234V114H247.754V115.2C248.186 114.752 248.682 114.392 249.242 114.12C249.818 113.832 250.434 113.688 251.09 113.688ZM268.101 114H270.621V125.4C270.621 126.536 270.341 127.536 269.781 128.4C269.221 129.264 268.445 129.928 267.453 130.392C266.477 130.872 265.373 131.112 264.141 131.112C262.749 131.112 261.501 130.848 260.397 130.32C259.309 129.792 258.533 129.088 258.069 128.208L260.229 126.96C260.485 127.472 260.957 127.904 261.645 128.256C262.349 128.608 263.205 128.784 264.213 128.784C265.349 128.784 266.277 128.472 266.997 127.848C267.733 127.224 268.101 126.408 268.101 125.4V124.56C267.541 125.104 266.893 125.536 266.157 125.856C265.437 126.16 264.685 126.312 263.901 126.312C262.701 126.312 261.645 126.04 260.733 125.496C259.821 124.936 259.109 124.184 258.597 123.24C258.101 122.28 257.853 121.208 257.853 120.024C257.853 118.84 258.101 117.768 258.597 116.808C259.109 115.848 259.821 115.096 260.733 114.552C261.645 113.992 262.701 113.712 263.901 113.712C264.685 113.712 265.437 113.872 266.157 114.192C266.893 114.496 267.541 114.928 268.101 115.488V114ZM264.213 123.888C264.933 123.888 265.589 123.72 266.181 123.384C266.773 123.048 267.237 122.584 267.573 121.992C267.925 121.4 268.101 120.736 268.101 120C268.101 119.264 267.925 118.608 267.573 118.032C267.237 117.44 266.773 116.984 266.181 116.664C265.589 116.328 264.933 116.16 264.213 116.16C263.493 116.16 262.837 116.328 262.245 116.664C261.669 116.984 261.213 117.44 260.877 118.032C260.541 118.624 260.373 119.288 260.373 120.024C260.373 120.76 260.541 121.424 260.877 122.016C261.213 122.608 261.669 123.072 262.245 123.408C262.837 123.728 263.493 123.888 264.213 123.888Z" fill="#1B1C23"/>
<rect opacity="0.1" x="85" y="77" width="50" height="50" fill="#FF694B"/>
<path d="M103.9 107H116.09C117.99 107 118.99 106 118.99 104.1V92H100.99V104.1C101 106 102 107 103.9 107Z" stroke="#FF694B" stroke-width="1.5" stroke-miterlimit="10" stroke-linecap="round" stroke-linejoin="round"/>
<path d="M100 92H120" stroke="#FF694B" stroke-width="1.5" stroke-miterlimit="10" stroke-linecap="round" stroke-linejoin="round"/>
<path d="M106 112L110 110V107" stroke="#FF694B" stroke-width="1.5" stroke-miterlimit="10" stroke-linecap="round" stroke-linejoin="round"/>
<path d="M114 112L110 110" stroke="#FF694B" stroke-width="1.5" stroke-miterlimit="10" stroke-linecap="round" stroke-linejoin="round"/>
<path d="M105.5 101L108.65 98.37C108.9 98.16 109.23 98.22 109.4 98.5L110.6 100.5C110.77 100.78 111.1 100.83 111.35 100.63L114.5 98" stroke="#FF694B" stroke-width="1.5" stroke-miterlimit="10" stroke-linecap="round" stroke-linejoin="round"/>
<defs>
<filter id="filter0_d_2_355" x="0" y="0" width="480" height="350" filterUnits="userSpaceOnUse" color-interpolation-filters="sRGB">
<feFlood flood-opacity="0" result="BackgroundImageFix"/>
<feColorMatrix in="SourceAlpha" type="matrix" values="0 0 0 0 0 0 0 0 0 0 0 0 0 0 0 0 0 0 127 0" result="hardAlpha"/>
<feOffset dy="10"/>
<feGaussianBlur stdDeviation="15"/>
<feComposite in2="hardAlpha" operator="out"/>
<feColorMatrix type="matrix" values="0 0 0 0 0.895833 0 0 0 0 0.895833 0 0 0 0 0.895833 0 0 0 0.25 0"/>
<feBlend mode="normal" in2="BackgroundImageFix" result="effect1_dropShadow_2_355"/>
<feBlend mode="normal" in="SourceGraphic" in2="effect1_dropShadow_2_355" result="shape"/>
</filter>
</defs>
</svg>
