<svg width="100" height="100" viewBox="0 0 100 100" fill="none" xmlns="http://www.w3.org/2000/svg">
<g filter="url(#filter0_d_2_35)">
<circle cx="50" cy="40" r="25" fill="white"/>
</g>
<path d="M50 50C55.5228 50 60 45.5228 60 40C60 34.4772 55.5228 30 50 30C44.4772 30 40 34.4772 40 40C40 45.5228 44.4772 50 50 50Z" stroke="#FF694B" stroke-width="1.5" stroke-linecap="round" stroke-linejoin="round"/>
<path d="M46.56 30.75C50.93 36.78 52.58 40.17 54.59 48.47M57.13 33.09C53.41 37.44 48.19 38.75 40.25 38.94M59.75 40.84C56.25 39.91 53.12 40.02 50.81 40.84C48.23 41.76 45.8 43.7 43.37 47.16" stroke="#FF694B" stroke-width="1.5" stroke-linecap="round" stroke-linejoin="round"/>
<defs>
<filter id="filter0_d_2_35" x="0" y="0" width="100" height="100" filterUnits="userSpaceOnUse" color-interpolation-filters="sRGB">
<feFlood flood-opacity="0" result="BackgroundImageFix"/>
<feColorMatrix in="SourceAlpha" type="matrix" values="0 0 0 0 0 0 0 0 0 0 0 0 0 0 0 0 0 0 127 0" result="hardAlpha"/>
<feOffset dy="10"/>
<feGaussianBlur stdDeviation="12.5"/>
<feComposite in2="hardAlpha" operator="out"/>
<feColorMatrix type="matrix" values="0 0 0 0 0.825 0 0 0 0 0.825 0 0 0 0 0.825 0 0 0 0.25 0"/>
<feBlend mode="normal" in2="BackgroundImageFix" result="effect1_dropShadow_2_35"/>
<feBlend mode="normal" in="SourceGraphic" in2="effect1_dropShadow_2_35" result="shape"/>
</filter>
</defs>
</svg>
