<svg width="789" height="630" viewBox="0 0 789 630" fill="none" xmlns="http://www.w3.org/2000/svg">
<path d="M141.996 337.035H124.807V627.972H141.996V337.035Z" fill="#FFA800"/>
<path d="M142.003 341.035H124.807" stroke="#A15842" stroke-width="4" stroke-miterlimit="10"/>
<path d="M46.8091 569.593C48.5502 564.62 51.8018 560.31 56.1131 557.26C60.4243 554.21 65.5816 552.572 70.8699 552.572C76.1582 552.572 81.3155 554.21 85.6268 557.26C89.938 560.31 93.1897 564.62 94.9308 569.593C96.5925 564.846 99.6329 560.697 103.666 557.673C107.7 554.649 112.544 552.886 117.585 552.608C115.334 548.614 112.655 544.875 109.593 541.457L100.341 531.093C97.4643 527.873 95.6527 523.849 95.1519 519.569C94.6511 515.288 95.4853 510.958 97.5412 507.166L105.394 492.634C103.189 494.843 90.4447 506.727 71.1009 506.727C51.757 506.727 39.0127 494.843 36.8082 492.634H36.7732L44.6325 507.166C46.6794 510.966 47.5007 515.301 46.9848 519.583C46.4689 523.864 44.6407 527.883 41.7492 531.093L32.5041 541.415C29.4366 544.833 26.7498 548.572 24.4908 552.566C29.4776 552.912 34.2522 554.711 38.2204 557.738C42.1887 560.766 45.1755 564.888 46.8091 569.593Z" fill="#4756DF"/>
<path d="M118.992 584.279C113.702 584.28 108.543 585.92 104.232 588.972C99.9205 592.025 96.6698 596.338 94.9308 601.313C93.1929 596.337 89.9426 592.023 85.6309 588.97C81.3192 585.917 76.1602 584.277 70.8699 584.277C65.5796 584.277 60.4205 585.917 56.1089 588.97C51.7972 592.023 48.5469 596.337 46.809 601.313C44.7046 595.3 40.4085 590.294 34.7724 587.288C29.1363 584.281 22.5715 583.493 16.3795 585.08C16.735 601.164 23.2436 616.506 34.5756 627.972H107.493C118.802 616.531 125.309 601.228 125.689 585.178C123.507 584.582 121.254 584.279 118.992 584.279Z" fill="#4756DF"/>
<path d="M71.0451 506.755C90.3889 506.755 103.133 494.872 105.338 492.662H36.7524C38.9569 494.851 51.7012 506.755 71.0451 506.755Z" fill="#3A1F10"/>
<path d="M46.8089 601.313C48.5467 596.337 51.7971 592.023 56.1087 588.97C60.4204 585.917 65.5795 584.277 70.8698 584.277C76.1601 584.277 81.3191 585.917 85.6308 588.97C89.9424 592.023 93.1928 596.337 94.9306 601.313C97.0525 595.236 101.413 590.189 107.13 587.194C112.847 584.198 119.494 583.478 125.724 585.178C126.012 573.791 123.204 562.537 117.599 552.608C112.558 552.886 107.713 554.649 103.68 557.673C99.6468 560.697 96.6064 564.846 94.9446 569.593C93.2035 564.621 89.9519 560.31 85.6406 557.26C81.3294 554.21 76.1721 552.572 70.8838 552.572C65.5954 552.572 60.4381 554.21 56.1269 557.26C51.8156 560.31 48.564 564.621 46.8229 569.593C45.1792 564.9 42.1881 560.791 38.2206 557.775C34.2532 554.759 29.484 552.97 24.5047 552.629C18.9243 562.525 16.1224 573.734 16.3934 585.08C22.5854 583.493 29.1501 584.281 34.7863 587.288C40.4224 590.294 44.7185 595.3 46.8229 601.313H46.8089Z" fill="#727FFB"/>
<path d="M76.1257 504.761C77.5254 496.23 83.8871 462.413 99.8856 444.034" stroke="#3A1F10" stroke-width="4" stroke-miterlimit="10" stroke-linecap="round"/>
<path d="M68.7425 505.005C68.6375 495.317 67.6367 447.748 58.1398 419.368" stroke="#3A1F10" stroke-width="4" stroke-miterlimit="10" stroke-linecap="round"/>
<path d="M110.835 471.721C124.863 465.574 135.109 458.043 133.72 454.901C132.332 451.758 119.834 454.193 105.807 460.34C91.7794 466.487 81.5335 474.018 82.922 477.16C84.3106 480.303 96.8078 477.868 110.835 471.721Z" fill="#3A1F10"/>
<path d="M110.827 385.25C115.87 378.46 118.031 371.537 115.654 369.786C113.277 368.034 107.262 372.119 102.219 378.909C97.1758 385.698 95.0148 392.622 97.3919 394.373C99.7691 396.124 105.784 392.04 110.827 385.25Z" fill="#3A1F10"/>
<path d="M26.8425 413.244C21.3917 410.112 16.0829 409.105 14.9851 410.997C13.8872 412.888 17.4159 416.961 22.8667 420.094C28.3175 423.226 33.6262 424.233 34.7241 422.341C35.822 420.45 32.2933 416.377 26.8425 413.244Z" fill="#3A1F10"/>
<path d="M34.8799 476.547C53.1668 473.793 67.5953 468.953 67.1069 465.737C66.6185 462.521 51.3982 462.147 33.1113 464.901C14.8244 467.655 0.395921 472.495 0.884314 475.711C1.37271 478.927 16.5931 479.302 34.8799 476.547Z" fill="#3A1F10"/>
<path d="M22.1041 429.042V429.091C24.8061 430.595 26.844 433.054 27.816 435.981C28.788 438.908 28.6236 442.091 27.3553 444.904C26.0869 447.716 23.8066 449.953 20.9639 451.174C18.1213 452.394 14.9225 452.51 11.9983 451.498V451.54C27.325 458.398 42.0289 458.921 44.8283 452.711C47.6277 446.501 37.4378 435.9 22.1041 429.042Z" fill="#FF7054"/>
<path d="M67.4199 379.334C64.1586 378.491 59.9175 383.404 56.8172 391.008C53.087 381.773 47.6771 375.591 44.0309 376.79C40.3847 377.989 39.7338 386.157 42.2603 395.79C35.2198 391.524 28.8792 390.088 26.7586 392.702C24.0572 396.033 29.2641 404.676 38.3901 412.015C40.9865 414.122 43.78 415.975 46.7323 417.549C47.2356 415.558 48.2302 413.724 49.626 412.214C51.0218 410.703 52.7744 409.563 54.7247 408.899C56.675 408.234 58.7611 408.065 60.7936 408.407C62.8261 408.749 64.7406 409.592 66.3631 410.858C67.731 407.926 68.8227 404.874 69.6244 401.742C72.5708 390.444 71.584 380.407 67.4199 379.334Z" fill="#FF7054"/>
<path d="M138.566 430.638C137.559 427.432 131.127 426.456 123.009 427.85C128.902 419.814 131.309 411.973 128.363 409.527C125.416 407.08 118.103 410.851 111.23 418.079C111.146 409.868 109.012 403.749 105.667 403.338C101.404 402.815 96.7854 411.792 95.3577 423.376C94.9347 426.687 94.8315 430.032 95.0498 433.363C97.0132 432.733 99.1038 432.602 101.131 432.981C103.159 433.361 105.058 434.239 106.658 435.537C108.258 436.834 109.506 438.509 110.29 440.409C111.074 442.31 111.368 444.375 111.146 446.417C114.37 446.011 117.549 445.311 120.643 444.327C131.82 440.863 139.847 434.722 138.566 430.638Z" fill="#FF7054"/>
<path d="M106.751 435.607C105.151 434.278 103.239 433.373 101.193 432.977C99.1469 432.581 97.0337 432.707 95.0497 433.342C95.4486 438.855 96.8483 443.1 98.9549 444.64C100.921 446.452 105.471 447.059 111.132 446.397C111.353 444.378 111.068 442.336 110.304 440.453C109.539 438.571 108.319 436.906 106.751 435.607Z" fill="#3A1F10"/>
<path d="M54.8502 408.858C52.8714 409.508 51.0896 410.646 49.6703 412.165C48.251 413.684 47.2403 415.536 46.732 417.549C51.6309 420.128 55.984 421.173 58.4335 420.225C61.0159 419.528 63.9343 415.995 66.3628 410.858C64.7587 409.604 62.8679 408.765 60.8591 408.416C58.8502 408.067 56.7859 408.219 54.8502 408.858Z" fill="#3A1F10"/>
<path d="M23.4691 449.735C22.153 449.004 21.1606 447.808 20.6883 446.383C20.216 444.958 20.2982 443.408 20.9188 442.04C21.5393 440.673 22.6529 439.587 24.039 438.999C25.4251 438.41 26.9825 438.361 28.403 438.862C28.2387 436.846 27.5781 434.9 26.4795 433.199C25.3809 431.497 23.8783 430.091 22.1044 429.104L11.9776 451.498C13.8916 452.164 15.9404 452.351 17.9441 452.044C19.9478 451.736 21.845 450.943 23.4691 449.735Z" fill="#F5EBDD"/>
<path d="M20.8934 442.048C20.283 443.415 20.2088 444.96 20.6855 446.379C21.1622 447.798 22.1552 448.988 23.4688 449.715C25.1509 448.469 26.4866 446.817 27.3499 444.915C28.2132 443.012 28.5755 440.922 28.4028 438.842C26.9757 438.336 25.4094 438.385 24.0172 438.979C22.6249 439.574 21.5092 440.67 20.8934 442.048Z" fill="#4856DF"/>
<path d="M483.396 453.296H305.404L308.413 441.406H386.544L416.344 325.346C420.403 309.537 429.632 295.524 442.574 285.517C455.516 275.509 471.434 270.077 487.819 270.076C527.914 270.076 557.252 307.713 547.307 346.395L528.894 418.106C526.309 428.17 520.435 437.091 512.197 443.462C503.96 449.834 493.827 453.294 483.396 453.296Z" fill="#FF9F8C"/>
<path d="M306.783 563.133V575.72H420.221V563.133H306.783Z" fill="#A15842"/>
<path d="M438.907 621.211L409.401 446.306H317.595L288.089 621.211C287.95 622.043 287.994 622.895 288.219 623.709C288.444 624.522 288.844 625.276 289.392 625.92C289.94 626.563 290.621 627.08 291.39 627.434C292.158 627.789 292.995 627.972 293.842 627.972C295.173 627.971 296.463 627.517 297.499 626.685C298.535 625.854 299.255 624.694 299.539 623.4L338.184 446.306H388.84L427.471 623.4C427.754 624.695 428.474 625.855 429.51 626.687C430.546 627.518 431.837 627.972 433.168 627.972C434.014 627.97 434.849 627.785 435.616 627.43C436.383 627.075 437.063 626.558 437.609 625.914C438.155 625.271 438.554 624.517 438.778 623.705C439.002 622.893 439.046 622.042 438.907 621.211Z" fill="#A15842"/>
<path d="M400.758 563.132V575.719H514.197V563.132H400.758Z" fill="#FFA800"/>
<path d="M532.883 621.211L503.349 446.306H411.578L382.072 621.211C381.933 622.043 381.977 622.895 382.202 623.709C382.427 624.522 382.827 625.276 383.375 625.92C383.922 626.563 384.604 627.08 385.373 627.434C386.141 627.789 386.978 627.972 387.825 627.972C389.155 627.972 390.445 627.518 391.48 626.686C392.515 625.854 393.233 624.694 393.515 623.4L432.146 446.306H482.809L521.44 623.4C521.723 624.696 522.444 625.857 523.482 626.689C524.519 627.521 525.812 627.974 527.144 627.972C527.99 627.97 528.825 627.785 529.592 627.43C530.359 627.075 531.039 626.558 531.585 625.914C532.131 625.271 532.53 624.517 532.754 623.705C532.978 622.893 533.022 622.042 532.883 621.211Z" fill="#FFA800"/>
<path d="M440.16 418.106L451.413 374.274H376.83C362.205 374.274 347.995 379.123 336.442 388.055C324.889 396.987 316.651 409.495 313.025 423.605L305.404 453.296H394.655C405.087 453.295 415.222 449.836 423.461 443.465C431.7 437.093 437.575 428.171 440.16 418.106Z" fill="#FF9F8C"/>
<path d="M310.254 440.242H404.943" stroke="#A15842" stroke-width="4" stroke-linecap="round" stroke-linejoin="round"/>
<path d="M386.88 439.803L403.474 375.194" stroke="#A15842" stroke-width="4" stroke-linecap="round" stroke-linejoin="round"/>
<path d="M539.042 372.775H494.251" stroke="#A15842" stroke-width="4" stroke-linecap="round" stroke-linejoin="round"/>
<path d="M547.44 341.412H490.052" stroke="#A15842" stroke-width="4" stroke-linecap="round" stroke-linejoin="round"/>
<path d="M338.402 327.249C338.402 327.249 282.253 342.478 258.402 354.361C219.077 373.939 219.21 386.861 195.233 459.2C173.097 526.053 170.662 558.455 140.127 559.738C116.815 560.713 109.173 568.31 105.394 578.723L197.641 622.312C198.698 622.81 199.907 622.887 201.019 622.527C202.132 622.167 203.064 621.397 203.624 620.374C204.196 619.329 204.335 618.103 204.012 616.958C203.689 615.812 202.93 614.837 201.896 614.241L199.957 613.126C208.53 602.783 225.068 580.744 241.556 547.269L252.054 552.148C252.054 552.148 269.011 530.2 271.699 505.304C275.198 473.153 273.099 451.484 287.844 438.904L459.798 327.221L338.402 327.249Z" fill="#FF7054"/>
<path d="M131.064 564.903C132.891 561.119 143.038 538.063 148.875 540.851C156.469 544.475 136.761 567.621 136.761 567.621L131.064 564.903Z" fill="#3A1F10"/>
<path d="M105.386 579.051L197.634 622.633C198.702 623.14 199.925 623.216 201.048 622.845C202.171 622.473 203.106 621.683 203.656 620.639C204.207 619.596 204.33 618.381 204.001 617.25C203.671 616.118 202.914 615.157 201.889 614.569L199.95 613.454L200.146 613.217L136.74 583.407C137.69 580.786 138.356 578.071 138.727 575.308C148.217 576.946 167.421 578.71 167.519 570.827C167.624 563.481 146.65 566.429 138.986 568.506C138.821 565.682 138.27 562.894 137.349 560.219C116.206 561.669 109.012 569.057 105.386 579.051Z" fill="#3A1F10"/>
<path d="M258.402 354.361C253.985 356.557 250.073 358.668 246.567 360.787L241.185 377.954L261.901 363.422L281 378.588L273.959 357.797L295.592 347.928L278.872 345.837C271.901 348.314 265.068 351.16 258.402 354.361Z" fill="#FF9F8C"/>
<path d="M319.436 345.426L318.036 354.508L327.162 351.016L319.436 345.426Z" fill="#FF9F8C"/>
<path d="M266.8 390.855L253.468 408.328L234.516 399.247L245.741 418.114L228.196 432.792L250.654 429.997L258.381 455.862L266.1 429.997L290.665 423.007L266.8 413.221V390.855Z" fill="#FF9F8C"/>
<path d="M191.846 524.27L193.483 519.614L215.879 518.429L197.683 506.093L205.787 486.766L187.458 498.935L183.959 495.171C181.159 504.35 178.682 512.526 176.26 519.711H176.372C176.638 518.924 176.904 518.129 177.17 517.321L191.846 524.27Z" fill="#FF9F8C"/>
<path d="M191.846 524.27L177.149 517.349C176.883 518.157 176.617 518.952 176.351 519.739C167.47 546.085 159.38 559.258 140.141 560.066C139.196 560.066 138.286 560.157 137.391 560.219C138.312 562.895 138.863 565.683 139.028 568.506C146.727 566.415 167.666 563.481 167.561 570.827C167.449 578.71 148.259 576.947 138.769 575.309C138.391 578.072 137.718 580.787 136.761 583.408L200.167 613.217C208.789 602.763 225.187 580.836 241.549 547.639L191.846 524.27Z" fill="#EAA58B"/>
<path d="M247.848 471.237L245.749 490.111L226.097 489.414L242.942 502.001L236.643 524.367L253.503 509.682L268.655 519.746C269.075 518.413 269.459 517.063 269.809 515.697L264.001 501.29L273.001 491.47C273.148 489.644 273.288 487.846 273.421 486.096L257.702 488.71L247.848 471.237Z" fill="#FF9F8C"/>
<path d="M204.072 432.004C202.302 437.455 200.398 443.372 198.299 449.805L216.971 450.941L204.072 432.004Z" fill="#FF9F8C"/>
<path d="M270.005 602.274C270.299 598.093 271.216 572.932 277.669 573.385C286.067 573.97 276.304 602.714 276.304 602.714L270.005 602.274Z" fill="#3A1F10"/>
<path d="M425.435 328.274C425.435 328.274 355.247 341.238 316.643 357.31C277.668 373.542 278.046 402.369 285.059 480.674C291.358 550.775 302.611 584.815 279.46 595.298C258.227 604.916 250.85 616.974 251.858 628H356.381C356.97 628 357.553 627.884 358.097 627.66C358.642 627.435 359.136 627.106 359.553 626.691C359.969 626.276 360.3 625.784 360.525 625.242C360.751 624.7 360.867 624.119 360.867 623.532C360.867 622.347 360.394 621.211 359.553 620.373C358.711 619.535 357.57 619.065 356.381 619.065H354.617C357.913 608.324 362.693 587.359 363.351 552.664H376.312C376.312 552.664 382.975 521.997 375.613 494.648C367.914 465.996 360.874 461.103 356.668 441.532H419.563C467.594 441.532 503.545 397.288 493.096 350.605C489.835 336.017 485.104 328.302 485.104 328.302L425.435 328.274Z" fill="#FF7054"/>
<path d="M381.918 369.186L369.034 385.328L348.969 378.463L360.86 397.845L345.421 418.817L365.773 410.426L377.117 431.251L378.405 408.328L398.057 404.139L381.218 393.65L381.918 369.186Z" fill="#FF9F8C"/>
<path d="M353.882 493.791L365.78 513.173L350.341 534.145L370.693 525.782L378.237 539.63C379.343 528.869 379.889 512.95 376.362 497.666L373.954 500.684L353.882 493.791Z" fill="#FF9F8C"/>
<path d="M301.408 552.636L300.505 541.833L323.292 533.079L301.723 528.625L304.102 505.047L290.105 523.287L289.685 523.112C291.029 534.368 292.205 544.203 292.862 552.713V552.636H301.408Z" fill="#FF9F8C"/>
<path d="M356.381 619.037H354.617C357.913 608.296 362.693 587.331 363.351 552.636H292.841V552.699C292.897 553.396 292.946 554.093 292.995 554.79C292.995 554.853 292.995 554.922 292.995 554.985C294.458 576.765 292.072 589.506 279.432 595.228C258.199 604.846 250.822 616.904 251.83 627.93H356.381C357.571 627.93 358.712 627.459 359.553 626.621C360.394 625.784 360.867 624.647 360.867 623.462C360.867 622.277 360.394 621.141 359.553 620.303C358.712 619.465 357.571 618.995 356.381 618.995V619.037Z" fill="#EAA58B"/>
<path d="M449.965 330.079L417.723 332.923L421.082 345.831L400.457 356.787L426.149 360.209L434.841 379.383L443.778 359.526L469.911 355.414L447.214 343.775L449.965 330.079Z" fill="#FF9F8C"/>
<path d="M296.292 420.908L303.99 396.445L326.448 399.93L308.903 384.554L321.5 369.876L298.342 378.24L294.64 371.918C288.684 378.637 285.087 386.98 283.163 397.706L287.11 397.832L296.292 420.908Z" fill="#FF9F8C"/>
<path d="M356.381 344.165C351.643 345.475 346.926 346.848 342.321 348.263L360.874 360.809L356.381 344.165Z" fill="#FF9F8C"/>
<path d="M325.769 457.255L315.943 436.987L311.03 459.353L292.785 457.959L309.624 472.638L299.098 497.101L317.371 480.137L332.516 497.526L327.876 471.237L343.314 450.969L325.769 457.255Z" fill="#FF9F8C"/>
<path d="M284.107 610.861C293.387 608.31 311.499 601.745 308.224 594.573C305.172 587.882 287.466 599.452 281.427 604.602C279.902 601.817 277.954 599.282 275.653 597.089C257.331 606.38 250.899 617.629 251.858 627.972H356.381C357.57 627.972 358.711 627.501 359.553 626.663C360.394 625.825 360.867 624.689 360.867 623.504C360.867 622.319 360.394 621.183 359.553 620.345C358.711 619.507 357.57 619.037 356.381 619.037H285.766C285.503 616.261 284.947 613.521 284.107 610.861Z" fill="#3A1F10"/>
<path d="M356.381 443.072L338.311 442.821" stroke="#A15842" stroke-width="4" stroke-miterlimit="10" stroke-linecap="round"/>
<path d="M369.818 341.112C351.097 345.866 331.088 351.699 315.93 358C283.597 371.486 278.355 393.622 281.497 445.533" stroke="#A15842" stroke-width="4" stroke-miterlimit="10" stroke-linecap="round"/>
<path d="M607.403 337.035H590.215V627.972H607.403V337.035Z" fill="#FFA800"/>
<path d="M607.403 341.035H590.215" stroke="#A15842" stroke-width="4" stroke-miterlimit="10"/>
<path d="M358.053 118.263C348.255 116.869 325.811 127.358 325.069 148.093C324.327 168.828 342.915 175.491 345.89 176.976L389.021 170.306L391.996 122.911L358.053 118.263Z" fill="#A15842"/>
<path d="M434.253 66.7699C452.767 66.7699 467.776 51.823 467.776 33.385C467.776 14.947 452.767 0 434.253 0C415.739 0 400.73 14.947 400.73 33.385C400.73 51.823 415.739 66.7699 434.253 66.7699Z" fill="#A15842"/>
<path d="M412.509 56.3433C414.552 57.2842 397.343 16.6159 388.56 22.9583C380.295 28.9453 402.13 51.576 412.509 56.3433Z" fill="#3A1F10"/>
<path d="M413.461 58.8317C415.336 61.062 459.245 45.7634 453.17 36.9398C447.361 28.4506 411.585 56.5944 413.461 58.8317Z" fill="#3A1F10"/>
<path d="M471.751 170.681C471.751 170.681 501.229 146.218 482.249 118.959C470.169 101.583 437.325 108.504 437.325 108.504C438.123 98.9628 440.727 71.4743 419.969 56.3709C399.211 41.2675 372.876 49.22 363.281 61.1382C353.686 73.0564 356.101 95.3246 352.909 111.223C349.718 127.12 351.846 137.931 361.685 143.018C370.637 147.646 381.169 144.851 381.169 144.851L380.05 161.628C380.05 161.628 359.754 162.387 347.318 166.869C317.35 177.672 264.7 251.76 264.7 251.76C231.716 250.366 200.832 248.972 200.832 248.972L216.977 296.506C216.977 296.506 257.681 309.783 287.158 302.081C317.063 294.282 345.414 252.457 345.414 252.457L355.212 280.413L338.366 327.242H485.055L460.49 283.904C464.738 245.473 471.751 170.681 471.751 170.681Z" fill="#EAA58B"/>
<path d="M424.616 159.885L386.124 229.395L370.378 162.325C363.456 163.022 354.232 164.374 347.388 166.841C317.35 177.672 264.7 251.76 264.7 251.76C231.716 250.366 200.832 248.972 200.832 248.972L216.977 296.506C216.977 296.506 257.681 309.783 287.158 302.082C317.063 294.283 345.414 252.457 345.414 252.457L355.212 280.413L338.366 327.242H485.055L460.49 283.912C464.689 245.467 471.688 170.675 471.688 170.675C465.189 166.735 458.074 163.908 450.636 162.311C442.259 160.429 433.049 161.551 424.616 159.885Z" fill="#4756DF"/>
<path d="M225.278 322.356H346.828L319.191 235.43C318.379 232.868 316.767 230.631 314.592 229.043C312.416 227.455 309.788 226.599 307.091 226.599H204.367C202.371 226.598 200.402 227.066 198.622 227.964C196.842 228.863 195.299 230.168 194.12 231.771C192.941 233.375 192.159 235.234 191.837 237.196C191.515 239.157 191.662 241.167 192.266 243.062L215.109 314.947C215.795 317.098 217.149 318.975 218.978 320.307C220.806 321.639 223.013 322.357 225.278 322.356Z" fill="#3A1F10"/>
<path d="M243.39 265.923C246.616 261.532 261.25 273.129 262.328 274.084C262.888 273.129 270.509 261.539 276.094 265.923C280.944 269.728 270.285 286.727 267.451 291.062C267.332 291.194 267.187 291.299 267.025 291.371C266.863 291.443 266.687 291.48 266.51 291.48C266.332 291.48 266.157 291.443 265.994 291.371C265.832 291.299 265.687 291.194 265.568 291.062C260.396 286.727 240.591 269.728 243.39 265.923Z" fill="#A15842"/>
<path d="M261.122 268.862C262.343 268.484 262.39 265.158 261.225 261.436C260.061 257.713 258.127 255.002 256.905 255.381C255.684 255.76 255.637 259.085 256.802 262.808C257.966 266.531 259.9 269.241 261.122 268.862Z" fill="#A15842"/>
<path d="M417.408 312.571C417.76 313.695 417.841 314.886 417.646 316.048C417.451 317.21 416.985 318.31 416.285 319.259C415.585 320.209 414.671 320.981 413.616 321.514C412.562 322.047 411.396 322.326 410.213 322.328H225.278C223.013 322.329 220.806 321.611 218.978 320.279C217.149 318.947 215.794 317.07 215.109 314.92L214.353 312.543L417.408 312.571Z" fill="#3A1F10"/>
<path d="M637.021 322.356H95.1898V339.83H637.021V322.356Z" fill="#FFA800"/>
<path d="M528.887 418.106L540.141 374.274H474.495C459.87 374.274 445.661 379.123 434.11 388.055C422.558 396.988 414.321 409.495 410.696 423.605L403.068 453.296H483.376C493.808 453.296 503.944 449.837 512.184 443.465C520.425 437.094 526.301 428.172 528.887 418.106Z" fill="#FF9F8C"/>
<path d="M404.621 441.804L402.025 452.732" stroke="#A15842" stroke-width="4" stroke-linecap="round" stroke-linejoin="round"/>
<path d="M194.981 251.489C186.814 255.552 182.734 262.326 182.734 267.073C182.734 274.001 189.816 275.304 189.816 275.304C189.816 275.304 184.532 283.577 193.722 287.459C193.722 287.459 193.722 295.976 202.281 295.976C202.281 295.976 201.147 302.618 210.077 303.246C219.007 303.873 228.196 299.231 228.973 296.227C229.862 292.68 227.461 289.711 220.981 288.77C220.981 288.77 229.729 284.699 228.343 279.563C226.957 274.426 221.044 274.544 221.044 274.544C221.044 274.544 226.705 271.164 223.682 266.181C220.659 261.197 214.878 262.926 214.878 262.926C214.878 262.926 216.39 259.441 213.744 256.786C210.595 253.649 197.053 257.608 197.053 257.608L194.981 251.489Z" fill="#EAA58A"/>
<path d="M202.344 296.304C209.713 294.544 216.863 291.973 223.661 288.637" stroke="#A15842" stroke-width="4" stroke-miterlimit="10" stroke-linecap="round"/>
<path d="M193.701 287.417C203.919 284.627 213.674 280.37 222.661 274.781" stroke="#A15842" stroke-width="4" stroke-miterlimit="10" stroke-linecap="round"/>
<path d="M189.117 276.294C198.585 273.504 207.531 269.189 215.599 263.519" stroke="#A15842" stroke-width="4" stroke-miterlimit="10" stroke-linecap="round"/>
<path d="M482.284 118.959C470.204 101.583 437.36 108.504 437.36 108.504C438.158 98.9628 440.761 71.4743 420.004 56.3709C399.246 41.2675 372.911 49.22 363.316 61.1382C359.411 66.017 357.5 72.5825 356.388 79.7473C362.756 80.8137 372.099 78.6322 372.099 78.6322C384.871 92.941 396.314 95.2131 396.314 95.2131C405.251 86.3128 420.928 86.6055 423.475 100.092C426.121 114.094 403.662 120.388 403.662 120.388C403.662 120.388 401.563 145.548 412.76 154.637C416.197 157.35 420.261 159.164 424.581 159.913C432.979 161.579 442.224 160.457 450.664 162.325C458.101 163.921 465.217 166.748 471.716 170.688C474.28 168.438 476.623 165.95 478.714 163.258C486.077 153.961 494.881 137.08 482.284 118.959Z" fill="#A15842"/>
<path d="M385.424 73.5308C381.225 77.0156 376.326 79.1065 370.686 80.5005" stroke="#EAA58B" stroke-width="4" stroke-miterlimit="10" stroke-linecap="round"/>
<path d="M380.938 146.42C384.197 145.337 387.341 143.936 390.323 142.238" stroke="#A15842" stroke-width="4" stroke-miterlimit="10" stroke-linecap="round"/>
<path d="M404.523 106.33L410.906 102.358" stroke="#A15842" stroke-width="4" stroke-miterlimit="10" stroke-linecap="round"/>
<path d="M367.9 124.988C369.223 125.803 374.199 126.438 376.173 122.653" stroke="#A15842" stroke-width="4" stroke-miterlimit="10" stroke-linecap="round"/>
<path d="M380.903 107.104C382.225 107.104 383.297 106.037 383.297 104.72C383.297 103.404 382.225 102.336 380.903 102.336C379.582 102.336 378.51 103.404 378.51 104.72C378.51 106.037 379.582 107.104 380.903 107.104Z" fill="#3A1F10"/>
<path d="M361.062 103.947C362.384 103.947 363.456 102.88 363.456 101.563C363.456 100.247 362.384 99.1794 361.062 99.1794C359.741 99.1794 358.669 100.247 358.669 101.563C358.669 102.88 359.741 103.947 361.062 103.947Z" fill="#3A1F10"/>
<path d="M367.803 110.77C367.327 112.268 366.914 113.899 367.187 114.443C367.562 115.131 368.131 115.696 368.824 116.067" stroke="#A15842" stroke-width="4" stroke-miterlimit="10" stroke-linecap="round"/>
<path d="M407.526 129.685C412.157 129.685 415.91 125.947 415.91 121.336C415.91 116.724 412.157 112.986 407.526 112.986C402.896 112.986 399.142 116.724 399.142 121.336C399.142 125.947 402.896 129.685 407.526 129.685Z" fill="#F5EBDD"/>
<path d="M367.192 102.903C368.643 95.4785 364.378 88.4055 357.666 87.105C350.954 85.8046 344.338 90.7692 342.887 98.1938C341.437 105.618 345.702 112.691 352.413 113.992C359.125 115.292 365.742 110.328 367.192 102.903Z" stroke="#3A1F10" stroke-width="4" stroke-miterlimit="10" stroke-linecap="round"/>
<path d="M397.601 106.616C399.051 99.1912 394.786 92.1182 388.075 90.8177C381.363 89.5173 374.746 94.4819 373.296 101.906C371.845 109.331 376.11 116.404 382.822 117.705C389.534 119.005 396.15 114.04 397.601 106.616Z" stroke="#3A1F10" stroke-width="4" stroke-miterlimit="10" stroke-linecap="round"/>
<path d="M367.767 101.779L372.603 102.295" stroke="#3A1F10" stroke-width="4" stroke-miterlimit="10" stroke-linecap="round"/>
<path d="M438.963 109.425L437.571 118.346" stroke="#3A1F10" stroke-width="4" stroke-miterlimit="10" stroke-linecap="round"/>
<path d="M337.702 234.287L344.476 253.921" stroke="#3A1F10" stroke-width="4" stroke-linecap="round" stroke-linejoin="round"/>
<path d="M373.492 279.019H355.681" stroke="#3A1F10" stroke-width="4" stroke-linecap="round" stroke-linejoin="round"/>
<path d="M387.531 228.698L393.144 255.956V281.117" stroke="#3A1F10" stroke-width="4" stroke-linecap="round" stroke-linejoin="round"/>
<path d="M350.201 166.235L360.86 190.252L348.227 188.858L393.144 255.956" stroke="#3A1F10" stroke-width="4" stroke-linecap="round" stroke-linejoin="round"/>
<path d="M454.052 163.377L435.961 188.858L452.806 187.458L391.037 241.975" stroke="#3A1F10" stroke-width="4" stroke-linecap="round" stroke-linejoin="round"/>
<path d="M463.458 248.819L450 230.098" stroke="#3A1F10" stroke-width="4" stroke-linecap="round" stroke-linejoin="round"/>
<path d="M479.029 317.82C471.702 315.387 458.552 310.689 450.622 305.971" stroke="#3A1F10" stroke-width="4" stroke-linecap="round" stroke-linejoin="round"/>
<path d="M276.913 144.391C284.516 144.391 290.679 138.253 290.679 130.682C290.679 123.11 284.516 116.972 276.913 116.972C269.31 116.972 263.147 123.11 263.147 130.682C263.147 138.253 269.31 144.391 276.913 144.391Z" fill="#FF9F8C"/>
<path d="M235.77 76.1233L227.755 66.4988C226.522 65.0174 224.316 64.8124 222.828 66.041L222.656 66.1834C221.168 67.412 220.962 69.609 222.196 71.0904L230.211 80.7149C231.444 82.1964 233.65 82.4013 235.138 81.1727L235.31 81.0303C236.798 79.8017 237.004 77.6048 235.77 76.1233Z" fill="#4756DF"/>
<path d="M250.186 87.8183L242.123 78.1304L97.2053 197.8C95.9415 198.845 95.146 200.347 94.9938 201.975C94.8415 203.604 95.345 205.226 96.3935 206.485L96.5544 206.68C97.0732 207.303 97.7101 207.818 98.4287 208.196C99.1474 208.574 99.9337 208.807 100.743 208.882C101.552 208.957 102.368 208.872 103.144 208.633C103.921 208.394 104.642 208.005 105.268 207.488L150.576 170.061V301.391H163.222V159.606L250.186 87.8183Z" fill="#727FFB"/>
<path d="M226.831 90.606L230.869 95.4848C232.276 97.1774 233.345 99.1219 234.019 101.214" stroke="#4756DF" stroke-width="4" stroke-miterlimit="10"/>
<path d="M156.895 172.968C166.006 172.968 173.391 165.613 173.391 156.54C173.391 147.467 166.006 140.112 156.895 140.112C147.785 140.112 140.4 147.467 140.4 156.54C140.4 165.613 147.785 172.968 156.895 172.968Z" fill="#4756DF"/>
<path d="M156.895 162.854C160.397 162.854 163.236 160.027 163.236 156.54C163.236 153.052 160.397 150.225 156.895 150.225C153.393 150.225 150.555 153.052 150.555 156.54C150.555 160.027 153.393 162.854 156.895 162.854Z" fill="#727FFB"/>
<path d="M288.215 122.897L267.115 140.266" stroke="#A15842" stroke-width="4" stroke-miterlimit="10"/>
<path d="M260.879 86.0621C256.442 85.543 252.377 83.3414 249.528 79.9148L243.929 73.1751C241.95 70.8025 239.106 69.3091 236.023 69.0229C232.939 68.7367 229.867 69.6811 227.482 71.6487C226.302 72.6234 225.326 73.8201 224.611 75.1704C223.895 76.5207 223.453 77.9982 223.311 79.5185C223.168 81.0388 223.328 82.5722 223.781 84.031C224.234 85.4898 224.971 86.8455 225.95 88.0206L231.549 94.7812C234.385 98.198 235.796 102.569 235.489 106.992L234.089 127.372C233.395 137.343 235.937 147.273 241.339 155.697L243.131 158.484L310.268 103.026L307.86 100.775C300.553 93.9285 291.23 89.6014 281.266 88.4318L260.879 86.0621Z" fill="#727FFB"/>
<path d="M163.222 301.392H150.576L131.883 306.466C128.383 307.417 125.294 309.487 123.092 312.359C120.891 315.231 119.698 318.743 119.699 322.357H194.093C194.093 318.743 192.899 315.229 190.696 312.357C188.493 309.486 185.403 307.415 181.901 306.466L163.222 301.392Z" fill="#727FFB"/>
<path d="M297.531 93.1646L236.091 143.737" stroke="#4756DF" stroke-width="4" stroke-miterlimit="10" stroke-linecap="round"/>
<path d="M150.268 299.949H163.222" stroke="#4756DF" stroke-width="4" stroke-miterlimit="10" stroke-linecap="round"/>
<path d="M122.155 313.645H191.216" stroke="#4756DF" stroke-width="4" stroke-miterlimit="10" stroke-linecap="round"/>
<path d="M520.188 502.161C521.587 490.313 520.888 463.716 505.449 443.448C490.01 423.18 511.048 431.6 517.346 437.175C527.424 446.097 536.298 454.649 544.018 483.308L520.188 502.161Z" fill="#3A1F10"/>
<path d="M706.607 627.972H789V625.289C788.998 621.506 787.488 617.879 784.801 615.205C782.115 612.531 778.472 611.028 774.674 611.028H706.18L706.607 627.972Z" fill="#A15842"/>
<path d="M505.616 549.632L522.994 627.972H555.285V623.093C555.285 619.947 554.033 616.93 551.802 614.703C549.572 612.475 546.546 611.219 543.387 611.21C543.387 611.21 559.526 599.159 569.352 587.276C569.352 587.276 586.197 607.718 610.062 604.219L611.791 612.583C612.69 616.924 615.063 620.824 618.511 623.627C621.959 626.429 626.271 627.964 630.722 627.972H708.986C743.699 627.972 760.775 622.696 761.755 603.013C761.785 602.263 761.663 601.513 761.395 600.811C761.127 600.109 760.719 599.467 760.196 598.926C759.673 598.384 759.046 597.953 758.352 597.659C757.657 597.365 756.91 597.214 756.156 597.214H734.307C733.406 597.215 732.516 597.015 731.703 596.628C730.89 596.24 730.175 595.676 729.611 594.977L720.31 583.484C717.553 580.083 713.873 577.542 709.709 576.161C705.544 574.781 701.069 574.621 696.816 575.699L678.109 580.459C678.109 580.459 644.964 533.023 614.94 500.078C586.246 468.623 532.274 465.229 511.012 506.197C504.177 519.604 502.268 534.97 505.616 549.632Z" fill="#A15842"/>
<path d="M701.267 627.972V625.289C701.267 623.415 700.896 621.56 700.176 619.83C699.456 618.099 698.401 616.527 697.07 615.203C695.74 613.878 694.161 612.828 692.423 612.112C690.685 611.396 688.822 611.027 686.941 611.028H677.402" stroke="#3A1F10" stroke-width="4" stroke-miterlimit="10"/>
<path d="M570.654 587.833C575.553 582.028 592.272 560.651 591.075 539.742C589.795 517.37 576.337 505.493 576.337 505.493" stroke="#3A1F10" stroke-width="4" stroke-miterlimit="10" stroke-linecap="round"/>
<path d="M605.815 574.681C605.815 574.681 606.71 591.22 608.509 603.571" stroke="#3A1F10" stroke-width="4" stroke-miterlimit="10" stroke-linecap="round"/>
<path d="M538.44 620.814V627.275" stroke="#3A1F10" stroke-width="4" stroke-miterlimit="10" stroke-linecap="round"/>
<path d="M546.159 620.814V627.275" stroke="#3A1F10" stroke-width="4" stroke-miterlimit="10" stroke-linecap="round"/>
<path d="M685.828 620.814V627.275" stroke="#3A1F10" stroke-width="4" stroke-miterlimit="10" stroke-linecap="round"/>
<path d="M693.547 620.814V627.275" stroke="#3A1F10" stroke-width="4" stroke-miterlimit="10" stroke-linecap="round"/>
<path d="M714.249 601.94C715.992 601.94 717.405 600.533 717.405 598.797C717.405 597.061 715.992 595.654 714.249 595.654C712.506 595.654 711.093 597.061 711.093 598.797C711.093 600.533 712.506 601.94 714.249 601.94Z" fill="#3A1F10"/>
<path d="M697.026 575.636V575.553L678.081 580.431L696.788 575.671L697.026 575.636Z" fill="#3A1F10"/>
<path d="M650.402 611.342C644.915 614.13 637.161 619.587 637.805 627.853H668.276L674.68 617.796C675.727 616.151 677.173 614.796 678.886 613.857C680.599 612.917 682.522 612.424 684.478 612.422H686.514L696.956 575.845L696.802 575.685L678.095 580.445L660.186 603.292C657.55 606.65 654.211 609.397 650.402 611.342Z" fill="#3A1F10"/>
<path d="M605.898 517.153C605.898 517.153 597.423 546.37 624.794 557.403C638.672 562.979 650.199 558.749 658.198 553.222C646.112 537.191 630.12 516.784 614.933 500.112C611.125 495.94 606.846 492.219 602.182 489.023C598.039 494.641 593.504 508.539 605.898 517.153Z" fill="#EAA58B"/>
<path d="M535.984 538.341C542.38 538.341 547.566 533.177 547.566 526.806C547.566 520.436 542.38 515.271 535.984 515.271C529.587 515.271 524.401 520.436 524.401 526.806C524.401 533.177 529.587 538.341 535.984 538.341Z" fill="#EAA58B"/>
<path d="M756.184 597.214H751.985C751.754 598.38 751.784 599.583 752.075 600.736C752.365 601.889 752.908 602.964 753.665 603.883C754.421 604.802 755.372 605.543 756.451 606.053C757.529 606.563 758.707 606.829 759.9 606.833C760.393 606.832 760.886 606.786 761.37 606.693C761.584 605.476 761.722 604.247 761.783 603.013C761.813 602.262 761.691 601.513 761.423 600.811C761.155 600.108 760.747 599.467 760.224 598.926C759.701 598.384 759.074 597.953 758.38 597.659C757.685 597.365 756.939 597.214 756.184 597.214Z" fill="#3A1F10"/>
<path d="M772.855 620.814V627.115" stroke="#3A1F10" stroke-width="4" stroke-miterlimit="10" stroke-linecap="round"/>
<path d="M780.574 620.814V627.115" stroke="#3A1F10" stroke-width="4" stroke-miterlimit="10" stroke-linecap="round"/>
<path d="M730.5 627.135C747.66 625.414 757.892 620.786 761.608 610.938" stroke="#3A1F10" stroke-width="4" stroke-linecap="round" stroke-linejoin="round"/>
<path d="M450.699 260.437C442.063 259.667 433.379 259.572 424.728 260.152C412.354 261.162 395.719 264.389 389.035 267.609C382.352 270.829 356.758 282.197 363.652 286.009C369.95 289.494 383.164 284.253 383.164 284.253C383.164 284.253 369.978 296.324 367.711 301.377C365.443 306.431 372.939 309.267 372.939 309.267C374.912 317.896 383.744 314.188 383.744 314.188C389.308 325.974 419.367 300.437 419.367 300.437C426.518 301.177 433.74 300.874 440.803 299.538C440.803 299.538 444.61 301.663 450.72 304.618L450.699 260.437Z" fill="#EAA58A"/>
<path d="M525.793 319.561C581.942 293 500.55 193.758 471.751 170.681L455.612 235.688L475.964 263.643C467.048 262.11 458.524 261.057 450.7 260.437V304.618C468.518 313.247 505.96 328.97 525.793 319.561Z" fill="#4756DF"/>
<path d="M380.477 284.985C385.459 280.88 393.732 274.245 399.904 270.244" stroke="#A15842" stroke-width="4" stroke-miterlimit="10" stroke-linecap="round"/>
<path d="M406.707 280.05C392.367 289.299 379.301 301.656 372.834 308.124" stroke="#A15842" stroke-width="4" stroke-miterlimit="10" stroke-linecap="round"/>
<path d="M413.069 290.512C403.271 297.21 391.899 307.365 384.473 314.335" stroke="#A15842" stroke-width="4" stroke-miterlimit="10" stroke-linecap="round"/>
<path d="M581.522 286.755C582.583 286.757 583.6 287.178 584.351 287.925C585.101 288.672 585.523 289.685 585.525 290.742V291.334C585.523 292.391 585.101 293.404 584.351 294.151C583.6 294.899 582.583 295.319 581.522 295.321H560.898V286.755H581.522ZM581.522 281.18H556.055C555.955 281.18 555.856 281.199 555.764 281.238C555.672 281.276 555.588 281.332 555.518 281.403C555.447 281.473 555.392 281.557 555.354 281.649C555.317 281.741 555.298 281.84 555.299 281.939V300.165C555.299 300.365 555.378 300.556 555.52 300.697C555.662 300.838 555.854 300.918 556.055 300.918H581.522C582.785 300.918 584.035 300.67 585.201 300.188C586.368 299.706 587.427 299 588.319 298.11C589.211 297.219 589.918 296.163 590.399 295C590.88 293.838 591.127 292.592 591.124 291.334V290.721C591.124 288.185 590.112 285.753 588.312 283.959C586.511 282.166 584.069 281.159 581.522 281.159V281.18Z" fill="#727FFB"/>
<path d="M550.729 278.175C529.874 278.175 520.237 261.622 520.237 261.622L534.234 322.356H567.183L581.18 261.622C577.929 266.725 573.429 270.922 568.103 273.818C562.776 276.713 556.798 278.213 550.729 278.175Z" fill="#727FFB"/>
<path d="M550.729 278.175C556.805 278.22 562.792 276.724 568.126 273.828C573.461 270.932 577.967 266.731 581.222 261.622H520.237C520.237 261.622 529.874 278.175 550.729 278.175Z" fill="#3A1F10"/>
</svg>
