<svg width="100" height="100" viewBox="0 0 100 100" fill="none" xmlns="http://www.w3.org/2000/svg">
<g filter="url(#filter0_d_2_29)">
<circle cx="50" cy="40" r="25" fill="white"/>
</g>
<path d="M54 36C55.5913 36 57.1174 36.6321 58.2426 37.7574C59.3679 38.8826 60 40.4087 60 42V49H56V42C56 41.4696 55.7893 40.9609 55.4142 40.5858C55.0391 40.2107 54.5304 40 54 40C53.4696 40 52.9609 40.2107 52.5858 40.5858C52.2107 40.9609 52 41.4696 52 42V49H48V42C48 40.4087 48.6321 38.8826 49.7574 37.7574C50.8826 36.6321 52.4087 36 54 36V36Z" stroke="#757683" stroke-width="1.5" stroke-linecap="round" stroke-linejoin="round"/>
<path d="M44 37H40V49H44V37Z" stroke="#757683" stroke-width="1.5" stroke-linecap="round" stroke-linejoin="round"/>
<path d="M42 34C43.1046 34 44 33.1046 44 32C44 30.8954 43.1046 30 42 30C40.8954 30 40 30.8954 40 32C40 33.1046 40.8954 34 42 34Z" stroke="#757683" stroke-width="1.5" stroke-linecap="round" stroke-linejoin="round"/>
<defs>
<filter id="filter0_d_2_29" x="0" y="0" width="100" height="100" filterUnits="userSpaceOnUse" color-interpolation-filters="sRGB">
<feFlood flood-opacity="0" result="BackgroundImageFix"/>
<feColorMatrix in="SourceAlpha" type="matrix" values="0 0 0 0 0 0 0 0 0 0 0 0 0 0 0 0 0 0 127 0" result="hardAlpha"/>
<feOffset dy="10"/>
<feGaussianBlur stdDeviation="12.5"/>
<feComposite in2="hardAlpha" operator="out"/>
<feColorMatrix type="matrix" values="0 0 0 0 0.825 0 0 0 0 0.825 0 0 0 0 0.825 0 0 0 0.25 0"/>
<feBlend mode="normal" in2="BackgroundImageFix" result="effect1_dropShadow_2_29"/>
<feBlend mode="normal" in="SourceGraphic" in2="effect1_dropShadow_2_29" result="shape"/>
</filter>
</defs>
</svg>
