<svg width="202" height="130" viewBox="0 0 202 130" fill="none" xmlns="http://www.w3.org/2000/svg">
<line x1="1" y1="129.5" x2="17" y2="129.5" stroke="#FF694B"/>
<line x1="24" y1="129.5" x2="100" y2="129.5" stroke="#FF694B"/>
<path d="M3.06 119.402V123.452H8.694V125H1.422V112.4H8.604V113.948H3.06V117.854H8.154V119.402H3.06ZM16.4243 116H18.3503L14.9843 120.5L18.3503 125H16.4423L14.0303 121.778L11.6003 125H9.6923L13.0583 120.5L9.6923 116H11.6003L14.0123 119.222L16.4243 116ZM24.5611 115.784C25.4371 115.784 26.2171 115.994 26.9011 116.414C27.5971 116.822 28.1371 117.386 28.5211 118.106C28.9051 118.826 29.0971 119.624 29.0971 120.5C29.0971 121.388 28.9051 122.192 28.5211 122.912C28.1371 123.62 27.6031 124.184 26.9191 124.604C26.2351 125.012 25.4491 125.216 24.5611 125.216C23.9131 125.216 23.2951 125.078 22.7071 124.802C22.1191 124.526 21.6151 124.142 21.1951 123.65V128.6H19.6471V116H21.1951V117.35C21.6151 116.858 22.1191 116.474 22.7071 116.198C23.2951 115.922 23.9131 115.784 24.5611 115.784ZM24.3991 123.704C24.9871 123.704 25.5211 123.566 26.0011 123.29C26.4811 123.014 26.8591 122.63 27.1351 122.138C27.4111 121.646 27.5491 121.1 27.5491 120.5C27.5491 119.888 27.4111 119.342 27.1351 118.862C26.8591 118.37 26.4811 117.986 26.0011 117.71C25.5211 117.422 24.9871 117.278 24.3991 117.278C23.8111 117.278 23.2711 117.422 22.7791 117.71C22.2871 117.986 21.8971 118.37 21.6091 118.862C21.3331 119.354 21.1951 119.906 21.1951 120.518C21.1951 121.118 21.3331 121.664 21.6091 122.156C21.8971 122.636 22.2871 123.014 22.7791 123.29C23.2711 123.566 23.8111 123.704 24.3991 123.704ZM32.3397 123.092C32.3397 123.296 32.3817 123.44 32.4657 123.524C32.5617 123.596 32.7057 123.632 32.8977 123.632C33.0057 123.632 33.1077 123.626 33.2037 123.614C33.2997 123.602 33.3897 123.59 33.4737 123.578V125C33.0897 125.06 32.7657 125.09 32.5017 125.09C31.9617 125.09 31.5417 124.952 31.2417 124.676C30.9417 124.388 30.7917 123.89 30.7917 123.182V112.4H32.3397V123.092ZM38.7813 125.216C37.9293 125.216 37.1433 125.006 36.4233 124.586C35.7033 124.166 35.1273 123.596 34.6953 122.876C34.2753 122.144 34.0653 121.352 34.0653 120.5C34.0653 119.648 34.2753 118.862 34.6953 118.142C35.1273 117.422 35.7033 116.852 36.4233 116.432C37.1433 116.012 37.9293 115.802 38.7813 115.802C39.6333 115.802 40.4193 116.012 41.1393 116.432C41.8593 116.852 42.4293 117.422 42.8493 118.142C43.2813 118.862 43.4973 119.648 43.4973 120.5C43.4973 121.352 43.2813 122.144 42.8493 122.876C42.4293 123.596 41.8593 124.166 41.1393 124.586C40.4193 125.006 39.6333 125.216 38.7813 125.216ZM38.7813 123.668C39.3573 123.668 39.8853 123.53 40.3653 123.254C40.8453 122.966 41.2233 122.582 41.4993 122.102C41.7873 121.61 41.9313 121.076 41.9313 120.5C41.9313 119.924 41.7873 119.396 41.4993 118.916C41.2233 118.436 40.8453 118.058 40.3653 117.782C39.8853 117.494 39.3573 117.35 38.7813 117.35C38.2053 117.35 37.6713 117.494 37.1793 117.782C36.6993 118.058 36.3153 118.436 36.0273 118.916C35.7513 119.396 35.6133 119.924 35.6133 120.5C35.6133 121.076 35.7513 121.61 36.0273 122.102C36.3153 122.582 36.6993 122.966 37.1793 123.254C37.6713 123.53 38.2053 123.668 38.7813 123.668ZM49.5278 115.802C49.6718 115.802 49.7798 115.808 49.8518 115.82L49.7258 117.296C49.5818 117.272 49.4678 117.26 49.3838 117.26C48.6158 117.26 47.9678 117.494 47.4398 117.962C46.9238 118.43 46.6658 119.108 46.6658 119.996V125H45.1178V116H46.6658V117.548C46.8698 117.056 47.2178 116.642 47.7098 116.306C48.2138 115.97 48.8198 115.802 49.5278 115.802ZM55.0586 115.784C55.9346 115.784 56.7146 116 57.3986 116.432C58.0826 116.852 58.6106 117.428 58.9826 118.16C59.3666 118.88 59.5586 119.666 59.5586 120.518C59.5586 120.614 59.5526 120.722 59.5406 120.842C59.5286 120.95 59.5166 121.04 59.5046 121.112H51.9266C52.0466 121.916 52.3946 122.576 52.9706 123.092C53.5586 123.596 54.3026 123.848 55.2026 123.848C55.7546 123.848 56.2766 123.722 56.7686 123.47C57.2726 123.218 57.6446 122.906 57.8846 122.534L59.1086 123.254C58.7126 123.878 58.1726 124.364 57.4886 124.712C56.8166 125.048 56.0486 125.216 55.1846 125.216C54.2366 125.216 53.3966 125.012 52.6646 124.604C51.9326 124.196 51.3626 123.638 50.9546 122.93C50.5466 122.21 50.3426 121.4 50.3426 120.5C50.3426 119.612 50.5406 118.814 50.9366 118.106C51.3446 117.386 51.9026 116.822 52.6106 116.414C53.3306 115.994 54.1466 115.784 55.0586 115.784ZM58.0826 119.852C57.9626 119.012 57.6386 118.352 57.1106 117.872C56.5826 117.392 55.8986 117.152 55.0586 117.152C54.4706 117.152 53.9366 117.278 53.4566 117.53C52.9766 117.782 52.5986 118.118 52.3226 118.538C52.0466 118.946 51.9026 119.384 51.8906 119.852H58.0826ZM74.0437 121.796V112.4H75.6997V125H74.2597L67.9057 115.208V125H66.2677V112.4H67.9057V112.418L67.9237 112.4L74.0437 121.796ZM82.5157 125.216C81.6637 125.216 80.8777 125.006 80.1577 124.586C79.4377 124.166 78.8617 123.596 78.4297 122.876C78.0097 122.144 77.7997 121.352 77.7997 120.5C77.7997 119.648 78.0097 118.862 78.4297 118.142C78.8617 117.422 79.4377 116.852 80.1577 116.432C80.8777 116.012 81.6637 115.802 82.5157 115.802C83.3677 115.802 84.1537 116.012 84.8737 116.432C85.5937 116.852 86.1637 117.422 86.5837 118.142C87.0157 118.862 87.2317 119.648 87.2317 120.5C87.2317 121.352 87.0157 122.144 86.5837 122.876C86.1637 123.596 85.5937 124.166 84.8737 124.586C84.1537 125.006 83.3677 125.216 82.5157 125.216ZM82.5157 123.668C83.0917 123.668 83.6197 123.53 84.0997 123.254C84.5797 122.966 84.9577 122.582 85.2337 122.102C85.5217 121.61 85.6657 121.076 85.6657 120.5C85.6657 119.924 85.5217 119.396 85.2337 118.916C84.9577 118.436 84.5797 118.058 84.0997 117.782C83.6197 117.494 83.0917 117.35 82.5157 117.35C81.9397 117.35 81.4057 117.494 80.9137 117.782C80.4337 118.058 80.0497 118.436 79.7617 118.916C79.4857 119.396 79.3477 119.924 79.3477 120.5C79.3477 121.076 79.4857 121.61 79.7617 122.102C80.0497 122.582 80.4337 122.966 80.9137 123.254C81.4057 123.53 81.9397 123.668 82.5157 123.668ZM97.0485 122.624L99.1185 116H100.757L97.8405 125H96.2565L94.1685 118.502L92.0985 125H90.5325L87.7245 116H89.3445L91.3245 122.624L93.3225 116H94.9965L97.0485 122.624Z" fill="#FF694B"/>
<path d="M7.172 32.6C8.08133 32.6 8.92467 32.8273 9.702 33.282C10.4793 33.722 11.088 34.3307 11.528 35.108C11.9827 35.8853 12.21 36.7287 12.21 37.638C12.21 38.5473 11.9827 39.3907 11.528 40.168C11.088 40.9307 10.4793 41.5393 9.702 41.994C8.92467 42.4487 8.08133 42.676 7.172 42.676H4.444V48H1.562V32.6H7.172ZM7.172 39.926C7.80267 39.926 8.338 39.706 8.778 39.266C9.23267 38.8113 9.46 38.2687 9.46 37.638C9.46 37.0073 9.23267 36.4647 8.778 36.01C8.338 35.5553 7.80267 35.328 7.172 35.328H4.444V39.926H7.172ZM18.5878 48.308C17.5464 48.308 16.5784 48.0513 15.6838 47.538C14.8038 47.01 14.0998 46.306 13.5718 45.426C13.0584 44.5313 12.8018 43.5633 12.8018 42.522C12.8018 41.4807 13.0584 40.52 13.5718 39.64C14.0998 38.7453 14.8038 38.0413 15.6838 37.528C16.5784 37 17.5464 36.736 18.5878 36.736C19.6291 36.736 20.5898 37 21.4698 37.528C22.3644 38.0413 23.0684 38.7453 23.5818 39.64C24.1098 40.52 24.3738 41.4807 24.3738 42.522C24.3738 43.5633 24.1098 44.5313 23.5818 45.426C23.0684 46.306 22.3644 47.01 21.4698 47.538C20.5898 48.0513 19.6291 48.308 18.5878 48.308ZM18.5658 45.58C19.1231 45.58 19.6364 45.448 20.1058 45.184C20.5751 44.9053 20.9491 44.5313 21.2278 44.062C21.5064 43.5927 21.6458 43.0793 21.6458 42.522C21.6458 41.9647 21.5064 41.4513 21.2278 40.982C20.9491 40.5127 20.5751 40.1387 20.1058 39.86C19.6364 39.5813 19.1231 39.442 18.5658 39.442C18.0084 39.442 17.4951 39.5813 17.0258 39.86C16.5564 40.1387 16.1824 40.5127 15.9038 40.982C15.6398 41.4513 15.5078 41.9647 15.5078 42.522C15.5078 43.0793 15.6398 43.5927 15.9038 44.062C16.1824 44.5313 16.5564 44.9053 17.0258 45.184C17.4951 45.448 18.0084 45.58 18.5658 45.58ZM32.649 36.78L32.451 39.354C32.363 39.3247 32.209 39.31 31.989 39.31C31.0797 39.31 30.3244 39.574 29.723 40.102C29.1364 40.63 28.843 41.3487 28.843 42.258V48H26.115V37H28.843V38.848C29.0924 38.2613 29.5177 37.77 30.119 37.374C30.7204 36.978 31.4464 36.78 32.297 36.78H32.649ZM38.8585 44.238C38.8585 44.7367 38.9759 45.0813 39.2105 45.272C39.4452 45.4627 39.8192 45.558 40.3325 45.558C40.6405 45.558 40.9779 45.536 41.3445 45.492V48C40.6552 48.0733 40.0832 48.11 39.6285 48.11C38.4552 48.11 37.5752 47.846 36.9885 47.318C36.4165 46.7753 36.1305 45.8073 36.1305 44.414V39.442H34.0625V37H36.1305V34.294L38.8585 33.37V37H41.3005V39.442H38.8585V44.238ZM49.8487 34.91C49.4821 34.866 49.1521 34.844 48.8587 34.844C48.3454 34.844 47.9714 34.9393 47.7367 35.13C47.5021 35.3207 47.3847 35.6727 47.3847 36.186V37H49.8267V39.442H47.3847V48H44.6567V39.442H42.8307V37H44.6567V36.01C44.6567 34.6167 44.9427 33.656 45.5147 33.128C46.0867 32.5853 46.9521 32.314 48.1107 32.314C48.5654 32.314 49.1447 32.3507 49.8487 32.424V34.91ZM56.1854 48.308C55.1441 48.308 54.1761 48.0513 53.2814 47.538C52.4014 47.01 51.6974 46.306 51.1694 45.426C50.6561 44.5313 50.3994 43.5633 50.3994 42.522C50.3994 41.4807 50.6561 40.52 51.1694 39.64C51.6974 38.7453 52.4014 38.0413 53.2814 37.528C54.1761 37 55.1441 36.736 56.1854 36.736C57.2268 36.736 58.1874 37 59.0674 37.528C59.9621 38.0413 60.6661 38.7453 61.1794 39.64C61.7074 40.52 61.9714 41.4807 61.9714 42.522C61.9714 43.5633 61.7074 44.5313 61.1794 45.426C60.6661 46.306 59.9621 47.01 59.0674 47.538C58.1874 48.0513 57.2268 48.308 56.1854 48.308ZM56.1634 45.58C56.7208 45.58 57.2341 45.448 57.7034 45.184C58.1728 44.9053 58.5468 44.5313 58.8254 44.062C59.1041 43.5927 59.2434 43.0793 59.2434 42.522C59.2434 41.9647 59.1041 41.4513 58.8254 40.982C58.5468 40.5127 58.1728 40.1387 57.7034 39.86C57.2341 39.5813 56.7208 39.442 56.1634 39.442C55.6061 39.442 55.0928 39.5813 54.6234 39.86C54.1541 40.1387 53.7801 40.5127 53.5014 40.982C53.2374 41.4513 53.1054 41.9647 53.1054 42.522C53.1054 43.0793 53.2374 43.5927 53.5014 44.062C53.7801 44.5313 54.1541 44.9053 54.6234 45.184C55.0928 45.448 55.6061 45.58 56.1634 45.58ZM66.4407 44.898C66.4407 45.1327 66.4994 45.3013 66.6167 45.404C66.734 45.5067 66.9174 45.558 67.1667 45.558C67.3574 45.558 67.5847 45.536 67.8487 45.492V48C67.306 48.088 66.8 48.132 66.3307 48.132C65.48 48.132 64.8274 47.912 64.3727 47.472C63.9327 47.0173 63.7127 46.218 63.7127 45.074V32.6H66.4407V44.898ZM71.3297 35.174C70.8163 35.174 70.413 35.0347 70.1197 34.756C69.8263 34.4773 69.6797 34.096 69.6797 33.612C69.6797 33.1133 69.8263 32.7247 70.1197 32.446C70.413 32.1673 70.8163 32.028 71.3297 32.028C71.843 32.028 72.2463 32.1673 72.5397 32.446C72.833 32.7247 72.9797 33.1133 72.9797 33.612C72.9797 34.0813 72.8257 34.4627 72.5177 34.756C72.2243 35.0347 71.8283 35.174 71.3297 35.174ZM69.9437 48V37H72.6717V48H69.9437ZM80.1405 48.308C79.0992 48.308 78.1312 48.0513 77.2365 47.538C76.3565 47.01 75.6525 46.306 75.1245 45.426C74.6112 44.5313 74.3545 43.5633 74.3545 42.522C74.3545 41.4807 74.6112 40.52 75.1245 39.64C75.6525 38.7453 76.3565 38.0413 77.2365 37.528C78.1312 37 79.0992 36.736 80.1405 36.736C81.1818 36.736 82.1425 37 83.0225 37.528C83.9172 38.0413 84.6212 38.7453 85.1345 39.64C85.6625 40.52 85.9265 41.4807 85.9265 42.522C85.9265 43.5633 85.6625 44.5313 85.1345 45.426C84.6212 46.306 83.9172 47.01 83.0225 47.538C82.1425 48.0513 81.1818 48.308 80.1405 48.308ZM80.1185 45.58C80.6758 45.58 81.1892 45.448 81.6585 45.184C82.1278 44.9053 82.5018 44.5313 82.7805 44.062C83.0592 43.5927 83.1985 43.0793 83.1985 42.522C83.1985 41.9647 83.0592 41.4513 82.7805 40.982C82.5018 40.5127 82.1278 40.1387 81.6585 39.86C81.1892 39.5813 80.6758 39.442 80.1185 39.442C79.5612 39.442 79.0478 39.5813 78.5785 39.86C78.1092 40.1387 77.7352 40.5127 77.4565 40.982C77.1925 41.4513 77.0605 41.9647 77.0605 42.522C77.0605 43.0793 77.1925 43.5927 77.4565 44.062C77.7352 44.5313 78.1092 44.9053 78.5785 45.184C79.0478 45.448 79.5612 45.58 80.1185 45.58ZM96.7838 32.6V45.272H103.274V48H93.9018V32.6H96.7838ZM112.964 37H115.692V48H112.964V46.922C112.45 47.362 111.886 47.7067 111.27 47.956C110.668 48.1907 110.03 48.308 109.356 48.308C108.241 48.308 107.266 48.0587 106.43 47.56C105.594 47.0613 104.948 46.372 104.494 45.492C104.054 44.612 103.834 43.622 103.834 42.522C103.834 41.422 104.054 40.432 104.494 39.552C104.948 38.672 105.594 37.9827 106.43 37.484C107.266 36.9707 108.241 36.714 109.356 36.714C110.03 36.714 110.668 36.8387 111.27 37.088C111.886 37.3227 112.45 37.66 112.964 38.1V37ZM109.708 45.69C110.309 45.69 110.852 45.558 111.336 45.294C111.834 45.0153 112.223 44.634 112.502 44.15C112.795 43.666 112.942 43.116 112.942 42.5C112.942 41.576 112.626 40.8207 111.996 40.234C111.38 39.6473 110.617 39.354 109.708 39.354C108.784 39.354 108.021 39.6547 107.42 40.256C106.833 40.8427 106.54 41.598 106.54 42.522C106.54 43.446 106.833 44.2087 107.42 44.81C108.021 45.3967 108.784 45.69 109.708 45.69ZM124.086 36.714C124.731 36.714 125.384 36.8533 126.044 37.132C126.719 37.396 127.291 37.88 127.76 38.584C128.244 39.288 128.486 40.234 128.486 41.422V48H125.758V41.422C125.758 40.6007 125.523 40.014 125.054 39.662C124.599 39.2953 124.064 39.112 123.448 39.112C122.832 39.112 122.304 39.332 121.864 39.772C121.439 40.1973 121.226 40.8867 121.226 41.84V48H118.498V37H121.226V37.924C121.622 37.5573 122.062 37.264 122.546 37.044C123.03 36.824 123.543 36.714 124.086 36.714ZM139.26 32.6H141.988V48H139.26V46.944C138.761 47.384 138.204 47.7213 137.588 47.956C136.972 48.1907 136.334 48.308 135.674 48.308C134.559 48.308 133.584 48.0587 132.748 47.56C131.912 47.0613 131.267 46.372 130.812 45.492C130.372 44.612 130.152 43.622 130.152 42.522C130.152 41.422 130.372 40.432 130.812 39.552C131.267 38.672 131.912 37.9827 132.748 37.484C133.584 36.9707 134.559 36.714 135.674 36.714C136.334 36.714 136.965 36.8387 137.566 37.088C138.182 37.3227 138.747 37.6527 139.26 38.078V32.6ZM136.026 45.69C136.627 45.69 137.17 45.558 137.654 45.294C138.153 45.0153 138.541 44.634 138.82 44.15C139.113 43.666 139.26 43.116 139.26 42.5C139.26 41.576 138.945 40.8207 138.314 40.234C137.698 39.6473 136.935 39.354 136.026 39.354C135.102 39.354 134.339 39.6547 133.738 40.256C133.151 40.8427 132.858 41.598 132.858 42.522C132.858 43.446 133.151 44.2087 133.738 44.81C134.339 45.3967 135.102 45.69 136.026 45.69ZM146.203 35.174C145.689 35.174 145.286 35.0347 144.993 34.756C144.699 34.4773 144.553 34.096 144.553 33.612C144.553 33.1133 144.699 32.7247 144.993 32.446C145.286 32.1673 145.689 32.028 146.203 32.028C146.716 32.028 147.119 32.1673 147.413 32.446C147.706 32.7247 147.853 33.1133 147.853 33.612C147.853 34.0813 147.699 34.4627 147.391 34.756C147.097 35.0347 146.701 35.174 146.203 35.174ZM144.817 48V37H147.545V48H144.817ZM155.861 36.714C156.507 36.714 157.159 36.8533 157.819 37.132C158.494 37.396 159.066 37.88 159.535 38.584C160.019 39.288 160.261 40.234 160.261 41.422V48H157.533V41.422C157.533 40.6007 157.299 40.014 156.829 39.662C156.375 39.2953 155.839 39.112 155.223 39.112C154.607 39.112 154.079 39.332 153.639 39.772C153.214 40.1973 153.001 40.8867 153.001 41.84V48H150.273V37H153.001V37.924C153.397 37.5573 153.837 37.264 154.321 37.044C154.805 36.824 155.319 36.714 155.861 36.714ZM171.079 37H173.807V47.45C173.807 48.4913 173.543 49.408 173.015 50.2C172.502 50.992 171.783 51.6007 170.859 52.026C169.935 52.466 168.901 52.686 167.757 52.686C166.481 52.686 165.323 52.4367 164.281 51.938C163.24 51.454 162.507 50.816 162.081 50.024L164.413 48.682C164.633 49.1073 165.044 49.4593 165.645 49.738C166.247 50.0313 166.973 50.178 167.823 50.178C168.762 50.178 169.539 49.9213 170.155 49.408C170.771 48.9093 171.079 48.2567 171.079 47.45V46.944C170.581 47.384 170.023 47.7213 169.407 47.956C168.791 48.1907 168.153 48.308 167.493 48.308C166.379 48.308 165.403 48.0587 164.567 47.56C163.731 47.0613 163.086 46.372 162.631 45.492C162.191 44.612 161.971 43.622 161.971 42.522C161.971 41.422 162.191 40.432 162.631 39.552C163.086 38.672 163.731 37.9827 164.567 37.484C165.403 36.9707 166.379 36.714 167.493 36.714C168.153 36.714 168.784 36.8387 169.385 37.088C170.001 37.3227 170.566 37.6527 171.079 38.078V37ZM167.845 45.69C168.447 45.69 168.989 45.558 169.473 45.294C169.972 45.0153 170.361 44.634 170.639 44.15C170.933 43.666 171.079 43.116 171.079 42.5C171.079 41.576 170.764 40.8207 170.133 40.234C169.517 39.6473 168.755 39.354 167.845 39.354C166.921 39.354 166.159 39.6547 165.557 40.256C164.971 40.8427 164.677 41.598 164.677 42.522C164.677 43.446 164.971 44.2087 165.557 44.81C166.159 45.3967 166.921 45.69 167.845 45.69ZM191.217 32.6H194.099V42.808C194.099 43.8787 193.843 44.832 193.329 45.668C192.816 46.4893 192.112 47.1347 191.217 47.604C190.323 48.0587 189.311 48.286 188.181 48.286C187.052 48.286 186.04 48.0587 185.145 47.604C184.251 47.1347 183.547 46.4893 183.033 45.668C182.52 44.832 182.263 43.8787 182.263 42.808V32.6H185.145V42.808C185.145 43.6 185.431 44.238 186.003 44.722C186.59 45.1913 187.316 45.426 188.181 45.426C189.105 45.426 189.839 45.1913 190.381 44.722C190.939 44.2527 191.217 43.6147 191.217 42.808V32.6ZM196.791 48V32.6H199.651V48H196.791Z" fill="#1B1C23"/>
<path d="M14.102 67.644V67.6H16.126V83H14.102V71.23L9.196 79.502H8.668L3.74 71.186V83.022H1.738V67.622H3.74V67.644L3.85 67.6L8.932 76.202L14.014 67.6L14.102 67.644ZM20.318 69.492C19.9514 69.492 19.658 69.3893 19.438 69.184C19.218 68.9787 19.108 68.6927 19.108 68.326C19.108 67.974 19.218 67.6953 19.438 67.49C19.658 67.27 19.9514 67.16 20.318 67.16C20.6847 67.16 20.978 67.27 21.198 67.49C21.418 67.6953 21.528 67.974 21.528 68.326C21.528 68.6927 21.418 68.9787 21.198 69.184C20.9927 69.3893 20.6994 69.492 20.318 69.492ZM19.372 83V72H21.264V83H19.372ZM33.5438 80.866C33.0158 81.5993 32.3411 82.186 31.5198 82.626C30.7131 83.0513 29.8331 83.264 28.8798 83.264C27.8385 83.264 26.8778 83.0073 25.9978 82.494C25.1178 81.9807 24.4138 81.284 23.8858 80.404C23.3725 79.5093 23.1158 78.5413 23.1158 77.5C23.1158 76.4587 23.3725 75.498 23.8858 74.618C24.4138 73.738 25.1178 73.0413 25.9978 72.528C26.8778 72.0147 27.8385 71.758 28.8798 71.758C29.8185 71.758 30.6911 71.9707 31.4978 72.396C32.3045 72.8213 32.9791 73.3933 33.5218 74.112L31.9598 75.168C31.5785 74.684 31.1238 74.31 30.5958 74.046C30.0678 73.782 29.4958 73.65 28.8798 73.65C28.1758 73.65 27.5305 73.826 26.9438 74.178C26.3571 74.5153 25.8878 74.9773 25.5358 75.564C25.1985 76.1507 25.0298 76.796 25.0298 77.5C25.0298 78.204 25.1985 78.8567 25.5358 79.458C25.8878 80.0447 26.3571 80.514 26.9438 80.866C27.5305 81.2033 28.1758 81.372 28.8798 81.372C29.4958 81.372 30.0678 81.24 30.5958 80.976C31.1385 80.6973 31.5931 80.316 31.9598 79.832L33.5438 80.866ZM41.0692 71.758C41.2452 71.758 41.3772 71.7653 41.4652 71.78L41.3112 73.584C41.1352 73.5547 40.9959 73.54 40.8932 73.54C39.9545 73.54 39.1625 73.826 38.5172 74.398C37.8865 74.97 37.5712 75.7987 37.5712 76.884V83H35.6792V72H37.5712V73.892C37.8205 73.2907 38.2459 72.7847 38.8472 72.374C39.4632 71.9633 40.2039 71.758 41.0692 71.758ZM47.7001 83.264C46.6588 83.264 45.6981 83.0073 44.8181 82.494C43.9381 81.9807 43.2341 81.284 42.7061 80.404C42.1928 79.5093 41.9361 78.5413 41.9361 77.5C41.9361 76.4587 42.1928 75.498 42.7061 74.618C43.2341 73.738 43.9381 73.0413 44.8181 72.528C45.6981 72.0147 46.6588 71.758 47.7001 71.758C48.7415 71.758 49.7021 72.0147 50.5821 72.528C51.4621 73.0413 52.1588 73.738 52.6721 74.618C53.2001 75.498 53.4641 76.4587 53.4641 77.5C53.4641 78.5413 53.2001 79.5093 52.6721 80.404C52.1588 81.284 51.4621 81.9807 50.5821 82.494C49.7021 83.0073 48.7415 83.264 47.7001 83.264ZM47.7001 81.372C48.4041 81.372 49.0495 81.2033 49.6361 80.866C50.2228 80.514 50.6848 80.0447 51.0221 79.458C51.3741 78.8567 51.5501 78.204 51.5501 77.5C51.5501 76.796 51.3741 76.1507 51.0221 75.564C50.6848 74.9773 50.2228 74.5153 49.6361 74.178C49.0495 73.826 48.4041 73.65 47.7001 73.65C46.9961 73.65 46.3435 73.826 45.7421 74.178C45.1555 74.5153 44.6861 74.9773 44.3341 75.564C43.9968 76.1507 43.8281 76.796 43.8281 77.5C43.8281 78.204 43.9968 78.8567 44.3341 79.458C44.6861 80.0447 45.1555 80.514 45.7421 80.866C46.3435 81.2033 46.9961 81.372 47.7001 81.372ZM56.9628 75.014C56.9628 75.4393 57.1608 75.7473 57.5568 75.938C57.9675 76.1287 58.6201 76.334 59.5148 76.554C60.3801 76.7593 61.0841 76.9647 61.6268 77.17C62.1841 77.3753 62.6535 77.698 63.0348 78.138C63.4308 78.578 63.6288 79.172 63.6288 79.92C63.6288 80.932 63.2108 81.746 62.3748 82.362C61.5388 82.9633 60.4901 83.264 59.2288 83.264C58.0995 83.264 57.1461 83.044 56.3688 82.604C55.5915 82.164 55.0268 81.548 54.6748 80.756L56.2368 79.942C56.4715 80.5287 56.8455 80.9687 57.3588 81.262C57.8721 81.5407 58.4955 81.68 59.2288 81.68C59.9181 81.68 60.5121 81.526 61.0108 81.218C61.5241 80.91 61.7808 80.4847 61.7808 79.942C61.7808 79.6047 61.6561 79.326 61.4068 79.106C61.1721 78.886 60.8715 78.7173 60.5048 78.6C60.1528 78.4827 59.6468 78.336 58.9868 78.16C58.1508 77.9547 57.4688 77.7567 56.9408 77.566C56.4275 77.3607 55.9801 77.06 55.5988 76.664C55.2321 76.268 55.0488 75.7327 55.0488 75.058C55.0488 74.4127 55.2321 73.8407 55.5988 73.342C55.9655 72.8287 56.4641 72.4327 57.0948 72.154C57.7255 71.8753 58.4295 71.736 59.2068 71.736C60.1308 71.736 60.9448 71.934 61.6488 72.33C62.3675 72.726 62.9175 73.276 63.2988 73.98L61.7368 74.772C61.5168 74.3027 61.1941 73.9433 60.7688 73.694C60.3435 73.43 59.8228 73.298 59.2068 73.298C58.5175 73.298 57.9675 73.4593 57.5568 73.782C57.1608 74.09 56.9628 74.5007 56.9628 75.014ZM70.6669 83.264C69.6256 83.264 68.6649 83.0073 67.7849 82.494C66.9049 81.9807 66.2009 81.284 65.6729 80.404C65.1596 79.5093 64.9029 78.5413 64.9029 77.5C64.9029 76.4587 65.1596 75.498 65.6729 74.618C66.2009 73.738 66.9049 73.0413 67.7849 72.528C68.6649 72.0147 69.6256 71.758 70.6669 71.758C71.7083 71.758 72.6689 72.0147 73.5489 72.528C74.4289 73.0413 75.1256 73.738 75.6389 74.618C76.1669 75.498 76.4309 76.4587 76.4309 77.5C76.4309 78.5413 76.1669 79.5093 75.6389 80.404C75.1256 81.284 74.4289 81.9807 73.5489 82.494C72.6689 83.0073 71.7083 83.264 70.6669 83.264ZM70.6669 81.372C71.3709 81.372 72.0163 81.2033 72.6029 80.866C73.1896 80.514 73.6516 80.0447 73.9889 79.458C74.3409 78.8567 74.5169 78.204 74.5169 77.5C74.5169 76.796 74.3409 76.1507 73.9889 75.564C73.6516 74.9773 73.1896 74.5153 72.6029 74.178C72.0163 73.826 71.3709 73.65 70.6669 73.65C69.9629 73.65 69.3103 73.826 68.7089 74.178C68.1223 74.5153 67.6529 74.9773 67.3009 75.564C66.9636 76.1507 66.7949 76.796 66.7949 77.5C66.7949 78.204 66.9636 78.8567 67.3009 79.458C67.6529 80.0447 68.1223 80.514 68.7089 80.866C69.3103 81.2033 69.9629 81.372 70.6669 81.372ZM83.9372 69.184C83.3799 69.1253 83.0132 69.096 82.8372 69.096C82.2506 69.096 81.8252 69.228 81.5612 69.492C81.3119 69.7413 81.1872 70.2033 81.1872 70.878V72H83.9152V73.738H81.1872V83H79.2952V73.738H77.2712V72H79.2952V70.768C79.2952 69.4773 79.5446 68.5827 80.0432 68.084C80.5419 67.5853 81.3119 67.336 82.3532 67.336C82.7786 67.336 83.3066 67.3727 83.9372 67.446V69.184ZM89.4874 79.568C89.4874 80.2427 89.6121 80.712 89.8614 80.976C90.1254 81.2253 90.5434 81.35 91.1154 81.35C91.2914 81.35 91.6581 81.3207 92.2154 81.262V83C91.5847 83.0733 91.0567 83.11 90.6314 83.11C89.5901 83.11 88.8201 82.8607 88.3214 82.362C87.8374 81.8633 87.5954 80.9687 87.5954 79.678V73.738H85.1534V72H87.5954V69.008L89.4874 68.326V72H92.1714V73.738H89.4874V79.568Z" fill="#1B1C23"/>
<path d="M49.464 14.208C48.4187 14.208 47.4533 13.952 46.568 13.44C45.6827 12.9173 44.9787 12.2133 44.456 11.328C43.944 10.4427 43.688 9.47733 43.688 8.432C43.688 7.38667 43.944 6.42133 44.456 5.536C44.9787 4.65067 45.6827 3.952 46.568 3.44C47.4533 2.91733 48.4187 2.656 49.464 2.656C50.5093 2.656 51.4747 2.91733 52.36 3.44C53.2453 3.952 53.944 4.65067 54.456 5.536C54.9787 6.42133 55.24 7.38667 55.24 8.432C55.24 9.47733 54.9787 10.4427 54.456 11.328C53.944 12.2133 53.2453 12.9173 52.36 13.44C51.4747 13.952 50.5093 14.208 49.464 14.208ZM49.464 12.736C50.2427 12.736 50.9627 12.544 51.624 12.16C52.2853 11.776 52.808 11.2533 53.192 10.592C53.576 9.93067 53.768 9.21067 53.768 8.432C53.768 7.65333 53.576 6.93333 53.192 6.272C52.808 5.61067 52.2853 5.088 51.624 4.704C50.9627 4.30933 50.2427 4.112 49.464 4.112C48.6853 4.112 47.9653 4.30933 47.304 4.704C46.6427 5.088 46.1147 5.61067 45.72 6.272C45.336 6.93333 45.144 7.65333 45.144 8.432C45.144 9.21067 45.336 9.93067 45.72 10.592C46.1147 11.2533 46.6427 11.776 47.304 12.16C47.9653 12.544 48.6853 12.736 49.464 12.736ZM63.5778 2.8H65.0338V10.208C65.0338 10.9973 64.8578 11.696 64.5058 12.304C64.1538 12.9013 63.6631 13.3653 63.0338 13.696C62.4044 14.0267 61.6844 14.192 60.8738 14.192C60.0631 14.192 59.3431 14.0267 58.7138 13.696C58.0844 13.3653 57.5938 12.9013 57.2418 12.304C56.9004 11.696 56.7298 10.9973 56.7298 10.208V2.8H58.1858V10.208C58.1858 10.976 58.4258 11.5893 58.9058 12.048C59.3964 12.5067 60.0524 12.736 60.8738 12.736C61.7164 12.736 62.3778 12.512 62.8578 12.064C63.3378 11.6053 63.5778 10.9867 63.5778 10.208V2.8ZM73.8579 14L71.4899 9.856H68.6419V14H67.1859V2.8H71.5219C72.1619 2.8 72.7539 2.96 73.2979 3.28C73.8419 3.58933 74.2685 4.016 74.5779 4.56C74.8979 5.09333 75.0579 5.68 75.0579 6.32C75.0579 7.024 74.8659 7.664 74.4819 8.24C74.1085 8.816 73.6072 9.248 72.9779 9.536L75.5219 14H73.8579ZM68.6419 4.192V8.464H71.5219C71.9059 8.464 72.2579 8.368 72.5779 8.176C72.9085 7.984 73.1699 7.72267 73.3619 7.392C73.5539 7.06133 73.6499 6.704 73.6499 6.32C73.6499 5.936 73.5539 5.584 73.3619 5.264C73.1699 4.93333 72.9085 4.672 72.5779 4.48C72.2579 4.288 71.9059 4.192 71.5219 4.192H68.6419ZM85.0884 2.8C85.7284 2.8 86.3204 2.96 86.8644 3.28C87.4084 3.58933 87.835 4.016 88.1444 4.56C88.4644 5.09333 88.6244 5.68 88.6244 6.32C88.6244 6.96 88.4644 7.552 88.1444 8.096C87.835 8.64 87.4084 9.072 86.8644 9.392C86.3204 9.70133 85.7284 9.856 85.0884 9.856H82.7044V14H81.2484V2.8H85.0884ZM85.0884 8.464C85.4724 8.464 85.8297 8.368 86.1604 8.176C86.491 7.984 86.7524 7.72267 86.9444 7.392C87.1364 7.06133 87.2324 6.704 87.2324 6.32C87.2324 5.936 87.1364 5.584 86.9444 5.264C86.7524 4.93333 86.491 4.672 86.1604 4.48C85.8297 4.288 85.4724 4.192 85.0884 4.192H82.7044V8.464H85.0884ZM96.6548 14L94.2868 9.856H91.4388V14H89.9828V2.8H94.3188C94.9588 2.8 95.5508 2.96 96.0948 3.28C96.6388 3.58933 97.0654 4.016 97.3748 4.56C97.6948 5.09333 97.8548 5.68 97.8548 6.32C97.8548 7.024 97.6628 7.664 97.2788 8.24C96.9054 8.816 96.4041 9.248 95.7748 9.536L98.3188 14H96.6548ZM91.4388 4.192V8.464H94.3188C94.7028 8.464 95.0548 8.368 95.3748 8.176C95.7054 7.984 95.9668 7.72267 96.1588 7.392C96.3508 7.06133 96.4468 6.704 96.4468 6.32C96.4468 5.936 96.3508 5.584 96.1588 5.264C95.9668 4.93333 95.7054 4.672 95.3748 4.48C95.0548 4.288 94.7028 4.192 94.3188 4.192H91.4388ZM104.667 14.208C103.622 14.208 102.656 13.952 101.771 13.44C100.886 12.9173 100.182 12.2133 99.6591 11.328C99.1471 10.4427 98.8911 9.47733 98.8911 8.432C98.8911 7.38667 99.1471 6.42133 99.6591 5.536C100.182 4.65067 100.886 3.952 101.771 3.44C102.656 2.91733 103.622 2.656 104.667 2.656C105.712 2.656 106.678 2.91733 107.563 3.44C108.448 3.952 109.147 4.65067 109.659 5.536C110.182 6.42133 110.443 7.38667 110.443 8.432C110.443 9.47733 110.182 10.4427 109.659 11.328C109.147 12.2133 108.448 12.9173 107.563 13.44C106.678 13.952 105.712 14.208 104.667 14.208ZM104.667 12.736C105.446 12.736 106.166 12.544 106.827 12.16C107.488 11.776 108.011 11.2533 108.395 10.592C108.779 9.93067 108.971 9.21067 108.971 8.432C108.971 7.65333 108.779 6.93333 108.395 6.272C108.011 5.61067 107.488 5.088 106.827 4.704C106.166 4.30933 105.446 4.112 104.667 4.112C103.888 4.112 103.168 4.30933 102.507 4.704C101.846 5.088 101.318 5.61067 100.923 6.272C100.539 6.93333 100.347 7.65333 100.347 8.432C100.347 9.21067 100.539 9.93067 100.923 10.592C101.318 11.2533 101.846 11.776 102.507 12.16C103.168 12.544 103.888 12.736 104.667 12.736ZM117.541 2.8H119.013V10.624C119.013 11.328 118.853 11.952 118.533 12.496C118.213 13.0293 117.765 13.4453 117.189 13.744C116.624 14.0427 115.979 14.192 115.253 14.192C114.443 14.192 113.739 14.0267 113.141 13.696C112.544 13.3547 112.075 12.8587 111.733 12.208L112.933 11.504C113.221 11.9947 113.547 12.3467 113.909 12.56C114.272 12.7627 114.736 12.864 115.301 12.864C115.995 12.864 116.539 12.6773 116.933 12.304C117.339 11.92 117.541 11.36 117.541 10.624V2.8ZM122.861 9.024V12.624H127.869V14H121.405V2.8H127.789V4.176H122.861V7.648H127.389V9.024H122.861ZM128.876 8.432C128.876 7.38667 129.132 6.42133 129.644 5.536C130.166 4.65067 130.87 3.952 131.756 3.44C132.641 2.91733 133.606 2.656 134.652 2.656C135.718 2.656 136.7 2.928 137.595 3.472C138.492 4.00533 139.19 4.72 139.692 5.616L138.412 6.304C138.028 5.64267 137.5 5.11467 136.828 4.72C136.166 4.31467 135.441 4.112 134.652 4.112C133.873 4.112 133.153 4.30933 132.492 4.704C131.83 5.088 131.302 5.61067 130.908 6.272C130.524 6.93333 130.332 7.65333 130.332 8.432C130.332 9.21067 130.524 9.93067 130.908 10.592C131.302 11.2533 131.83 11.776 132.492 12.16C133.153 12.544 133.873 12.736 134.652 12.736C135.452 12.736 136.182 12.5333 136.844 12.128C137.516 11.7227 138.038 11.184 138.412 10.512L139.708 11.216C139.206 12.1227 138.502 12.848 137.595 13.392C136.7 13.936 135.718 14.208 134.652 14.208C133.606 14.208 132.641 13.952 131.756 13.44C130.87 12.9173 130.166 12.2133 129.644 11.328C129.132 10.4427 128.876 9.47733 128.876 8.432ZM148.353 2.8V4.176H145.041V14H143.585V4.176H140.257V2.8H148.353ZM152.832 14.192C151.755 14.192 150.848 13.952 150.112 13.472C149.376 12.992 148.87 12.336 148.592 11.504L149.84 10.784C150.054 11.4027 150.411 11.888 150.912 12.24C151.424 12.592 152.07 12.768 152.848 12.768C153.371 12.768 153.808 12.6827 154.16 12.512C154.523 12.3307 154.79 12.1013 154.96 11.824C155.142 11.536 155.232 11.232 155.232 10.912C155.232 10.4533 155.014 10.08 154.576 9.792C154.139 9.504 153.451 9.216 152.512 8.928C151.766 8.704 151.152 8.48 150.672 8.256C150.203 8.032 149.814 7.72267 149.504 7.328C149.206 6.92267 149.056 6.4 149.056 5.76C149.056 5.13067 149.211 4.576 149.52 4.096C149.84 3.616 150.267 3.248 150.8 2.992C151.344 2.736 151.936 2.608 152.576 2.608C153.462 2.608 154.23 2.82667 154.88 3.264C155.531 3.69067 156.027 4.27733 156.368 5.024L155.104 5.728C154.88 5.19467 154.555 4.784 154.128 4.496C153.702 4.19733 153.184 4.048 152.576 4.048C151.947 4.048 151.446 4.21867 151.072 4.56C150.699 4.89067 150.512 5.29067 150.512 5.76C150.512 6.10133 150.603 6.37867 150.784 6.592C150.976 6.80533 151.232 6.98667 151.552 7.136C151.883 7.27467 152.368 7.44533 153.008 7.648C153.819 7.904 154.47 8.15467 154.96 8.4C155.451 8.63467 155.862 8.96 156.192 9.376C156.523 9.792 156.688 10.3253 156.688 10.976C156.688 11.6267 156.523 12.1973 156.192 12.688C155.862 13.168 155.403 13.5413 154.816 13.808C154.24 14.064 153.579 14.192 152.832 14.192Z" fill="#757683"/>
<line y1="8.5" x2="35" y2="8.5" stroke="#757683"/>
</svg>
