<svg width="564" height="507" viewBox="0 0 564 507" fill="none" xmlns="http://www.w3.org/2000/svg">
<path d="M383.913 189.552C398.952 189.552 411.145 177.34 411.145 162.276C411.145 147.212 398.952 135 383.913 135C368.873 135 356.681 147.212 356.681 162.276C356.681 177.34 368.873 189.552 383.913 189.552Z" fill="#FFC1B5"/>
<path d="M21.6812 43C26.6517 43 30.6812 38.7467 30.6812 33.5C30.6812 28.2533 26.6517 24 21.6812 24C16.7106 24 12.6812 28.2533 12.6812 33.5C12.6812 38.7467 16.7106 43 21.6812 43Z" fill="#FFC1B5"/>
<path d="M46.2261 440.834V452.424H146.314V440.834H46.2261Z" fill="#FFA800"/>
<path d="M162.804 500.987L138.01 351.977H153.172C154.796 351.977 156.355 351.33 157.504 350.179C158.653 349.029 159.298 347.468 159.298 345.84C159.298 344.213 158.653 342.652 157.504 341.501C156.355 340.35 154.796 339.704 153.172 339.704H39.4885C37.8637 339.704 36.3054 340.35 35.1565 341.501C34.0075 342.652 33.3621 344.213 33.3621 345.84C33.3621 347.468 34.0075 349.029 35.1565 350.179C36.3054 351.33 37.8637 351.977 39.4885 351.977H54.5306L29.7368 500.987C29.6144 501.725 29.6539 502.481 29.8524 503.202C30.0509 503.923 30.4038 504.592 30.8866 505.162C31.3693 505.733 31.9702 506.191 32.6476 506.506C33.3251 506.82 34.0627 506.983 34.8094 506.983C35.9831 506.984 37.1217 506.582 38.0357 505.845C38.9497 505.107 39.5839 504.079 39.8328 502.93L72.685 351.977H119.856L152.701 502.93C152.952 504.079 153.588 505.107 154.503 505.844C155.418 506.581 156.557 506.983 157.731 506.983C158.478 506.983 159.216 506.82 159.893 506.506C160.57 506.191 161.171 505.733 161.654 505.162C162.137 504.592 162.49 503.923 162.688 503.202C162.887 502.481 162.926 501.725 162.804 500.987Z" fill="#FFA800"/>
<path d="M153.171 351.977C154.796 351.977 156.354 351.33 157.503 350.179C158.652 349.028 159.298 347.468 159.298 345.84C159.298 344.213 158.652 342.652 157.503 341.501C156.354 340.35 154.796 339.704 153.171 339.704H39.4882C37.8634 339.704 36.3051 340.35 35.1562 341.501C34.0073 342.652 33.3618 344.213 33.3618 345.84C33.3618 347.468 34.0073 349.028 35.1562 350.179C36.3051 351.33 37.8634 351.977 39.4882 351.977H54.5303V352.167H72.6707L72.7128 351.977H119.883L119.926 352.167H138.066V351.977H153.171Z" fill="#FFA800"/>
<path d="M159.91 440.637H232.275C233.174 425.247 236.385 404.833 239.047 377.254C241.415 352.8 243.452 332.273 243.319 315.327C243.094 287.08 170.954 321.267 170.954 321.267C170.954 327.438 172.198 333.364 172.233 339.106C172.317 354.025 164.772 366.719 159.383 384.713C151.212 411.996 158.02 440.637 158.02 440.637H159.91Z" fill="#4856DF"/>
<path d="M236.131 499.285H172.78C171.901 499.565 171.15 500.151 170.664 500.937C170.178 501.723 169.989 502.657 170.129 503.57C170.27 504.484 170.732 505.317 171.432 505.92C172.132 506.522 173.023 506.854 173.946 506.857L267.171 506.983C267.993 497.905 262.843 491.072 248.314 480.946C240.023 488.145 236.131 499.285 236.131 499.285Z" fill="#727FFB"/>
<path d="M245.047 478.743C242.038 476.795 239.439 474.275 237.396 471.326C232.478 464.099 231.438 454.367 232.246 440.637H169.535C169.656 450.902 170.395 461.15 171.748 471.326C173.35 482.846 175.514 490.77 177.249 499.102H173.954C173.556 499.101 173.16 499.163 172.781 499.285H236.131C236.131 499.285 240.024 488.145 248.314 480.988C247.274 480.252 246.185 479.503 245.047 478.743Z" fill="#D69285"/>
<path d="M233.005 428.308C229.127 420.575 226.483 412.281 225.171 403.728C220.584 371.8 223.303 355.432 210.368 341.097H172.521" stroke="#727FFB" stroke-width="4" stroke-linecap="round" stroke-linejoin="round"/>
<path d="M256.604 443.36L256.674 443.529L312.543 417.323C308.194 404.29 303.648 386.951 296.18 364.256C289.182 343.018 284.552 327.149 280.168 314.87C274.037 319.293 266.477 321.261 258.971 320.388C251.465 319.515 244.557 315.863 239.601 310.149C234.646 304.435 232.001 297.073 232.187 289.507C232.374 281.941 235.376 274.717 240.607 269.255C210.782 255.758 104.856 246.954 104.856 246.954L44.9334 238.088C41.7718 243.323 39.081 251.62 37.6196 261.31H58.5563V283.737C58.5451 288.272 56.7397 292.618 53.5357 295.822C50.3316 299.026 45.9902 300.827 41.4627 300.831H40.2683C39.9873 300.831 39.7063 300.831 39.4323 300.831C45.1512 321.942 59.863 339.725 89.8909 339.725H211.085C224.019 354.045 221.3 370.414 225.888 402.355C229.639 428.484 247.422 447.745 247.422 447.745L256.604 443.36Z" fill="#4856DF"/>
<path d="M341.713 473.373L286.07 498.651C285.128 499.31 284.467 500.301 284.22 501.425C283.973 502.549 284.157 503.726 284.735 504.721C285.314 505.716 286.245 506.456 287.343 506.796C288.441 507.135 289.627 507.049 290.665 506.553L375.1 467.146C371.791 457.997 363.282 454.479 343.126 450.96L342.262 450.798C340.591 458.213 340.405 465.886 341.713 473.373Z" fill="#727FFB"/>
<path d="M342.262 450.771C336.458 449.659 331.906 447.724 328.147 444.796C321.22 439.392 316.976 430.595 312.543 417.352L256.674 443.558C261.41 454.458 268.056 465.922 274.386 475.929C279.915 484.641 285.192 492.234 288.74 497.321L286.723 498.3C286.494 498.412 286.276 498.543 286.07 498.694L341.714 473.416C340.396 465.906 340.582 458.208 342.262 450.771Z" fill="#D69285"/>
<path d="M262.477 320.605C268.83 320.609 275.022 318.601 280.168 314.869C271.449 290.324 263.889 280.099 241.028 269.445L240.606 269.255C236.496 273.547 233.737 278.954 232.67 284.805C231.604 290.655 232.278 296.691 234.608 302.161C236.939 307.63 240.823 312.294 245.778 315.57C250.733 318.847 256.54 320.593 262.477 320.591V320.605Z" fill="#727FFB"/>
<path d="M41.4624 300.831C45.9984 300.831 50.3487 299.026 53.5569 295.814C56.765 292.602 58.5682 288.246 58.5701 283.702V261.275H37.6334C35.7856 273.442 35.891 287.756 39.432 300.81C39.706 300.81 39.987 300.81 40.268 300.81L41.4624 300.831Z" fill="#727FFB"/>
<path d="M210.052 341.407H230.476" stroke="#727FFB" stroke-width="4" stroke-linecap="round" stroke-linejoin="round"/>
<path d="M297.901 124.537C297.901 124.537 261.135 82.2576 217.695 66.9237" stroke="#8E4F43" stroke-width="4" stroke-linecap="round" stroke-linejoin="round"/>
<path d="M182.582 83.4398C181.247 80.2098 185.701 75.1431 193.12 70.8645C183.073 68.3593 175.935 63.6937 176.652 59.774C177.368 55.8543 185.687 54.0106 195.973 55.221C190.563 48.6061 188.181 42.2867 190.57 39.7393C193.612 36.4811 203.265 40.5908 212.125 48.8876C219.853 56.1358 224.42 64.2003 223.45 68.303C222.909 72.483 215.792 78.4083 206.012 82.4617C194.764 87.1343 184.289 87.5706 182.582 83.4398Z" fill="#FF7054"/>
<path d="M223.815 81.4346C230.901 81.4346 236.644 75.6815 236.644 68.5848C236.644 61.488 230.901 55.735 223.815 55.735C216.73 55.735 210.986 61.488 210.986 68.5848C210.986 75.6815 216.73 81.4346 223.815 81.4346Z" fill="#8E4F43"/>
<path d="M250.845 85.134C254.37 83.8231 252.768 70.7304 247.267 55.8906C241.766 41.0508 234.449 30.0835 230.924 31.3944C227.399 32.7053 229.002 45.7979 234.503 60.6377C240.004 75.4775 247.321 86.4448 250.845 85.134Z" fill="#8E4F43"/>
<path d="M250.217 87.7113C250.217 87.7113 255.669 102.714 252.943 118.4" stroke="#3A1F10" stroke-width="4" stroke-linecap="round" stroke-linejoin="round"/>
<path d="M150.797 27.9524C139.176 41.0485 126.825 43.9407 126.825 43.9407C118.837 35.2147 104.343 35.2147 102.13 47.5789C99.7197 61.2802 116.638 65.0521 116.638 65.0521C116.638 65.0521 120.902 82.7293 114.361 91.4624C108.586 99.2032 101.167 100.477 85.9634 102.18C105.776 135.712 126.01 133.066 132.748 133.066C148.907 133.066 153.459 114.284 154.731 104.601C151.052 103.316 147.298 102.256 143.49 101.427L141.312 88.3379C141.312 88.3379 151.478 91.9691 160.197 86.8812C168.916 81.7934 171.094 72.3285 168.185 57.7828C166.464 49.1623 166.527 38.501 165.052 28.9728C159.298 29.9509 150.797 27.9524 150.797 27.9524Z" fill="#D69285"/>
<path d="M271.667 101.011C268.583 88.6472 244.436 81.9408 244.436 81.9408C244.436 81.9408 245.883 54.1864 239.665 53.2997C234.902 52.596 230.131 64.2143 226.049 86.719C221.483 111.87 224.005 158.322 224.005 158.322C224.005 158.322 218.953 153.726 211.787 147.33C211.071 148.78 209.972 150.005 208.61 150.874C207.247 151.742 205.673 152.22 204.059 152.256C205.078 153.549 205.716 155.102 205.902 156.739C206.088 158.377 205.814 160.033 205.111 161.523C204.408 163.013 203.303 164.276 201.922 165.171C200.541 166.067 198.938 166.558 197.293 166.59C198.312 167.884 198.951 169.437 199.136 171.074C199.322 172.711 199.048 174.368 198.345 175.858C197.642 177.347 196.538 178.611 195.156 179.506C193.775 180.401 192.172 180.893 190.527 180.925C191.597 182.283 192.245 183.925 192.393 185.648C192.541 187.371 192.182 189.1 191.36 190.621C190.538 192.142 189.289 193.389 187.768 194.207C186.246 195.025 184.519 195.379 182.799 195.224C197.715 204.95 217.991 216.293 231.501 216.293C302.306 216.265 273.712 109.196 271.667 101.011Z" fill="#D69285"/>
<path d="M191.553 190.165C192.255 188.675 192.529 187.019 192.344 185.382C192.16 183.745 191.523 182.192 190.506 180.897C192.151 180.865 193.754 180.374 195.135 179.478C196.516 178.583 197.621 177.319 198.324 175.83C199.027 174.34 199.301 172.683 199.115 171.046C198.929 169.409 198.291 167.856 197.272 166.563C198.917 166.53 200.52 166.039 201.901 165.144C203.282 164.248 204.386 162.985 205.089 161.495C205.793 160.005 206.067 158.349 205.881 156.712C205.695 155.074 205.057 153.522 204.038 152.228C205.652 152.192 207.226 151.715 208.589 150.846C209.951 149.978 211.05 148.752 211.766 147.302C199.415 136.282 180.79 119.942 170.876 112.602C166.078 109.048 159.965 106.416 154.717 104.601C153.481 114.312 148.956 133.066 132.797 133.066C126.087 133.066 105.825 135.712 86.0127 102.18L79.6474 102.884C57.7271 105.326 47.7506 117.141 41.8771 131.257C38.2448 139.99 35.3362 155.993 35.3362 155.993C33.0827 170.664 31.9226 185.483 31.8655 200.327L60.3688 226.751L136.893 228.644C143.019 219.594 154.26 202.881 157.97 196.47C162.733 188.286 163.415 181.467 163.415 181.467C163.415 181.467 171.593 187.871 182.799 195.183C184.595 195.34 186.396 194.944 187.961 194.047C189.525 193.15 190.779 191.796 191.553 190.165Z" fill="#FFA800"/>
<path d="M158.792 11.9429C150.08 1.03535 126.109 -6.24104 107.224 7.57986C88.3384 21.4008 89.7928 43.9547 90.5164 52.6878C90.5164 52.6878 70.184 46.1362 55.6549 61.4138C51.45 65.7815 48.3877 71.1223 46.7404 76.9612C45.093 82.8001 44.9116 88.9563 46.2123 94.8824C46.2123 94.8824 19.4584 94.1294 14.2523 118.893C11.2945 132.967 16.8167 142.334 22.9431 148.132C26.5363 151.509 30.7339 154.176 35.3154 155.993C35.3154 155.993 38.224 139.99 41.8563 131.257C47.7298 117.141 57.7064 105.325 79.6266 102.884L85.9919 102.18C101.196 100.477 108.615 99.1821 114.39 91.4623C120.924 82.7293 116.638 65.052 116.638 65.052C116.638 65.052 99.6991 61.2801 102.109 47.5929C104.294 35.2287 118.816 35.2287 126.804 43.9547C126.804 43.9547 139.155 41.0484 150.776 27.9523C150.776 27.9523 159.277 29.9509 165.073 28.9727C164.083 22.4141 162.34 16.3974 158.792 11.9429Z" fill="#A15842"/>
<path d="M273.178 110.73C271.119 109.78 269.89 107.387 270.241 102.813C270.241 102.813 265.983 108.161 261.452 105.783C256.92 103.404 258.733 98.2811 258.733 98.2811C258.733 98.2811 254.644 101.011 251.243 97.5774C248.159 94.4881 250.541 89.3932 250.541 89.3932C250.541 89.3932 246.016 91.244 244.414 88.028C242.398 84.0028 244.85 79.7875 247.506 76.5575" stroke="#8E4F43" stroke-width="8" stroke-linecap="round" stroke-linejoin="round"/>
<path d="M44.9197 95.4734C45.6895 99.1193 47.0772 102.606 49.0227 105.783" stroke="#703928" stroke-width="4" stroke-miterlimit="10" stroke-linecap="round"/>
<path d="M222.642 159.201L224.349 180.461" stroke="#3A1F10" stroke-width="4" stroke-linecap="round" stroke-linejoin="round"/>
<path d="M161.026 157.942C165.473 165.964 165.417 175.591 164.841 181.298" stroke="#FFCD6C" stroke-width="4" stroke-linecap="round" stroke-linejoin="round"/>
<path d="M120.853 180.461L99.0667 181.144" stroke="#FFCD6C" stroke-width="4" stroke-linecap="round" stroke-linejoin="round"/>
<path d="M140.94 89.6819C137.895 88.4847 134.924 87.1053 132.045 85.5511" stroke="#A15842" stroke-width="4" stroke-linecap="round" stroke-linejoin="round"/>
<path d="M146.385 109.878L145.197 102.341" stroke="#A15842" stroke-width="4" stroke-linecap="round" stroke-linejoin="round"/>
<path d="M89.0479 52.9623L90.5583 65.5446" stroke="#703928" stroke-width="4" stroke-miterlimit="10" stroke-linecap="round"/>
<path d="M161.027 67.9371C159.488 68.9364 154.387 69.2671 151.942 64.8126" stroke="#3A1F10" stroke-width="4" stroke-linecap="round" stroke-linejoin="round"/>
<path d="M120.172 53.6096L113.364 50.2036" stroke="#3A1F10" stroke-width="4" stroke-linecap="round" stroke-linejoin="round"/>
<path d="M151.605 50.5906C150.516 52.0754 145.38 54.9537 141.516 51.6673" stroke="#3A1F10" stroke-width="4" stroke-linecap="round" stroke-linejoin="round"/>
<path d="M168.151 48.4443C167.337 48.6174 166.498 48.6282 165.681 48.4761C164.863 48.3239 164.084 48.0118 163.387 47.5576" stroke="#3A1F10" stroke-width="4" stroke-linecap="round" stroke-linejoin="round"/>
<path d="M158.94 50.9777C159.72 52.744 160.471 54.6933 160.31 55.4392C160.07 56.3464 159.53 57.1453 158.778 57.7051" stroke="#3A1F10" stroke-width="4" stroke-linecap="round" stroke-linejoin="round"/>
<path d="M116.441 61.8503L107.146 70.6326C106.643 71.1079 106.27 71.7044 106.062 72.3653C105.855 73.0261 105.82 73.7292 105.961 74.4075C106.102 75.0858 106.414 75.7165 106.867 76.2396C107.321 76.7626 107.901 77.1605 108.551 77.3952L119.54 81.3008C120.193 81.5322 120.894 81.5917 121.577 81.4737C122.259 81.3558 122.9 81.0643 123.438 80.6271C123.976 80.19 124.393 79.6219 124.649 78.9771C124.905 78.3324 124.992 77.6326 124.9 76.9449L123.207 64.278C123.108 63.5417 122.809 62.8469 122.342 62.2693C121.876 61.6918 121.26 61.2538 120.561 61.0032C119.863 60.7527 119.109 60.6991 118.383 60.8485C117.656 60.9979 116.985 61.3444 116.441 61.8503Z" fill="#F4E6D8"/>
<path d="M249.881 64.1864C249.881 64.1864 254.644 61.456 258.733 62.8212C265.056 64.9324 264.129 70.8295 264.129 70.8295C264.129 70.8295 272.995 67.6276 274.717 77.0151C274.717 77.0151 282.712 78.8096 280.913 86.8178C280.913 86.8178 287.384 87.1626 286.098 95.6564C284.813 104.15 279.157 111.208 275.756 111.208C272.244 111.208 269.764 109.048 270.241 102.764C270.241 102.764 265.984 108.112 261.452 105.734C256.921 103.355 258.733 98.232 258.733 98.232C258.733 98.232 254.644 100.962 251.244 97.5283C248.159 94.439 250.541 89.3441 250.541 89.3441C250.541 89.3441 246.017 91.1949 244.415 87.9789C241.007 81.16 250.38 73.8273 251.904 71.6176L249.881 64.1864Z" fill="#D69285"/>
<path d="M247.857 91.8283C252.536 87.5286 260.503 79.4148 264.283 70.8999" stroke="#8E4F43" stroke-width="4" stroke-linecap="round" stroke-linejoin="round"/>
<path d="M256.45 101.645C264.226 95.0215 270.573 86.8805 275.103 77.7188" stroke="#8E4F43" stroke-width="4" stroke-linecap="round" stroke-linejoin="round"/>
<path d="M268.484 106.698C270.592 104.122 277.962 94.8684 281.615 87.5427" stroke="#8E4F43" stroke-width="4" stroke-linecap="round" stroke-linejoin="round"/>
<path d="M267.164 263.323H149.244L176.047 178.504C176.84 176.007 178.405 173.828 180.517 172.282C182.63 170.735 185.178 169.903 187.794 169.905H287.44C289.376 169.904 291.285 170.361 293.012 171.237C294.739 172.114 296.235 173.386 297.38 174.95C298.524 176.514 299.284 178.327 299.598 180.241C299.912 182.154 299.771 184.115 299.187 185.964L277.021 256.103C276.355 258.198 275.041 260.026 273.269 261.324C271.497 262.622 269.359 263.322 267.164 263.323Z" fill="#3A1F10"/>
<path d="M80.8066 253.773C80.4588 254.872 80.3744 256.038 80.5603 257.175C80.7463 258.313 81.1974 259.39 81.877 260.32C82.5566 261.251 83.4455 262.007 84.4717 262.529C85.4979 263.051 86.6324 263.323 87.7832 263.323H267.164C269.357 263.318 271.492 262.614 273.26 261.314C275.029 260.013 276.338 258.183 277 256.089L277.702 253.773H80.8066Z" fill="#3A1F10"/>
<path d="M249.101 209.313C246.361 205.555 233.904 215.478 232.991 216.301C232.513 215.478 226.035 205.555 221.279 209.313C217.155 212.571 226.197 227.117 228.635 230.826C228.736 230.938 228.859 231.029 228.997 231.09C229.135 231.152 229.285 231.184 229.436 231.184C229.587 231.184 229.736 231.152 229.874 231.09C230.012 231.029 230.136 230.938 230.237 230.826C234.67 227.082 251.482 212.536 249.101 209.313Z" fill="#FFA800"/>
<path d="M237.719 206.657C238.709 203.473 238.667 200.629 237.626 200.304C236.585 199.979 234.939 202.297 233.949 205.481C232.959 208.665 233 211.509 234.041 211.834C235.082 212.158 236.729 209.841 237.719 206.657Z" fill="#FFA800"/>
<path d="M13.2406 186.421C14.7712 187.012 16.4355 187.166 18.0481 186.865C19.6607 186.564 21.1583 185.821 22.3741 184.718C22.5182 186.361 23.1183 187.932 24.1064 189.251C25.0946 190.571 26.4315 191.588 27.9661 192.186C29.5007 192.785 31.1719 192.942 32.7909 192.64C34.4099 192.337 35.9122 191.587 37.1281 190.475C37.2759 192.116 37.8783 193.683 38.8673 195C39.8563 196.317 41.1927 197.332 42.7261 197.929C44.2595 198.527 45.9289 198.684 47.5465 198.382C49.1641 198.081 50.6656 197.334 51.8821 196.224C51.9946 197.52 52.3913 198.775 53.0438 199.899C53.6964 201.023 54.5886 201.99 55.6569 202.729C56.7252 203.469 57.9432 203.963 59.2241 204.176C60.505 204.39 61.8172 204.318 63.067 203.965L73.6899 175.387C77.7813 164.417 79.7207 152.759 79.4018 141.053L78.3269 103.052C78.3269 103.052 53.8141 105.093 39.5168 122.827C32.182 131.926 17.7863 155.965 8.56152 182.1C9.53091 184.073 11.199 185.613 13.2406 186.421Z" fill="#FFA800"/>
<path d="M57.4952 203.683C55.9565 203.089 54.6145 202.076 53.6212 200.758C52.6279 199.439 52.0229 197.869 51.8747 196.224C50.6583 197.334 49.1567 198.081 47.5391 198.382C45.9215 198.684 44.2521 198.527 42.7187 197.929C41.1853 197.332 39.8489 196.317 38.8599 195C37.8709 193.683 37.2685 192.116 37.1207 190.475C35.9048 191.587 34.4025 192.337 32.7835 192.64C31.1645 192.942 29.4933 192.785 27.9587 192.186C26.4241 191.588 25.0872 190.571 24.099 189.251C23.1109 187.932 22.5108 186.361 22.3667 184.718C21.3553 185.641 20.144 186.316 18.828 186.69C17.512 187.064 16.1273 187.127 14.7829 186.873C13.4386 186.62 12.1712 186.058 11.0805 185.231C9.98993 184.404 9.10583 183.335 8.4979 182.107C0.502634 204.76 -3.61444 228.996 4.1279 246.441C20.7929 284.012 70.809 270.789 82.6122 267.313C94.4154 263.837 117.347 252.007 132.628 254.097C147.909 256.187 165.27 263.837 168.052 254.097C168.052 254.097 177.403 253.858 174.459 244.949C174.459 244.949 179.16 244.365 179.855 240.888C181.26 233.929 164.574 227.673 164.574 227.673C164.574 227.673 177.775 229.784 180.551 226.969C184.063 223.451 180.649 217.772 159.087 212.536C135.403 206.794 104.146 210.27 57.6077 218.616L63.0526 203.958C61.2196 204.473 59.2687 204.377 57.4952 203.683Z" fill="#D69285"/>
<path d="M73.8724 171.594L58.3245 217.054" stroke="#FFCD6C" stroke-width="4" stroke-linecap="round" stroke-linejoin="round"/>
<path d="M168.769 228.172C161.223 225.301 148.661 220.896 138.909 219.305" stroke="#3A1F10" stroke-width="4" stroke-linecap="round" stroke-linejoin="round"/>
<path d="M174.656 244.583C164.961 240.213 146.441 232.282 136.479 230.79" stroke="#3A1F10" stroke-width="4" stroke-linecap="round" stroke-linejoin="round"/>
<path d="M57.7201 217.152C52.493 217.997 44.2869 219.397 36.0879 221.037" stroke="#FFCD6C" stroke-width="4" stroke-linecap="round" stroke-linejoin="round"/>
<path d="M167.764 255.054C160.492 251.346 145.169 243.971 134.399 241.916" stroke="#3A1F10" stroke-width="4" stroke-linecap="round" stroke-linejoin="round"/>
<path d="M508.669 357.724C508.671 358.176 508.579 358.623 508.399 359.037C507.136 361.92 501.737 362.347 496.367 359.987C491.869 358.015 488.812 354.714 488.681 352V388H508.681V357.724H508.669Z" fill="#FFA800"/>
<path d="M500.988 349.47C495.617 347.196 490.225 347.606 488.952 350.385C488.748 350.841 488.657 351.337 488.687 351.833C488.817 354.449 491.876 357.63 496.375 359.53C501.747 361.804 507.139 361.394 508.411 358.615C508.592 358.216 508.684 357.785 508.681 357.35C508.694 354.701 505.597 351.414 500.988 349.47Z" fill="#FFCD6C"/>
<path d="M523.677 369C523.546 371.804 520.488 375.214 515.989 377.255C510.615 379.688 505.227 379.252 503.951 376.269C503.772 375.843 503.681 375.383 503.681 374.918V388H523.681V369H523.677Z" fill="#FFA800"/>
<path d="M523.41 367.568C522.147 364.576 516.747 364.134 511.372 366.582C506.769 368.681 503.673 372.216 503.681 375.072C503.681 375.539 503.772 376.001 503.951 376.43C505.214 379.426 510.614 379.864 515.989 377.42C520.487 375.37 523.545 371.944 523.675 369.128C523.706 368.593 523.615 368.059 523.41 367.568Z" fill="#FFCD6C"/>
<path d="M505.681 388V376" stroke="#FFCD6C" stroke-width="4" stroke-miterlimit="10" stroke-linecap="round"/>
<path d="M498.681 347V354" stroke="#3A1F10" stroke-width="4" stroke-linecap="round" stroke-linejoin="round"/>
<path d="M513.681 364V372" stroke="#3A1F10" stroke-width="4" stroke-linecap="round" stroke-linejoin="round"/>
<path d="M413.821 507C413.324 507 412.835 506.877 412.392 506.641C411.95 506.404 411.568 506.061 411.277 505.639C410.986 505.217 410.794 504.729 410.718 504.214C410.642 503.7 410.684 503.173 410.839 502.679L420.668 471.264C420.876 470.605 421.276 470.032 421.812 469.625C422.348 469.219 422.992 469 423.654 469H430.542C431.089 469 431.627 469.149 432.102 469.434C432.577 469.719 432.973 470.13 433.25 470.625C433.527 471.12 433.675 471.682 433.681 472.256C433.687 472.83 433.549 473.396 433.282 473.897L416.548 505.312C416.277 505.822 415.882 506.247 415.403 506.544C414.923 506.841 414.377 506.998 413.821 507Z" fill="#3A1F10"/>
<path d="M548.405 507C548.923 507 549.434 506.877 549.895 506.641C550.357 506.404 550.756 506.061 551.059 505.639C551.363 505.217 551.563 504.729 551.642 504.214C551.722 503.7 551.679 503.173 551.516 502.679L541.259 471.264C541.042 470.606 540.625 470.033 540.067 469.627C539.508 469.22 538.837 469.001 538.147 469H530.954C530.384 469.001 529.823 469.151 529.328 469.437C528.833 469.722 528.421 470.132 528.132 470.627C527.843 471.122 527.688 471.683 527.681 472.257C527.675 472.83 527.817 473.395 528.095 473.897L545.558 505.312C545.842 505.821 546.254 506.246 546.754 506.543C547.255 506.839 547.824 506.997 548.405 507Z" fill="#3A1F10"/>
<path d="M563.681 388H398.681V482H563.681V388Z" fill="#D69285"/>
<path d="M551.681 400H410.681V470H551.681V400Z" fill="#FFC1B5"/>
<path d="M480.681 399V471" stroke="#D69285" stroke-width="4" stroke-miterlimit="10"/>
<path d="M497.681 439C499.89 439 501.681 437.209 501.681 435C501.681 432.791 499.89 431 497.681 431C495.472 431 493.681 432.791 493.681 435C493.681 437.209 495.472 439 497.681 439Z" fill="#3A1F10"/>
<path d="M464.681 439C466.89 439 468.681 437.209 468.681 435C468.681 432.791 466.89 431 464.681 431C462.472 431 460.681 432.791 460.681 435C460.681 437.209 462.472 439 464.681 439Z" fill="#3A1F10"/>
<path d="M461.951 303C461.951 303 458.709 310.427 450.203 310.427C441.697 310.427 438.438 303 438.438 303C438.438 303 414.512 358.703 438.026 388H462.335C485.836 358.703 461.951 303 461.951 303Z" fill="#727FFB"/>
<path d="M450.189 310C458.51 310 461.681 303 461.681 303H438.681C438.681 303 441.865 310 450.189 310Z" fill="#3A1F10"/>
<path d="M472.681 352C459.107 352.247 443.044 357.273 430.681 375" stroke="#4856DF" stroke-width="4" stroke-linecap="round" stroke-linejoin="round"/>
<path d="M428.681 339C437.774 336.429 454.992 333.98 471.681 338.584" stroke="#4856DF" stroke-width="4" stroke-linecap="round" stroke-linejoin="round"/>
<path d="M471.681 367C465.667 367.069 454.55 373.679 455.775 387" stroke="#4856DF" stroke-width="4" stroke-linecap="round" stroke-linejoin="round"/>
<path d="M448.681 308C448.436 301.977 446.885 278.041 437.681 264" stroke="#3A1F10" stroke-width="4" stroke-miterlimit="10" stroke-linecap="round"/>
<path d="M446.674 289.503C447.879 287.458 441.492 281.448 432.409 276.08C423.326 270.713 414.986 268.02 413.781 270.065C412.576 272.111 418.963 278.12 428.046 283.488C437.129 288.856 445.469 291.549 446.674 289.503Z" fill="#3A1F10"/>
<path d="M443.148 230.212C444.916 229.202 444.007 224.268 441.117 219.192C438.228 214.115 434.451 210.819 432.683 211.829C430.915 212.839 431.824 217.773 434.713 222.849C437.603 227.926 441.379 231.222 443.148 230.212Z" fill="#FF7054"/>
<path d="M411.86 251.994C412.801 249.887 417.227 249.732 422.606 251.347C419.29 245.376 418.275 239.822 420.467 238.391C422.659 236.96 427.292 240.127 431.358 245.622C432.074 240.018 434.014 236.025 436.33 236C439.256 236 441.651 242.497 441.68 250.533C441.698 252.832 441.495 255.126 441.075 257.385C439.799 256.797 438.398 256.539 436.998 256.634C435.598 256.73 434.244 257.177 433.059 257.933C431.874 258.69 430.896 259.733 430.213 260.967C429.53 262.201 429.164 263.587 429.149 265C427.003 264.47 424.911 263.741 422.9 262.822C415.594 259.53 410.663 254.685 411.86 251.994Z" fill="#FF7054"/>
<path d="M433.542 257.363C434.738 256.588 436.112 256.126 437.535 256.023C438.958 255.919 440.384 256.175 441.681 256.769C440.964 260.489 439.667 263.25 438.108 264.148C436.623 265.225 433.48 265.266 429.681 264.356C429.697 262.963 430.057 261.596 430.731 260.376C431.405 259.156 432.37 258.121 433.542 257.363Z" fill="#3A1F10"/>
<path d="M451.681 307C452.85 300.431 458.938 268.222 468.681 250" stroke="#3A1F10" stroke-width="4" stroke-miterlimit="10" stroke-linecap="round"/>
<path d="M501.106 294.983C501.799 292.841 492.545 287.919 480.437 283.99C468.329 280.061 457.951 278.613 457.258 280.755C456.565 282.898 465.819 287.82 477.927 291.749C490.036 295.678 500.413 297.126 501.106 294.983Z" fill="#3A1F10"/>
<path d="M466.754 222.008C469.024 221.801 471.311 225.575 472.541 231.034C476.045 225.248 480.331 221.669 482.631 222.88C484.93 224.091 484.461 229.654 481.718 235.857C486.884 233.762 491.273 233.497 492.412 235.489C493.843 238.027 489.422 243.272 482.54 247.198C480.578 248.328 478.512 249.267 476.37 250C476.253 248.607 475.792 247.266 475.028 246.097C474.265 244.929 473.223 243.97 471.998 243.308C470.772 242.646 469.402 242.302 468.011 242.306C466.62 242.311 465.252 242.664 464.031 243.334C463.443 241.21 463.051 239.037 462.858 236.841C462.097 228.914 463.862 222.273 466.754 222.008Z" fill="#FF7054"/>
<path d="M471.993 242.986C473.306 243.659 474.424 244.645 475.243 245.855C476.063 247.064 476.558 248.456 476.681 249.903C472.937 251.128 469.755 251.362 468.162 250.429C466.43 249.652 464.789 246.883 463.681 243.062C464.953 242.378 466.377 242.014 467.827 242C469.277 241.987 470.709 242.326 471.993 242.986Z" fill="#3A1F10"/>
<path d="M491.536 260V260.035C489.54 260.874 487.924 262.445 487.008 264.438C486.092 266.431 485.942 268.702 486.588 270.803C487.234 272.903 488.629 274.68 490.497 275.784C492.366 276.888 494.572 277.238 496.681 276.766V276.8C485.495 280.37 475.273 279.504 473.847 274.862C472.421 270.22 480.35 263.569 491.536 260Z" fill="#FF7054"/>
<path d="M489.117 274.569C490.067 274.167 490.838 273.4 491.275 272.423C491.712 271.446 491.784 270.33 491.476 269.299C491.168 268.268 490.503 267.398 489.613 266.864C488.724 266.33 487.677 266.171 486.681 266.418C486.954 264.994 487.555 263.664 488.431 262.544C489.307 261.425 490.43 260.551 491.702 260L496.681 276.792C495.345 277.104 493.956 277.065 492.637 276.677C491.318 276.289 490.11 275.565 489.117 274.569Z" fill="#FFC1B5"/>
<path d="M491.5 268.91C491.797 269.905 491.727 270.98 491.304 271.923C490.881 272.866 490.136 273.607 489.217 274C488.217 273.003 487.475 271.755 487.06 270.374C486.644 268.993 486.569 267.524 486.842 266.105C487.812 265.872 488.83 266.031 489.693 266.551C490.556 267.071 491.201 267.913 491.5 268.91Z" fill="#3A1F10"/>
</svg>
