<svg width="48" height="48" viewBox="0 0 48 48" fill="none" xmlns="http://www.w3.org/2000/svg">
<rect width="48" height="48" fill="#FFCCC1"/>
<path d="M27.175 11.35C25.6375 11.35 24.3875 12.6 24.3875 14.1375V19.9375C24.3875 21.475 25.6375 22.725 27.175 22.725C28.7125 22.725 29.9625 21.475 29.9625 19.9375V14.1375C29.9625 12.6125 28.7125 11.35 27.175 11.35Z" fill="#FF6534"/>
<path d="M34.225 17.8875C32.8875 17.8875 31.8001 18.975 31.8001 20.3125V22.275C31.8001 22.5375 32.0126 22.75 32.2751 22.75H34.2376C35.5751 22.75 36.6626 21.6625 36.6626 20.325C36.6626 18.9875 35.5625 17.8875 34.225 17.8875Z" fill="#FF6534"/>
<path d="M19.625 17.7375H13.825C12.2875 17.7375 11.0375 18.9875 11.0375 20.525C11.0375 22.0625 12.2875 23.3125 13.825 23.3125H19.625C21.1625 23.3125 22.4125 22.0625 22.4125 20.525C22.4125 18.9875 21.1625 17.7375 19.625 17.7375Z" fill="#FF6534"/>
<path d="M19.9875 11.025C18.65 11.025 17.5625 12.1125 17.5625 13.45C17.5625 14.7875 18.65 15.875 19.9875 15.875H21.95C22.2125 15.875 22.425 15.6625 22.425 15.4V13.4375C22.4125 12.125 21.325 11.025 19.9875 11.025Z" fill="#FF6534"/>
<path d="M20.7875 25.2875C19.25 25.2875 18 26.5375 18 28.075V33.875C18 35.4125 19.25 36.6625 20.7875 36.6625C22.325 36.6625 23.5751 35.4125 23.5751 33.875V28.075C23.5751 26.5375 22.325 25.2875 20.7875 25.2875Z" fill="#FF6534"/>
<path d="M15.7 25.2875H13.7375C12.4 25.2875 11.3125 26.375 11.3125 27.7125C11.3125 29.05 12.4 30.1375 13.7375 30.1375C15.075 30.1375 16.1625 29.05 16.1625 27.7125V25.75C16.1625 25.5 15.95 25.2875 15.7 25.2875Z" fill="#FF6534"/>
<path d="M34.1376 24.7125H28.3376C26.8001 24.7125 25.5501 25.9625 25.5501 27.5C25.5501 29.0375 26.8001 30.2875 28.3376 30.2875H34.1376C35.6751 30.2875 36.9251 29.0375 36.9251 27.5C36.9251 25.9625 35.6751 24.7125 34.1376 24.7125Z" fill="#FF6534"/>
<path d="M27.975 32.0875H26.0125C25.75 32.0875 25.5375 32.3 25.5375 32.5625V34.525C25.5375 35.8625 26.625 36.95 27.9625 36.95C29.3 36.95 30.3875 35.8625 30.3875 34.525C30.4 33.175 29.3125 32.0875 27.975 32.0875Z" fill="#FF6534"/>
</svg>
