<svg width="40" height="40" viewBox="0 0 40 40" fill="none" xmlns="http://www.w3.org/2000/svg">
<rect width="40" height="40" fill="#FF694B"/>
<path d="M25.0513 24.26V26H15.0513V25.46C15.158 24.1933 15.5647 22.9667 16.2713 21.78C16.978 20.5933 17.9647 19.7267 19.2313 19.18L19.9113 18.88C20.6313 18.56 21.1847 18.2933 21.5713 18.08C21.9713 17.8533 22.3047 17.5733 22.5713 17.24C22.838 16.8933 22.9713 16.4733 22.9713 15.98C22.9713 15.4467 22.8247 14.9867 22.5313 14.6C22.238 14.2133 21.8713 13.9267 21.4313 13.74C20.9913 13.54 20.5513 13.44 20.1113 13.44C19.2047 13.44 18.4247 13.6267 17.7713 14C17.118 14.3733 16.7313 14.94 16.6113 15.7L14.8713 15.5C14.9913 14.7133 15.298 14.04 15.7913 13.48C16.298 12.9067 16.9313 12.48 17.6913 12.2C18.4513 11.9067 19.258 11.76 20.1113 11.76C20.8847 11.76 21.6247 11.9267 22.3313 12.26C23.038 12.58 23.6113 13.0533 24.0513 13.68C24.5047 14.3067 24.7313 15.0467 24.7313 15.9C24.7313 16.7667 24.5247 17.4867 24.1113 18.06C23.698 18.6333 23.1847 19.0933 22.5713 19.44C21.958 19.7867 21.078 20.2 19.9313 20.68C19.2513 20.9867 18.678 21.46 18.2113 22.1C17.7447 22.7267 17.3913 23.4467 17.1513 24.26H25.0513Z" fill="white"/>
</svg>
