<svg width="350" height="350" viewBox="0 0 480 350" fill="none" xmlns="http://www.w3.org/2000/svg">
<g filter="url(#filter0_d_2_386)">
<rect x="30" y="20" width="420" height="290" fill="white"/>
</g>
<path d="M131.67 255.5L123.88 251V254.5H85V256.5H123.88V260L131.67 255.5Z" fill="#FF694B"/>
<path d="M88.06 165.4V176.452H93.784V178H86.422V165.4H88.06ZM99.1016 178.216C98.2496 178.216 97.4636 178.006 96.7436 177.586C96.0236 177.166 95.4476 176.596 95.0156 175.876C94.5956 175.144 94.3856 174.352 94.3856 173.5C94.3856 172.648 94.5956 171.862 95.0156 171.142C95.4476 170.422 96.0236 169.852 96.7436 169.432C97.4636 169.012 98.2496 168.802 99.1016 168.802C99.9536 168.802 100.74 169.012 101.46 169.432C102.18 169.852 102.75 170.422 103.17 171.142C103.602 171.862 103.818 172.648 103.818 173.5C103.818 174.352 103.602 175.144 103.17 175.876C102.75 176.596 102.18 177.166 101.46 177.586C100.74 178.006 99.9536 178.216 99.1016 178.216ZM99.1016 176.668C99.6776 176.668 100.206 176.53 100.686 176.254C101.166 175.966 101.544 175.582 101.82 175.102C102.108 174.61 102.252 174.076 102.252 173.5C102.252 172.924 102.108 172.396 101.82 171.916C101.544 171.436 101.166 171.058 100.686 170.782C100.206 170.494 99.6776 170.35 99.1016 170.35C98.5256 170.35 97.9916 170.494 97.4996 170.782C97.0196 171.058 96.6356 171.436 96.3476 171.916C96.0716 172.396 95.9336 172.924 95.9336 173.5C95.9336 174.076 96.0716 174.61 96.3476 175.102C96.6356 175.582 97.0196 175.966 97.4996 176.254C97.9916 176.53 98.5256 176.668 99.1016 176.668ZM109.848 168.802C109.992 168.802 110.1 168.808 110.172 168.82L110.046 170.296C109.902 170.272 109.788 170.26 109.704 170.26C108.936 170.26 108.288 170.494 107.76 170.962C107.244 171.43 106.986 172.108 106.986 172.996V178H105.438V169H106.986V170.548C107.19 170.056 107.538 169.642 108.03 169.306C108.534 168.97 109.14 168.802 109.848 168.802ZM115.379 168.784C116.255 168.784 117.035 169 117.719 169.432C118.403 169.852 118.931 170.428 119.303 171.16C119.687 171.88 119.879 172.666 119.879 173.518C119.879 173.614 119.873 173.722 119.861 173.842C119.849 173.95 119.837 174.04 119.825 174.112H112.247C112.367 174.916 112.715 175.576 113.291 176.092C113.879 176.596 114.623 176.848 115.523 176.848C116.075 176.848 116.597 176.722 117.089 176.47C117.593 176.218 117.965 175.906 118.205 175.534L119.429 176.254C119.033 176.878 118.493 177.364 117.809 177.712C117.137 178.048 116.369 178.216 115.505 178.216C114.557 178.216 113.717 178.012 112.985 177.604C112.253 177.196 111.683 176.638 111.275 175.93C110.867 175.21 110.663 174.4 110.663 173.5C110.663 172.612 110.861 171.814 111.257 171.106C111.665 170.386 112.223 169.822 112.931 169.414C113.651 168.994 114.467 168.784 115.379 168.784ZM118.403 172.852C118.283 172.012 117.959 171.352 117.431 170.872C116.903 170.392 116.219 170.152 115.379 170.152C114.791 170.152 114.257 170.278 113.777 170.53C113.297 170.782 112.919 171.118 112.643 171.538C112.367 171.946 112.223 172.384 112.211 172.852H118.403ZM131.766 168.784C132.294 168.784 132.834 168.898 133.386 169.126C133.938 169.342 134.412 169.738 134.808 170.314C135.216 170.878 135.42 171.646 135.42 172.618V178H133.854V172.618C133.854 171.742 133.614 171.118 133.134 170.746C132.654 170.362 132.096 170.17 131.46 170.17C130.944 170.17 130.47 170.32 130.038 170.62C129.618 170.92 129.336 171.412 129.192 172.096C129.204 172.204 129.21 172.378 129.21 172.618V178H127.662V172.618C127.662 171.742 127.416 171.118 126.924 170.746C126.444 170.362 125.886 170.17 125.25 170.17C124.758 170.17 124.296 170.314 123.864 170.602C123.444 170.89 123.156 171.352 123 171.988V178H121.452V169H123V169.936C123.312 169.588 123.69 169.312 124.134 169.108C124.578 168.892 125.052 168.784 125.556 168.784C126.144 168.784 126.738 168.922 127.338 169.198C127.95 169.474 128.424 169.93 128.76 170.566C129.048 170.062 129.456 169.642 129.984 169.306C130.524 168.958 131.118 168.784 131.766 168.784ZM143.143 166.948C142.843 166.948 142.603 166.864 142.423 166.696C142.243 166.528 142.153 166.294 142.153 165.994C142.153 165.706 142.243 165.478 142.423 165.31C142.603 165.13 142.843 165.04 143.143 165.04C143.443 165.04 143.683 165.13 143.863 165.31C144.043 165.478 144.133 165.706 144.133 165.994C144.133 166.294 144.043 166.528 143.863 166.696C143.695 166.864 143.455 166.948 143.143 166.948ZM142.369 178V169H143.917V178H142.369ZM151.274 168.784C152.15 168.784 152.93 168.994 153.614 169.414C154.31 169.822 154.85 170.386 155.234 171.106C155.618 171.826 155.81 172.624 155.81 173.5C155.81 174.388 155.618 175.192 155.234 175.912C154.85 176.62 154.316 177.184 153.632 177.604C152.948 178.012 152.162 178.216 151.274 178.216C150.626 178.216 150.008 178.078 149.42 177.802C148.832 177.526 148.328 177.142 147.908 176.65V181.6H146.36V169H147.908V170.35C148.328 169.858 148.832 169.474 149.42 169.198C150.008 168.922 150.626 168.784 151.274 168.784ZM151.112 176.704C151.7 176.704 152.234 176.566 152.714 176.29C153.194 176.014 153.572 175.63 153.848 175.138C154.124 174.646 154.262 174.1 154.262 173.5C154.262 172.888 154.124 172.342 153.848 171.862C153.572 171.37 153.194 170.986 152.714 170.71C152.234 170.422 151.7 170.278 151.112 170.278C150.524 170.278 149.984 170.422 149.492 170.71C149 170.986 148.61 171.37 148.322 171.862C148.046 172.354 147.908 172.906 147.908 173.518C147.908 174.118 148.046 174.664 148.322 175.156C148.61 175.636 149 176.014 149.492 176.29C149.984 176.566 150.524 176.704 151.112 176.704ZM158.87 171.466C158.87 171.814 159.032 172.066 159.356 172.222C159.692 172.378 160.226 172.546 160.958 172.726C161.666 172.894 162.242 173.062 162.686 173.23C163.142 173.398 163.526 173.662 163.838 174.022C164.162 174.382 164.324 174.868 164.324 175.48C164.324 176.308 163.982 176.974 163.298 177.478C162.614 177.97 161.756 178.216 160.724 178.216C159.8 178.216 159.02 178.036 158.384 177.676C157.748 177.316 157.286 176.812 156.998 176.164L158.276 175.498C158.468 175.978 158.774 176.338 159.194 176.578C159.614 176.806 160.124 176.92 160.724 176.92C161.288 176.92 161.774 176.794 162.182 176.542C162.602 176.29 162.812 175.942 162.812 175.498C162.812 175.222 162.71 174.994 162.506 174.814C162.314 174.634 162.068 174.496 161.768 174.4C161.48 174.304 161.066 174.184 160.526 174.04C159.842 173.872 159.284 173.71 158.852 173.554C158.432 173.386 158.066 173.14 157.754 172.816C157.454 172.492 157.304 172.054 157.304 171.502C157.304 170.974 157.454 170.506 157.754 170.098C158.054 169.678 158.462 169.354 158.978 169.126C159.494 168.898 160.07 168.784 160.706 168.784C161.462 168.784 162.128 168.946 162.704 169.27C163.292 169.594 163.742 170.044 164.054 170.62L162.776 171.268C162.596 170.884 162.332 170.59 161.984 170.386C161.636 170.17 161.21 170.062 160.706 170.062C160.142 170.062 159.692 170.194 159.356 170.458C159.032 170.71 158.87 171.046 158.87 171.466ZM172.042 169H173.59V178H172.042V176.938C171.718 177.322 171.328 177.634 170.872 177.874C170.416 178.102 169.918 178.216 169.378 178.216C168.85 178.216 168.31 178.108 167.758 177.892C167.206 177.664 166.732 177.268 166.336 176.704C165.94 176.128 165.742 175.354 165.742 174.382V169H167.29V174.382C167.29 175.258 167.53 175.888 168.01 176.272C168.502 176.644 169.066 176.83 169.702 176.83C170.326 176.83 170.872 176.614 171.34 176.182C171.808 175.738 172.042 175.018 172.042 174.022V169ZM186.469 168.784C186.997 168.784 187.537 168.898 188.089 169.126C188.641 169.342 189.115 169.738 189.511 170.314C189.919 170.878 190.123 171.646 190.123 172.618V178H188.557V172.618C188.557 171.742 188.317 171.118 187.837 170.746C187.357 170.362 186.799 170.17 186.163 170.17C185.647 170.17 185.173 170.32 184.741 170.62C184.321 170.92 184.039 171.412 183.895 172.096C183.907 172.204 183.913 172.378 183.913 172.618V178H182.365V172.618C182.365 171.742 182.119 171.118 181.627 170.746C181.147 170.362 180.589 170.17 179.953 170.17C179.461 170.17 178.999 170.314 178.567 170.602C178.147 170.89 177.859 171.352 177.703 171.988V178H176.155V169H177.703V169.936C178.015 169.588 178.393 169.312 178.837 169.108C179.281 168.892 179.755 168.784 180.259 168.784C180.847 168.784 181.441 168.922 182.041 169.198C182.653 169.474 183.127 169.93 183.463 170.566C183.751 170.062 184.159 169.642 184.687 169.306C185.227 168.958 185.821 168.784 186.469 168.784ZM204.489 165.4H206.037V178H204.489V176.65C204.069 177.142 203.565 177.532 202.977 177.82C202.401 178.096 201.783 178.234 201.123 178.234C200.247 178.234 199.461 178.03 198.765 177.622C198.069 177.202 197.529 176.632 197.145 175.912C196.761 175.192 196.569 174.394 196.569 173.518C196.569 172.63 196.761 171.832 197.145 171.124C197.529 170.404 198.063 169.84 198.747 169.432C199.443 169.012 200.235 168.802 201.123 168.802C201.783 168.802 202.401 168.946 202.977 169.234C203.565 169.51 204.069 169.894 204.489 170.386V165.4ZM201.285 176.74C201.873 176.74 202.413 176.602 202.905 176.326C203.397 176.038 203.781 175.648 204.057 175.156C204.345 174.664 204.489 174.112 204.489 173.5C204.489 172.9 204.345 172.36 204.057 171.88C203.781 171.388 203.397 171.004 202.905 170.728C202.413 170.452 201.873 170.314 201.285 170.314C200.697 170.314 200.163 170.452 199.683 170.728C199.203 171.004 198.825 171.388 198.549 171.88C198.273 172.372 198.135 172.918 198.135 173.518C198.135 174.13 198.273 174.682 198.549 175.174C198.825 175.654 199.203 176.038 199.683 176.326C200.163 176.602 200.697 176.74 201.285 176.74ZM212.375 178.216C211.523 178.216 210.737 178.006 210.017 177.586C209.297 177.166 208.721 176.596 208.289 175.876C207.869 175.144 207.659 174.352 207.659 173.5C207.659 172.648 207.869 171.862 208.289 171.142C208.721 170.422 209.297 169.852 210.017 169.432C210.737 169.012 211.523 168.802 212.375 168.802C213.227 168.802 214.013 169.012 214.733 169.432C215.453 169.852 216.023 170.422 216.443 171.142C216.875 171.862 217.091 172.648 217.091 173.5C217.091 174.352 216.875 175.144 216.443 175.876C216.023 176.596 215.453 177.166 214.733 177.586C214.013 178.006 213.227 178.216 212.375 178.216ZM212.375 176.668C212.951 176.668 213.479 176.53 213.959 176.254C214.439 175.966 214.817 175.582 215.093 175.102C215.381 174.61 215.525 174.076 215.525 173.5C215.525 172.924 215.381 172.396 215.093 171.916C214.817 171.436 214.439 171.058 213.959 170.782C213.479 170.494 212.951 170.35 212.375 170.35C211.799 170.35 211.265 170.494 210.773 170.782C210.293 171.058 209.909 171.436 209.621 171.916C209.345 172.396 209.207 172.924 209.207 173.5C209.207 174.076 209.345 174.61 209.621 175.102C209.909 175.582 210.293 175.966 210.773 176.254C211.265 176.53 211.799 176.668 212.375 176.668ZM220.26 176.092C220.26 176.296 220.302 176.44 220.386 176.524C220.482 176.596 220.626 176.632 220.818 176.632C220.926 176.632 221.028 176.626 221.124 176.614C221.22 176.602 221.31 176.59 221.394 176.578V178C221.01 178.06 220.686 178.09 220.422 178.09C219.882 178.09 219.462 177.952 219.162 177.676C218.862 177.388 218.712 176.89 218.712 176.182V165.4H220.26V176.092ZM226.701 178.216C225.849 178.216 225.063 178.006 224.343 177.586C223.623 177.166 223.047 176.596 222.615 175.876C222.195 175.144 221.985 174.352 221.985 173.5C221.985 172.648 222.195 171.862 222.615 171.142C223.047 170.422 223.623 169.852 224.343 169.432C225.063 169.012 225.849 168.802 226.701 168.802C227.553 168.802 228.339 169.012 229.059 169.432C229.779 169.852 230.349 170.422 230.769 171.142C231.201 171.862 231.417 172.648 231.417 173.5C231.417 174.352 231.201 175.144 230.769 175.876C230.349 176.596 229.779 177.166 229.059 177.586C228.339 178.006 227.553 178.216 226.701 178.216ZM226.701 176.668C227.277 176.668 227.805 176.53 228.285 176.254C228.765 175.966 229.143 175.582 229.419 175.102C229.707 174.61 229.851 174.076 229.851 173.5C229.851 172.924 229.707 172.396 229.419 171.916C229.143 171.436 228.765 171.058 228.285 170.782C227.805 170.494 227.277 170.35 226.701 170.35C226.125 170.35 225.591 170.494 225.099 170.782C224.619 171.058 224.235 171.436 223.947 171.916C223.671 172.396 223.533 172.924 223.533 173.5C223.533 174.076 223.671 174.61 223.947 175.102C224.235 175.582 224.619 175.966 225.099 176.254C225.591 176.53 226.125 176.668 226.701 176.668ZM237.448 168.802C237.592 168.802 237.7 168.808 237.772 168.82L237.646 170.296C237.502 170.272 237.388 170.26 237.304 170.26C236.536 170.26 235.888 170.494 235.36 170.962C234.844 171.43 234.586 172.108 234.586 172.996V178H233.038V169H234.586V170.548C234.79 170.056 235.138 169.642 235.63 169.306C236.134 168.97 236.74 168.802 237.448 168.802ZM245.319 171.466C245.319 171.814 245.481 172.066 245.805 172.222C246.141 172.378 246.675 172.546 247.407 172.726C248.115 172.894 248.691 173.062 249.135 173.23C249.591 173.398 249.975 173.662 250.287 174.022C250.611 174.382 250.773 174.868 250.773 175.48C250.773 176.308 250.431 176.974 249.747 177.478C249.063 177.97 248.205 178.216 247.173 178.216C246.249 178.216 245.469 178.036 244.833 177.676C244.197 177.316 243.735 176.812 243.447 176.164L244.725 175.498C244.917 175.978 245.223 176.338 245.643 176.578C246.063 176.806 246.573 176.92 247.173 176.92C247.737 176.92 248.223 176.794 248.631 176.542C249.051 176.29 249.261 175.942 249.261 175.498C249.261 175.222 249.159 174.994 248.955 174.814C248.763 174.634 248.517 174.496 248.217 174.4C247.929 174.304 247.515 174.184 246.975 174.04C246.291 173.872 245.733 173.71 245.301 173.554C244.881 173.386 244.515 173.14 244.203 172.816C243.903 172.492 243.753 172.054 243.753 171.502C243.753 170.974 243.903 170.506 244.203 170.098C244.503 169.678 244.911 169.354 245.427 169.126C245.943 168.898 246.519 168.784 247.155 168.784C247.911 168.784 248.577 168.946 249.153 169.27C249.741 169.594 250.191 170.044 250.503 170.62L249.225 171.268C249.045 170.884 248.781 170.59 248.433 170.386C248.085 170.17 247.659 170.062 247.155 170.062C246.591 170.062 246.141 170.194 245.805 170.458C245.481 170.71 245.319 171.046 245.319 171.466ZM253.147 166.948C252.847 166.948 252.607 166.864 252.427 166.696C252.247 166.528 252.157 166.294 252.157 165.994C252.157 165.706 252.247 165.478 252.427 165.31C252.607 165.13 252.847 165.04 253.147 165.04C253.447 165.04 253.687 165.13 253.867 165.31C254.047 165.478 254.137 165.706 254.137 165.994C254.137 166.294 254.047 166.528 253.867 166.696C253.699 166.864 253.459 166.948 253.147 166.948ZM252.373 178V169H253.921V178H252.373ZM259.08 175.192C259.08 175.744 259.182 176.128 259.386 176.344C259.602 176.548 259.944 176.65 260.412 176.65C260.556 176.65 260.856 176.626 261.312 176.578V178C260.796 178.06 260.364 178.09 260.016 178.09C259.164 178.09 258.534 177.886 258.126 177.478C257.73 177.07 257.532 176.338 257.532 175.282V170.422H255.534V169H257.532V166.552L259.08 165.994V169H261.276V170.422H259.08V175.192ZM275.434 169H277V178H275.434V176.65C275.014 177.142 274.51 177.532 273.922 177.82C273.346 178.096 272.728 178.234 272.068 178.234C271.192 178.234 270.406 178.03 269.71 177.622C269.014 177.202 268.474 176.632 268.09 175.912C267.706 175.192 267.514 174.394 267.514 173.518C267.514 172.63 267.706 171.832 268.09 171.124C268.474 170.404 269.008 169.84 269.692 169.432C270.388 169.012 271.18 168.802 272.068 168.802C272.728 168.802 273.346 168.946 273.922 169.234C274.51 169.51 275.014 169.894 275.434 170.386V169ZM272.23 176.74C272.818 176.74 273.358 176.602 273.85 176.326C274.342 176.038 274.726 175.648 275.002 175.156C275.29 174.664 275.434 174.112 275.434 173.5C275.434 172.9 275.29 172.36 275.002 171.88C274.726 171.388 274.342 171.004 273.85 170.728C273.358 170.452 272.818 170.314 272.23 170.314C271.642 170.314 271.108 170.452 270.628 170.728C270.148 171.004 269.77 171.388 269.494 171.88C269.218 172.372 269.08 172.918 269.08 173.518C269.08 174.13 269.218 174.682 269.494 175.174C269.77 175.654 270.148 176.038 270.628 176.326C271.108 176.602 271.642 176.74 272.23 176.74ZM289.846 168.784C290.374 168.784 290.914 168.898 291.466 169.126C292.018 169.342 292.492 169.738 292.888 170.314C293.296 170.878 293.5 171.646 293.5 172.618V178H291.934V172.618C291.934 171.742 291.694 171.118 291.214 170.746C290.734 170.362 290.176 170.17 289.54 170.17C289.024 170.17 288.55 170.32 288.118 170.62C287.698 170.92 287.416 171.412 287.272 172.096C287.284 172.204 287.29 172.378 287.29 172.618V178H285.742V172.618C285.742 171.742 285.496 171.118 285.004 170.746C284.524 170.362 283.966 170.17 283.33 170.17C282.838 170.17 282.376 170.314 281.944 170.602C281.524 170.89 281.236 171.352 281.08 171.988V178H279.532V169H281.08V169.936C281.392 169.588 281.77 169.312 282.214 169.108C282.658 168.892 283.132 168.784 283.636 168.784C284.224 168.784 284.818 168.922 285.418 169.198C286.03 169.474 286.504 169.93 286.84 170.566C287.128 170.062 287.536 169.642 288.064 169.306C288.604 168.958 289.198 168.784 289.846 168.784ZM299.615 168.784C300.491 168.784 301.271 169 301.955 169.432C302.639 169.852 303.167 170.428 303.539 171.16C303.923 171.88 304.115 172.666 304.115 173.518C304.115 173.614 304.109 173.722 304.097 173.842C304.085 173.95 304.073 174.04 304.061 174.112H296.483C296.603 174.916 296.951 175.576 297.527 176.092C298.115 176.596 298.859 176.848 299.759 176.848C300.311 176.848 300.833 176.722 301.325 176.47C301.829 176.218 302.201 175.906 302.441 175.534L303.665 176.254C303.269 176.878 302.729 177.364 302.045 177.712C301.373 178.048 300.605 178.216 299.741 178.216C298.793 178.216 297.953 178.012 297.221 177.604C296.489 177.196 295.919 176.638 295.511 175.93C295.103 175.21 294.899 174.4 294.899 173.5C294.899 172.612 295.097 171.814 295.493 171.106C295.901 170.386 296.459 169.822 297.167 169.414C297.887 168.994 298.703 168.784 299.615 168.784ZM302.639 172.852C302.519 172.012 302.195 171.352 301.667 170.872C301.139 170.392 300.455 170.152 299.615 170.152C299.027 170.152 298.493 170.278 298.013 170.53C297.533 170.782 297.155 171.118 296.879 171.538C296.603 171.946 296.459 172.384 296.447 172.852H302.639ZM308.211 175.192C308.211 175.744 308.313 176.128 308.517 176.344C308.733 176.548 309.075 176.65 309.543 176.65C309.687 176.65 309.987 176.626 310.443 176.578V178C309.927 178.06 309.495 178.09 309.147 178.09C308.295 178.09 307.665 177.886 307.257 177.478C306.861 177.07 306.663 176.338 306.663 175.282V170.422H304.665V169H306.663V166.552L308.211 165.994V169H310.407V170.422H308.211V175.192ZM313.12 178.144C312.82 178.096 312.61 178 312.49 177.856C312.382 177.712 312.328 177.472 312.328 177.136C312.328 176.8 312.418 176.542 312.598 176.362C312.79 176.182 313.042 176.092 313.354 176.092C313.678 176.092 313.936 176.194 314.128 176.398C314.32 176.59 314.416 176.848 314.416 177.172C314.404 177.544 314.35 177.862 314.254 178.126C314.158 178.39 313.978 178.732 313.714 179.152L313.012 180.214L312.418 179.728L313.12 178.144ZM329.359 176.254C328.927 176.854 328.375 177.334 327.703 177.694C327.043 178.042 326.323 178.216 325.543 178.216C324.691 178.216 323.905 178.006 323.185 177.586C322.465 177.166 321.889 176.596 321.457 175.876C321.037 175.144 320.827 174.352 320.827 173.5C320.827 172.648 321.037 171.862 321.457 171.142C321.889 170.422 322.465 169.852 323.185 169.432C323.905 169.012 324.691 168.802 325.543 168.802C326.311 168.802 327.025 168.976 327.685 169.324C328.345 169.672 328.897 170.14 329.341 170.728L328.063 171.592C327.751 171.196 327.379 170.89 326.947 170.674C326.515 170.458 326.047 170.35 325.543 170.35C324.967 170.35 324.439 170.494 323.959 170.782C323.479 171.058 323.095 171.436 322.807 171.916C322.531 172.396 322.393 172.924 322.393 173.5C322.393 174.076 322.531 174.61 322.807 175.102C323.095 175.582 323.479 175.966 323.959 176.254C324.439 176.53 324.967 176.668 325.543 176.668C326.047 176.668 326.515 176.56 326.947 176.344C327.391 176.116 327.763 175.804 328.063 175.408L329.359 176.254ZM334.895 178.216C334.043 178.216 333.257 178.006 332.537 177.586C331.817 177.166 331.241 176.596 330.809 175.876C330.389 175.144 330.179 174.352 330.179 173.5C330.179 172.648 330.389 171.862 330.809 171.142C331.241 170.422 331.817 169.852 332.537 169.432C333.257 169.012 334.043 168.802 334.895 168.802C335.747 168.802 336.533 169.012 337.253 169.432C337.973 169.852 338.543 170.422 338.963 171.142C339.395 171.862 339.611 172.648 339.611 173.5C339.611 174.352 339.395 175.144 338.963 175.876C338.543 176.596 337.973 177.166 337.253 177.586C336.533 178.006 335.747 178.216 334.895 178.216ZM334.895 176.668C335.471 176.668 335.999 176.53 336.479 176.254C336.959 175.966 337.337 175.582 337.613 175.102C337.901 174.61 338.045 174.076 338.045 173.5C338.045 172.924 337.901 172.396 337.613 171.916C337.337 171.436 336.959 171.058 336.479 170.782C335.999 170.494 335.471 170.35 334.895 170.35C334.319 170.35 333.785 170.494 333.293 170.782C332.813 171.058 332.429 171.436 332.141 171.916C331.865 172.396 331.727 172.924 331.727 173.5C331.727 174.076 331.865 174.61 332.141 175.102C332.429 175.582 332.813 175.966 333.293 176.254C333.785 176.53 334.319 176.668 334.895 176.668ZM345.443 168.784C345.971 168.784 346.511 168.898 347.063 169.126C347.615 169.342 348.089 169.738 348.485 170.314C348.881 170.878 349.079 171.646 349.079 172.618V178H347.531V172.618C347.531 171.742 347.291 171.118 346.811 170.746C346.331 170.362 345.767 170.17 345.119 170.17C344.495 170.17 343.949 170.392 343.481 170.836C343.013 171.268 342.779 171.982 342.779 172.978V178H341.231V169H342.779V170.062C343.103 169.678 343.493 169.372 343.949 169.144C344.405 168.904 344.903 168.784 345.443 168.784ZM352.317 171.466C352.317 171.814 352.479 172.066 352.803 172.222C353.139 172.378 353.673 172.546 354.405 172.726C355.113 172.894 355.689 173.062 356.133 173.23C356.589 173.398 356.973 173.662 357.285 174.022C357.609 174.382 357.771 174.868 357.771 175.48C357.771 176.308 357.429 176.974 356.745 177.478C356.061 177.97 355.203 178.216 354.171 178.216C353.247 178.216 352.467 178.036 351.831 177.676C351.195 177.316 350.733 176.812 350.445 176.164L351.723 175.498C351.915 175.978 352.221 176.338 352.641 176.578C353.061 176.806 353.571 176.92 354.171 176.92C354.735 176.92 355.221 176.794 355.629 176.542C356.049 176.29 356.259 175.942 356.259 175.498C356.259 175.222 356.157 174.994 355.953 174.814C355.761 174.634 355.515 174.496 355.215 174.4C354.927 174.304 354.513 174.184 353.973 174.04C353.289 173.872 352.731 173.71 352.299 173.554C351.879 173.386 351.513 173.14 351.201 172.816C350.901 172.492 350.751 172.054 350.751 171.502C350.751 170.974 350.901 170.506 351.201 170.098C351.501 169.678 351.909 169.354 352.425 169.126C352.941 168.898 353.517 168.784 354.153 168.784C354.909 168.784 355.575 168.946 356.151 169.27C356.739 169.594 357.189 170.044 357.501 170.62L356.223 171.268C356.043 170.884 355.779 170.59 355.431 170.386C355.083 170.17 354.657 170.062 354.153 170.062C353.589 170.062 353.139 170.194 352.803 170.458C352.479 170.71 352.317 171.046 352.317 171.466ZM363.529 168.784C364.405 168.784 365.185 169 365.869 169.432C366.553 169.852 367.081 170.428 367.453 171.16C367.837 171.88 368.029 172.666 368.029 173.518C368.029 173.614 368.023 173.722 368.011 173.842C367.999 173.95 367.987 174.04 367.975 174.112H360.397C360.517 174.916 360.865 175.576 361.441 176.092C362.029 176.596 362.773 176.848 363.673 176.848C364.225 176.848 364.747 176.722 365.239 176.47C365.743 176.218 366.115 175.906 366.355 175.534L367.579 176.254C367.183 176.878 366.643 177.364 365.959 177.712C365.287 178.048 364.519 178.216 363.655 178.216C362.707 178.216 361.867 178.012 361.135 177.604C360.403 177.196 359.833 176.638 359.425 175.93C359.017 175.21 358.813 174.4 358.813 173.5C358.813 172.612 359.011 171.814 359.407 171.106C359.815 170.386 360.373 169.822 361.081 169.414C361.801 168.994 362.617 168.784 363.529 168.784ZM366.553 172.852C366.433 172.012 366.109 171.352 365.581 170.872C365.053 170.392 364.369 170.152 363.529 170.152C362.941 170.152 362.407 170.278 361.927 170.53C361.447 170.782 361.069 171.118 360.793 171.538C360.517 171.946 360.373 172.384 360.361 172.852H366.553ZM377.558 176.254C377.126 176.854 376.574 177.334 375.902 177.694C375.242 178.042 374.522 178.216 373.742 178.216C372.89 178.216 372.104 178.006 371.384 177.586C370.664 177.166 370.088 176.596 369.656 175.876C369.236 175.144 369.026 174.352 369.026 173.5C369.026 172.648 369.236 171.862 369.656 171.142C370.088 170.422 370.664 169.852 371.384 169.432C372.104 169.012 372.89 168.802 373.742 168.802C374.51 168.802 375.224 168.976 375.884 169.324C376.544 169.672 377.096 170.14 377.54 170.728L376.262 171.592C375.95 171.196 375.578 170.89 375.146 170.674C374.714 170.458 374.246 170.35 373.742 170.35C373.166 170.35 372.638 170.494 372.158 170.782C371.678 171.058 371.294 171.436 371.006 171.916C370.73 172.396 370.592 172.924 370.592 173.5C370.592 174.076 370.73 174.61 371.006 175.102C371.294 175.582 371.678 175.966 372.158 176.254C372.638 176.53 373.166 176.668 373.742 176.668C374.246 176.668 374.714 176.56 375.146 176.344C375.59 176.116 375.962 175.804 376.262 175.408L377.558 176.254ZM381.723 175.192C381.723 175.744 381.825 176.128 382.029 176.344C382.245 176.548 382.587 176.65 383.055 176.65C383.199 176.65 383.499 176.626 383.955 176.578V178C383.439 178.06 383.007 178.09 382.659 178.09C381.807 178.09 381.177 177.886 380.769 177.478C380.373 177.07 380.175 176.338 380.175 175.282V170.422H378.177V169H380.175V166.552L381.723 165.994V169H383.919V170.422H381.723V175.192ZM389.58 168.784C390.456 168.784 391.236 169 391.92 169.432C392.604 169.852 393.132 170.428 393.504 171.16C393.888 171.88 394.08 172.666 394.08 173.518C394.08 173.614 394.074 173.722 394.062 173.842C394.05 173.95 394.038 174.04 394.026 174.112H386.448C386.568 174.916 386.916 175.576 387.492 176.092C388.08 176.596 388.824 176.848 389.724 176.848C390.276 176.848 390.798 176.722 391.29 176.47C391.794 176.218 392.166 175.906 392.406 175.534L393.63 176.254C393.234 176.878 392.694 177.364 392.01 177.712C391.338 178.048 390.57 178.216 389.706 178.216C388.758 178.216 387.918 178.012 387.186 177.604C386.454 177.196 385.884 176.638 385.476 175.93C385.068 175.21 384.864 174.4 384.864 173.5C384.864 172.612 385.062 171.814 385.458 171.106C385.866 170.386 386.424 169.822 387.132 169.414C387.852 168.994 388.668 168.784 389.58 168.784ZM392.604 172.852C392.484 172.012 392.16 171.352 391.632 170.872C391.104 170.392 390.42 170.152 389.58 170.152C388.992 170.152 388.458 170.278 387.978 170.53C387.498 170.782 387.12 171.118 386.844 171.538C386.568 171.946 386.424 172.384 386.412 172.852H392.604ZM93.676 199H95.242V208H93.676V206.65C93.256 207.142 92.752 207.532 92.164 207.82C91.588 208.096 90.97 208.234 90.31 208.234C89.434 208.234 88.648 208.03 87.952 207.622C87.256 207.202 86.716 206.632 86.332 205.912C85.948 205.192 85.756 204.394 85.756 203.518C85.756 202.63 85.948 201.832 86.332 201.124C86.716 200.404 87.25 199.84 87.934 199.432C88.63 199.012 89.422 198.802 90.31 198.802C90.97 198.802 91.588 198.946 92.164 199.234C92.752 199.51 93.256 199.894 93.676 200.386V199ZM90.472 206.74C91.06 206.74 91.6 206.602 92.092 206.326C92.584 206.038 92.968 205.648 93.244 205.156C93.532 204.664 93.676 204.112 93.676 203.5C93.676 202.9 93.532 202.36 93.244 201.88C92.968 201.388 92.584 201.004 92.092 200.728C91.6 200.452 91.06 200.314 90.472 200.314C89.884 200.314 89.35 200.452 88.87 200.728C88.39 201.004 88.012 201.388 87.736 201.88C87.46 202.372 87.322 202.918 87.322 203.518C87.322 204.13 87.46 204.682 87.736 205.174C88.012 205.654 88.39 206.038 88.87 206.326C89.35 206.602 89.884 206.74 90.472 206.74ZM104.821 195.4H106.369V208H104.821V206.65C104.401 207.142 103.897 207.532 103.309 207.82C102.733 208.096 102.115 208.234 101.455 208.234C100.579 208.234 99.7925 208.03 99.0965 207.622C98.4005 207.202 97.8605 206.632 97.4765 205.912C97.0925 205.192 96.9005 204.394 96.9005 203.518C96.9005 202.63 97.0925 201.832 97.4765 201.124C97.8605 200.404 98.3945 199.84 99.0785 199.432C99.7745 199.012 100.567 198.802 101.455 198.802C102.115 198.802 102.733 198.946 103.309 199.234C103.897 199.51 104.401 199.894 104.821 200.386V195.4ZM101.617 206.74C102.205 206.74 102.745 206.602 103.237 206.326C103.729 206.038 104.113 205.648 104.389 205.156C104.677 204.664 104.821 204.112 104.821 203.5C104.821 202.9 104.677 202.36 104.389 201.88C104.113 201.388 103.729 201.004 103.237 200.728C102.745 200.452 102.205 200.314 101.617 200.314C101.029 200.314 100.495 200.452 100.015 200.728C99.5345 201.004 99.1565 201.388 98.8805 201.88C98.6045 202.372 98.4665 202.918 98.4665 203.518C98.4665 204.13 98.6045 204.682 98.8805 205.174C99.1565 205.654 99.5345 206.038 100.015 206.326C100.495 206.602 101.029 206.74 101.617 206.74ZM109.675 196.948C109.375 196.948 109.135 196.864 108.955 196.696C108.775 196.528 108.685 196.294 108.685 195.994C108.685 195.706 108.775 195.478 108.955 195.31C109.135 195.13 109.375 195.04 109.675 195.04C109.975 195.04 110.215 195.13 110.395 195.31C110.575 195.478 110.665 195.706 110.665 195.994C110.665 196.294 110.575 196.528 110.395 196.696C110.227 196.864 109.987 196.948 109.675 196.948ZM108.901 208V199H110.449V208H108.901ZM117.805 198.784C118.681 198.784 119.461 198.994 120.145 199.414C120.841 199.822 121.381 200.386 121.765 201.106C122.149 201.826 122.341 202.624 122.341 203.5C122.341 204.388 122.149 205.192 121.765 205.912C121.381 206.62 120.847 207.184 120.163 207.604C119.479 208.012 118.693 208.216 117.805 208.216C117.157 208.216 116.539 208.078 115.951 207.802C115.363 207.526 114.859 207.142 114.439 206.65V211.6H112.891V199H114.439V200.35C114.859 199.858 115.363 199.474 115.951 199.198C116.539 198.922 117.157 198.784 117.805 198.784ZM117.643 206.704C118.231 206.704 118.765 206.566 119.245 206.29C119.725 206.014 120.103 205.63 120.379 205.138C120.655 204.646 120.793 204.1 120.793 203.5C120.793 202.888 120.655 202.342 120.379 201.862C120.103 201.37 119.725 200.986 119.245 200.71C118.765 200.422 118.231 200.278 117.643 200.278C117.055 200.278 116.515 200.422 116.023 200.71C115.531 200.986 115.141 201.37 114.853 201.862C114.577 202.354 114.439 202.906 114.439 203.518C114.439 204.118 114.577 204.664 114.853 205.156C115.141 205.636 115.531 206.014 116.023 206.29C116.515 206.566 117.055 206.704 117.643 206.704ZM124.95 196.948C124.65 196.948 124.41 196.864 124.23 196.696C124.05 196.528 123.96 196.294 123.96 195.994C123.96 195.706 124.05 195.478 124.23 195.31C124.41 195.13 124.65 195.04 124.95 195.04C125.25 195.04 125.49 195.13 125.67 195.31C125.85 195.478 125.94 195.706 125.94 195.994C125.94 196.294 125.85 196.528 125.67 196.696C125.502 196.864 125.262 196.948 124.95 196.948ZM124.176 208V199H125.724V208H124.176ZM129.127 201.466C129.127 201.814 129.289 202.066 129.613 202.222C129.949 202.378 130.483 202.546 131.215 202.726C131.923 202.894 132.499 203.062 132.943 203.23C133.399 203.398 133.783 203.662 134.095 204.022C134.419 204.382 134.581 204.868 134.581 205.48C134.581 206.308 134.239 206.974 133.555 207.478C132.871 207.97 132.013 208.216 130.981 208.216C130.057 208.216 129.277 208.036 128.641 207.676C128.005 207.316 127.543 206.812 127.255 206.164L128.533 205.498C128.725 205.978 129.031 206.338 129.451 206.578C129.871 206.806 130.381 206.92 130.981 206.92C131.545 206.92 132.031 206.794 132.439 206.542C132.859 206.29 133.069 205.942 133.069 205.498C133.069 205.222 132.967 204.994 132.763 204.814C132.571 204.634 132.325 204.496 132.025 204.4C131.737 204.304 131.323 204.184 130.783 204.04C130.099 203.872 129.541 203.71 129.109 203.554C128.689 203.386 128.323 203.14 128.011 202.816C127.711 202.492 127.561 202.054 127.561 201.502C127.561 200.974 127.711 200.506 128.011 200.098C128.311 199.678 128.719 199.354 129.235 199.126C129.751 198.898 130.327 198.784 130.963 198.784C131.719 198.784 132.385 198.946 132.961 199.27C133.549 199.594 133.999 200.044 134.311 200.62L133.033 201.268C132.853 200.884 132.589 200.59 132.241 200.386C131.893 200.17 131.467 200.062 130.963 200.062C130.399 200.062 129.949 200.194 129.613 200.458C129.289 200.71 129.127 201.046 129.127 201.466ZM144.226 206.254C143.794 206.854 143.242 207.334 142.57 207.694C141.91 208.042 141.19 208.216 140.41 208.216C139.558 208.216 138.772 208.006 138.052 207.586C137.332 207.166 136.756 206.596 136.324 205.876C135.904 205.144 135.694 204.352 135.694 203.5C135.694 202.648 135.904 201.862 136.324 201.142C136.756 200.422 137.332 199.852 138.052 199.432C138.772 199.012 139.558 198.802 140.41 198.802C141.178 198.802 141.892 198.976 142.552 199.324C143.212 199.672 143.764 200.14 144.208 200.728L142.93 201.592C142.618 201.196 142.246 200.89 141.814 200.674C141.382 200.458 140.914 200.35 140.41 200.35C139.834 200.35 139.306 200.494 138.826 200.782C138.346 201.058 137.962 201.436 137.674 201.916C137.398 202.396 137.26 202.924 137.26 203.5C137.26 204.076 137.398 204.61 137.674 205.102C137.962 205.582 138.346 205.966 138.826 206.254C139.306 206.53 139.834 206.668 140.41 206.668C140.914 206.668 141.382 206.56 141.814 206.344C142.258 206.116 142.63 205.804 142.93 205.408L144.226 206.254ZM146.554 196.948C146.254 196.948 146.014 196.864 145.834 196.696C145.654 196.528 145.564 196.294 145.564 195.994C145.564 195.706 145.654 195.478 145.834 195.31C146.014 195.13 146.254 195.04 146.554 195.04C146.854 195.04 147.094 195.13 147.274 195.31C147.454 195.478 147.544 195.706 147.544 195.994C147.544 196.294 147.454 196.528 147.274 196.696C147.106 196.864 146.866 196.948 146.554 196.948ZM145.78 208V199H147.328V208H145.78ZM153.982 198.784C154.51 198.784 155.05 198.898 155.602 199.126C156.154 199.342 156.628 199.738 157.024 200.314C157.42 200.878 157.618 201.646 157.618 202.618V208H156.07V202.618C156.07 201.742 155.83 201.118 155.35 200.746C154.87 200.362 154.306 200.17 153.658 200.17C153.034 200.17 152.488 200.392 152.02 200.836C151.552 201.268 151.318 201.982 151.318 202.978V208H149.77V199H151.318V200.062C151.642 199.678 152.032 199.372 152.488 199.144C152.944 198.904 153.442 198.784 153.982 198.784ZM167.066 199H168.614V207.568C168.614 208.42 168.404 209.164 167.984 209.8C167.576 210.448 167.012 210.946 166.292 211.294C165.572 211.642 164.762 211.816 163.862 211.816C162.818 211.816 161.894 211.618 161.09 211.222C160.286 210.838 159.716 210.316 159.38 209.656L160.712 208.882C160.916 209.302 161.288 209.656 161.828 209.944C162.38 210.232 163.064 210.376 163.88 210.376C164.804 210.376 165.566 210.118 166.166 209.602C166.766 209.086 167.066 208.408 167.066 207.568V206.668C166.646 207.16 166.142 207.544 165.554 207.82C164.966 208.096 164.348 208.234 163.7 208.234C162.824 208.234 162.038 208.03 161.342 207.622C160.658 207.202 160.124 206.632 159.74 205.912C159.356 205.192 159.164 204.394 159.164 203.518C159.164 202.63 159.356 201.832 159.74 201.124C160.124 200.404 160.658 199.84 161.342 199.432C162.026 199.012 162.812 198.802 163.7 198.802C164.348 198.802 164.966 198.94 165.554 199.216C166.142 199.492 166.646 199.876 167.066 200.368V199ZM163.862 206.74C164.45 206.74 164.99 206.602 165.482 206.326C165.974 206.038 166.358 205.648 166.634 205.156C166.922 204.664 167.066 204.112 167.066 203.5C167.066 202.9 166.922 202.36 166.634 201.88C166.358 201.388 165.974 201.004 165.482 200.728C164.99 200.452 164.45 200.314 163.862 200.314C163.274 200.314 162.74 200.452 162.26 200.728C161.78 201.004 161.402 201.388 161.126 201.88C160.85 202.372 160.712 202.918 160.712 203.518C160.712 204.13 160.85 204.682 161.126 205.174C161.402 205.654 161.78 206.038 162.26 206.326C162.74 206.602 163.274 206.74 163.862 206.74ZM179.943 198.784C180.819 198.784 181.599 199 182.283 199.432C182.967 199.852 183.495 200.428 183.867 201.16C184.251 201.88 184.443 202.666 184.443 203.518C184.443 203.614 184.437 203.722 184.425 203.842C184.413 203.95 184.401 204.04 184.389 204.112H176.811C176.931 204.916 177.279 205.576 177.855 206.092C178.443 206.596 179.187 206.848 180.087 206.848C180.639 206.848 181.161 206.722 181.653 206.47C182.157 206.218 182.529 205.906 182.769 205.534L183.993 206.254C183.597 206.878 183.057 207.364 182.373 207.712C181.701 208.048 180.933 208.216 180.069 208.216C179.121 208.216 178.281 208.012 177.549 207.604C176.817 207.196 176.247 206.638 175.839 205.93C175.431 205.21 175.227 204.4 175.227 203.5C175.227 202.612 175.425 201.814 175.821 201.106C176.229 200.386 176.787 199.822 177.495 199.414C178.215 198.994 179.031 198.784 179.943 198.784ZM182.967 202.852C182.847 202.012 182.523 201.352 181.995 200.872C181.467 200.392 180.783 200.152 179.943 200.152C179.355 200.152 178.821 200.278 178.341 200.53C177.861 200.782 177.483 201.118 177.207 201.538C176.931 201.946 176.787 202.384 176.775 202.852H182.967ZM187.564 206.092C187.564 206.296 187.606 206.44 187.69 206.524C187.786 206.596 187.93 206.632 188.122 206.632C188.23 206.632 188.332 206.626 188.428 206.614C188.524 206.602 188.614 206.59 188.698 206.578V208C188.314 208.06 187.99 208.09 187.726 208.09C187.186 208.09 186.766 207.952 186.466 207.676C186.166 207.388 186.016 206.89 186.016 206.182V195.4H187.564V206.092ZM191.272 196.948C190.972 196.948 190.732 196.864 190.552 196.696C190.372 196.528 190.282 196.294 190.282 195.994C190.282 195.706 190.372 195.478 190.552 195.31C190.732 195.13 190.972 195.04 191.272 195.04C191.572 195.04 191.812 195.13 191.992 195.31C192.172 195.478 192.262 195.706 192.262 195.994C192.262 196.294 192.172 196.528 191.992 196.696C191.824 196.864 191.584 196.948 191.272 196.948ZM190.498 208V199H192.046V208H190.498ZM197.205 205.192C197.205 205.744 197.307 206.128 197.511 206.344C197.727 206.548 198.069 206.65 198.537 206.65C198.681 206.65 198.981 206.626 199.437 206.578V208C198.921 208.06 198.489 208.09 198.141 208.09C197.289 208.09 196.659 207.886 196.251 207.478C195.855 207.07 195.657 206.338 195.657 205.282V200.422H193.659V199H195.657V196.552L197.205 195.994V199H199.401V200.422H197.205V205.192ZM202.114 208.144C201.814 208.096 201.604 208 201.484 207.856C201.376 207.712 201.322 207.472 201.322 207.136C201.322 206.8 201.412 206.542 201.592 206.362C201.784 206.182 202.036 206.092 202.348 206.092C202.672 206.092 202.93 206.194 203.122 206.398C203.314 206.59 203.41 206.848 203.41 207.172C203.398 207.544 203.344 207.862 203.248 208.126C203.152 208.39 202.972 208.732 202.708 209.152L202.006 210.214L201.412 209.728L202.114 208.144ZM211.639 201.466C211.639 201.814 211.801 202.066 212.125 202.222C212.461 202.378 212.995 202.546 213.727 202.726C214.435 202.894 215.011 203.062 215.455 203.23C215.911 203.398 216.295 203.662 216.607 204.022C216.931 204.382 217.093 204.868 217.093 205.48C217.093 206.308 216.751 206.974 216.067 207.478C215.383 207.97 214.525 208.216 213.493 208.216C212.569 208.216 211.789 208.036 211.153 207.676C210.517 207.316 210.055 206.812 209.767 206.164L211.045 205.498C211.237 205.978 211.543 206.338 211.963 206.578C212.383 206.806 212.893 206.92 213.493 206.92C214.057 206.92 214.543 206.794 214.951 206.542C215.371 206.29 215.581 205.942 215.581 205.498C215.581 205.222 215.479 204.994 215.275 204.814C215.083 204.634 214.837 204.496 214.537 204.4C214.249 204.304 213.835 204.184 213.295 204.04C212.611 203.872 212.053 203.71 211.621 203.554C211.201 203.386 210.835 203.14 210.523 202.816C210.223 202.492 210.073 202.054 210.073 201.502C210.073 200.974 210.223 200.506 210.523 200.098C210.823 199.678 211.231 199.354 211.747 199.126C212.263 198.898 212.839 198.784 213.475 198.784C214.231 198.784 214.897 198.946 215.473 199.27C216.061 199.594 216.511 200.044 216.823 200.62L215.545 201.268C215.365 200.884 215.101 200.59 214.753 200.386C214.405 200.17 213.979 200.062 213.475 200.062C212.911 200.062 212.461 200.194 212.125 200.458C211.801 200.71 211.639 201.046 211.639 201.466ZM222.852 198.784C223.728 198.784 224.508 199 225.192 199.432C225.876 199.852 226.404 200.428 226.776 201.16C227.16 201.88 227.352 202.666 227.352 203.518C227.352 203.614 227.346 203.722 227.334 203.842C227.322 203.95 227.31 204.04 227.298 204.112H219.72C219.84 204.916 220.188 205.576 220.764 206.092C221.352 206.596 222.096 206.848 222.996 206.848C223.548 206.848 224.07 206.722 224.562 206.47C225.066 206.218 225.438 205.906 225.678 205.534L226.902 206.254C226.506 206.878 225.966 207.364 225.282 207.712C224.61 208.048 223.842 208.216 222.978 208.216C222.03 208.216 221.19 208.012 220.458 207.604C219.726 207.196 219.156 206.638 218.748 205.93C218.34 205.21 218.136 204.4 218.136 203.5C218.136 202.612 218.334 201.814 218.73 201.106C219.138 200.386 219.696 199.822 220.404 199.414C221.124 198.994 221.94 198.784 222.852 198.784ZM225.876 202.852C225.756 202.012 225.432 201.352 224.904 200.872C224.376 200.392 223.692 200.152 222.852 200.152C222.264 200.152 221.73 200.278 221.25 200.53C220.77 200.782 220.392 201.118 220.116 201.538C219.84 201.946 219.696 202.384 219.684 202.852H225.876ZM236.322 195.4H237.87V208H236.322V206.65C235.902 207.142 235.398 207.532 234.81 207.82C234.234 208.096 233.616 208.234 232.956 208.234C232.08 208.234 231.294 208.03 230.598 207.622C229.902 207.202 229.362 206.632 228.978 205.912C228.594 205.192 228.402 204.394 228.402 203.518C228.402 202.63 228.594 201.832 228.978 201.124C229.362 200.404 229.896 199.84 230.58 199.432C231.276 199.012 232.068 198.802 232.956 198.802C233.616 198.802 234.234 198.946 234.81 199.234C235.398 199.51 235.902 199.894 236.322 200.386V195.4ZM233.118 206.74C233.706 206.74 234.246 206.602 234.738 206.326C235.23 206.038 235.614 205.648 235.89 205.156C236.178 204.664 236.322 204.112 236.322 203.5C236.322 202.9 236.178 202.36 235.89 201.88C235.614 201.388 235.23 201.004 234.738 200.728C234.246 200.452 233.706 200.314 233.118 200.314C232.53 200.314 231.996 200.452 231.516 200.728C231.036 201.004 230.658 201.388 230.382 201.88C230.106 202.372 229.968 202.918 229.968 203.518C229.968 204.13 230.106 204.682 230.382 205.174C230.658 205.654 231.036 206.038 231.516 206.326C231.996 206.602 232.53 206.74 233.118 206.74ZM252.459 195.4H254.007V208H252.459V206.65C252.039 207.142 251.535 207.532 250.947 207.82C250.371 208.096 249.753 208.234 249.093 208.234C248.217 208.234 247.431 208.03 246.735 207.622C246.039 207.202 245.499 206.632 245.115 205.912C244.731 205.192 244.539 204.394 244.539 203.518C244.539 202.63 244.731 201.832 245.115 201.124C245.499 200.404 246.033 199.84 246.717 199.432C247.413 199.012 248.205 198.802 249.093 198.802C249.753 198.802 250.371 198.946 250.947 199.234C251.535 199.51 252.039 199.894 252.459 200.386V195.4ZM249.255 206.74C249.843 206.74 250.383 206.602 250.875 206.326C251.367 206.038 251.751 205.648 252.027 205.156C252.315 204.664 252.459 204.112 252.459 203.5C252.459 202.9 252.315 202.36 252.027 201.88C251.751 201.388 251.367 201.004 250.875 200.728C250.383 200.452 249.843 200.314 249.255 200.314C248.667 200.314 248.133 200.452 247.653 200.728C247.173 201.004 246.795 201.388 246.519 201.88C246.243 202.372 246.105 202.918 246.105 203.518C246.105 204.13 246.243 204.682 246.519 205.174C246.795 205.654 247.173 206.038 247.653 206.326C248.133 206.602 248.667 206.74 249.255 206.74ZM260.346 208.216C259.494 208.216 258.708 208.006 257.988 207.586C257.268 207.166 256.692 206.596 256.26 205.876C255.84 205.144 255.63 204.352 255.63 203.5C255.63 202.648 255.84 201.862 256.26 201.142C256.692 200.422 257.268 199.852 257.988 199.432C258.708 199.012 259.494 198.802 260.346 198.802C261.198 198.802 261.984 199.012 262.704 199.432C263.424 199.852 263.994 200.422 264.414 201.142C264.846 201.862 265.062 202.648 265.062 203.5C265.062 204.352 264.846 205.144 264.414 205.876C263.994 206.596 263.424 207.166 262.704 207.586C261.984 208.006 261.198 208.216 260.346 208.216ZM260.346 206.668C260.922 206.668 261.45 206.53 261.93 206.254C262.41 205.966 262.788 205.582 263.064 205.102C263.352 204.61 263.496 204.076 263.496 203.5C263.496 202.924 263.352 202.396 263.064 201.916C262.788 201.436 262.41 201.058 261.93 200.782C261.45 200.494 260.922 200.35 260.346 200.35C259.77 200.35 259.236 200.494 258.744 200.782C258.264 201.058 257.88 201.436 257.592 201.916C257.316 202.396 257.178 202.924 257.178 203.5C257.178 204.076 257.316 204.61 257.592 205.102C257.88 205.582 258.264 205.966 258.744 206.254C259.236 206.53 259.77 206.668 260.346 206.668ZM275.814 198.784C276.69 198.784 277.47 199 278.154 199.432C278.838 199.852 279.366 200.428 279.738 201.16C280.122 201.88 280.314 202.666 280.314 203.518C280.314 203.614 280.308 203.722 280.296 203.842C280.284 203.95 280.272 204.04 280.26 204.112H272.682C272.802 204.916 273.15 205.576 273.726 206.092C274.314 206.596 275.058 206.848 275.958 206.848C276.51 206.848 277.032 206.722 277.524 206.47C278.028 206.218 278.4 205.906 278.64 205.534L279.864 206.254C279.468 206.878 278.928 207.364 278.244 207.712C277.572 208.048 276.804 208.216 275.94 208.216C274.992 208.216 274.152 208.012 273.42 207.604C272.688 207.196 272.118 206.638 271.71 205.93C271.302 205.21 271.098 204.4 271.098 203.5C271.098 202.612 271.296 201.814 271.692 201.106C272.1 200.386 272.658 199.822 273.366 199.414C274.086 198.994 274.902 198.784 275.814 198.784ZM278.838 202.852C278.718 202.012 278.394 201.352 277.866 200.872C277.338 200.392 276.654 200.152 275.814 200.152C275.226 200.152 274.692 200.278 274.212 200.53C273.732 200.782 273.354 201.118 273.078 201.538C272.802 201.946 272.658 202.384 272.646 202.852H278.838ZM282.643 196.948C282.343 196.948 282.103 196.864 281.923 196.696C281.743 196.528 281.653 196.294 281.653 195.994C281.653 195.706 281.743 195.478 281.923 195.31C282.103 195.13 282.343 195.04 282.643 195.04C282.943 195.04 283.183 195.13 283.363 195.31C283.543 195.478 283.633 195.706 283.633 195.994C283.633 196.294 283.543 196.528 283.363 196.696C283.195 196.864 282.955 196.948 282.643 196.948ZM281.869 208V199H283.417V208H281.869ZM291.714 199H293.262V208H291.714V206.938C291.39 207.322 291 207.634 290.544 207.874C290.088 208.102 289.59 208.216 289.05 208.216C288.522 208.216 287.982 208.108 287.43 207.892C286.878 207.664 286.404 207.268 286.008 206.704C285.612 206.128 285.414 205.354 285.414 204.382V199H286.962V204.382C286.962 205.258 287.202 205.888 287.682 206.272C288.174 206.644 288.738 206.83 289.374 206.83C289.998 206.83 290.544 206.614 291.012 206.182C291.48 205.738 291.714 205.018 291.714 204.022V199ZM296.717 201.466C296.717 201.814 296.879 202.066 297.203 202.222C297.539 202.378 298.073 202.546 298.805 202.726C299.513 202.894 300.089 203.062 300.533 203.23C300.989 203.398 301.373 203.662 301.685 204.022C302.009 204.382 302.171 204.868 302.171 205.48C302.171 206.308 301.829 206.974 301.145 207.478C300.461 207.97 299.603 208.216 298.571 208.216C297.647 208.216 296.867 208.036 296.231 207.676C295.595 207.316 295.133 206.812 294.845 206.164L296.123 205.498C296.315 205.978 296.621 206.338 297.041 206.578C297.461 206.806 297.971 206.92 298.571 206.92C299.135 206.92 299.621 206.794 300.029 206.542C300.449 206.29 300.659 205.942 300.659 205.498C300.659 205.222 300.557 204.994 300.353 204.814C300.161 204.634 299.915 204.496 299.615 204.4C299.327 204.304 298.913 204.184 298.373 204.04C297.689 203.872 297.131 203.71 296.699 203.554C296.279 203.386 295.913 203.14 295.601 202.816C295.301 202.492 295.151 202.054 295.151 201.502C295.151 200.974 295.301 200.506 295.601 200.098C295.901 199.678 296.309 199.354 296.825 199.126C297.341 198.898 297.917 198.784 298.553 198.784C299.309 198.784 299.975 198.946 300.551 199.27C301.139 199.594 301.589 200.044 301.901 200.62L300.623 201.268C300.443 200.884 300.179 200.59 299.831 200.386C299.483 200.17 299.057 200.062 298.553 200.062C297.989 200.062 297.539 200.194 297.203 200.458C296.879 200.71 296.717 201.046 296.717 201.466ZM314.104 198.784C314.632 198.784 315.172 198.898 315.724 199.126C316.276 199.342 316.75 199.738 317.146 200.314C317.554 200.878 317.758 201.646 317.758 202.618V208H316.192V202.618C316.192 201.742 315.952 201.118 315.472 200.746C314.992 200.362 314.434 200.17 313.798 200.17C313.282 200.17 312.808 200.32 312.376 200.62C311.956 200.92 311.674 201.412 311.53 202.096C311.542 202.204 311.548 202.378 311.548 202.618V208H310V202.618C310 201.742 309.754 201.118 309.262 200.746C308.782 200.362 308.224 200.17 307.588 200.17C307.096 200.17 306.634 200.314 306.202 200.602C305.782 200.89 305.494 201.352 305.338 201.988V208H303.79V199H305.338V199.936C305.65 199.588 306.028 199.312 306.472 199.108C306.916 198.892 307.39 198.784 307.894 198.784C308.482 198.784 309.076 198.922 309.676 199.198C310.288 199.474 310.762 199.93 311.098 200.566C311.386 200.062 311.794 199.642 312.322 199.306C312.862 198.958 313.456 198.784 314.104 198.784ZM323.873 208.216C323.021 208.216 322.235 208.006 321.515 207.586C320.795 207.166 320.219 206.596 319.787 205.876C319.367 205.144 319.157 204.352 319.157 203.5C319.157 202.648 319.367 201.862 319.787 201.142C320.219 200.422 320.795 199.852 321.515 199.432C322.235 199.012 323.021 198.802 323.873 198.802C324.725 198.802 325.511 199.012 326.231 199.432C326.951 199.852 327.521 200.422 327.941 201.142C328.373 201.862 328.589 202.648 328.589 203.5C328.589 204.352 328.373 205.144 327.941 205.876C327.521 206.596 326.951 207.166 326.231 207.586C325.511 208.006 324.725 208.216 323.873 208.216ZM323.873 206.668C324.449 206.668 324.977 206.53 325.457 206.254C325.937 205.966 326.315 205.582 326.591 205.102C326.879 204.61 327.023 204.076 327.023 203.5C327.023 202.924 326.879 202.396 326.591 201.916C326.315 201.436 325.937 201.058 325.457 200.782C324.977 200.494 324.449 200.35 323.873 200.35C323.297 200.35 322.763 200.494 322.271 200.782C321.791 201.058 321.407 201.436 321.119 201.916C320.843 202.396 320.705 202.924 320.705 203.5C320.705 204.076 320.843 204.61 321.119 205.102C321.407 205.582 321.791 205.966 322.271 206.254C322.763 206.53 323.297 206.668 323.873 206.668ZM330.507 207.298C330.507 207.01 330.585 206.788 330.741 206.632C330.909 206.464 331.131 206.38 331.407 206.38C331.695 206.38 331.917 206.464 332.073 206.632C332.229 206.788 332.307 207.01 332.307 207.298C332.307 207.574 332.229 207.796 332.073 207.964C331.917 208.12 331.695 208.198 331.407 208.198C331.131 208.198 330.909 208.12 330.741 207.964C330.585 207.796 330.507 207.574 330.507 207.298Z" fill="#757683"/>
<path d="M171.64 77.2H174.304V88.312C174.304 89.48 174.032 90.52 173.488 91.432C172.944 92.344 172.184 93.056 171.208 93.568C170.248 94.064 169.16 94.312 167.944 94.312C166.728 94.312 165.64 94.064 164.68 93.568C163.72 93.056 162.968 92.344 162.424 91.432C161.896 90.52 161.632 89.48 161.632 88.312V77.2H164.296V88.312C164.296 89.32 164.632 90.128 165.304 90.736C165.992 91.344 166.872 91.648 167.944 91.648C169.08 91.648 169.976 91.352 170.632 90.76C171.304 90.152 171.64 89.336 171.64 88.312V77.2ZM179.213 85.312C179.213 85.712 179.413 86.008 179.813 86.2C180.229 86.376 180.893 86.576 181.805 86.8C182.733 87.008 183.501 87.232 184.109 87.472C184.717 87.696 185.237 88.056 185.669 88.552C186.117 89.048 186.341 89.72 186.341 90.568C186.341 91.336 186.117 92.008 185.669 92.584C185.221 93.144 184.613 93.576 183.845 93.88C183.093 94.168 182.261 94.312 181.349 94.312C180.117 94.312 179.061 94.072 178.181 93.592C177.301 93.096 176.661 92.408 176.261 91.528L178.325 90.448C178.565 91.056 178.941 91.512 179.453 91.816C179.981 92.104 180.613 92.248 181.349 92.248C182.037 92.248 182.629 92.104 183.125 91.816C183.637 91.528 183.893 91.12 183.893 90.592C183.893 90.128 183.661 89.792 183.197 89.584C182.749 89.36 182.037 89.128 181.061 88.888C180.117 88.648 179.357 88.424 178.781 88.216C178.221 87.992 177.733 87.656 177.317 87.208C176.901 86.744 176.693 86.136 176.693 85.384C176.693 84.648 176.901 84 177.317 83.44C177.733 82.88 178.293 82.448 178.997 82.144C179.701 81.84 180.485 81.688 181.349 81.688C182.373 81.688 183.285 81.912 184.085 82.36C184.901 82.792 185.525 83.4 185.957 84.184L183.893 85.216C183.445 84.24 182.597 83.752 181.349 83.752C180.693 83.752 180.173 83.896 179.789 84.184C179.405 84.456 179.213 84.832 179.213 85.312ZM193.919 81.688C195.087 81.688 196.127 81.976 197.039 82.552C197.951 83.112 198.663 83.88 199.175 84.856C199.687 85.816 199.943 86.872 199.943 88.024C199.943 88.216 199.911 88.52 199.847 88.936H190.151C190.359 89.896 190.807 90.664 191.495 91.24C192.199 91.816 193.087 92.104 194.159 92.104C194.815 92.104 195.439 91.96 196.031 91.672C196.639 91.384 197.087 91.008 197.375 90.544L199.343 91.696C198.799 92.528 198.079 93.176 197.183 93.64C196.287 94.088 195.263 94.312 194.111 94.312C192.831 94.312 191.695 94.04 190.703 93.496C189.727 92.952 188.967 92.2 188.423 91.24C187.895 90.28 187.631 89.2 187.631 88C187.631 86.816 187.895 85.744 188.423 84.784C188.967 83.824 189.711 83.072 190.655 82.528C191.615 81.968 192.703 81.688 193.919 81.688ZM197.543 86.944C197.415 86 197.023 85.256 196.367 84.712C195.727 84.168 194.911 83.896 193.919 83.896C193.231 83.896 192.599 84.04 192.023 84.328C191.447 84.6 190.991 84.976 190.655 85.456C190.319 85.92 190.143 86.416 190.127 86.944H197.543ZM208.257 81.736C208.433 81.736 208.569 81.744 208.665 81.76L208.473 84.16C208.297 84.112 208.129 84.088 207.969 84.088C206.977 84.088 206.145 84.392 205.473 85C204.801 85.592 204.465 86.432 204.465 87.52V94H201.945V82H204.465V84.04C204.737 83.4 205.201 82.856 205.857 82.408C206.529 81.96 207.329 81.736 208.257 81.736ZM219.777 86.752V91.48H227.049V94H217.113V77.2H226.929V79.72H219.777V84.232H226.329V86.752H219.777ZM237.137 82H240.233L235.817 88L240.233 94L237.137 94.024L234.257 90.112L231.377 94.024L228.281 94L232.697 88L228.281 82H231.377L234.257 85.912L237.137 82ZM248.555 81.712C249.755 81.712 250.811 81.984 251.723 82.528C252.635 83.072 253.339 83.824 253.835 84.784C254.347 85.744 254.603 86.816 254.603 88C254.603 89.184 254.347 90.256 253.835 91.216C253.339 92.176 252.635 92.936 251.723 93.496C250.811 94.04 249.755 94.312 248.555 94.312C247.771 94.312 247.011 94.16 246.275 93.856C245.555 93.536 244.915 93.096 244.355 92.536V98.8H241.835V82H244.355V83.464C244.915 82.92 245.555 82.496 246.275 82.192C247.011 81.872 247.771 81.712 248.555 81.712ZM248.243 91.864C248.963 91.864 249.611 91.696 250.187 91.36C250.779 91.024 251.243 90.568 251.579 89.992C251.915 89.4 252.083 88.736 252.083 88C252.083 87.264 251.915 86.6 251.579 86.008C251.243 85.416 250.779 84.952 250.187 84.616C249.611 84.28 248.963 84.112 248.243 84.112C247.523 84.112 246.867 84.28 246.275 84.616C245.683 84.952 245.211 85.424 244.859 86.032C244.523 86.624 244.355 87.288 244.355 88.024C244.355 88.76 244.523 89.424 244.859 90.016C245.211 90.592 245.683 91.048 246.275 91.384C246.867 91.704 247.523 91.864 248.243 91.864ZM262.309 81.688C263.477 81.688 264.517 81.976 265.429 82.552C266.341 83.112 267.053 83.88 267.565 84.856C268.077 85.816 268.333 86.872 268.333 88.024C268.333 88.216 268.301 88.52 268.237 88.936H258.541C258.749 89.896 259.197 90.664 259.885 91.24C260.589 91.816 261.477 92.104 262.549 92.104C263.205 92.104 263.829 91.96 264.421 91.672C265.029 91.384 265.477 91.008 265.765 90.544L267.733 91.696C267.189 92.528 266.469 93.176 265.573 93.64C264.677 94.088 263.653 94.312 262.501 94.312C261.221 94.312 260.085 94.04 259.093 93.496C258.117 92.952 257.357 92.2 256.813 91.24C256.285 90.28 256.021 89.2 256.021 88C256.021 86.816 256.285 85.744 256.813 84.784C257.357 83.824 258.101 83.072 259.045 82.528C260.005 81.968 261.093 81.688 262.309 81.688ZM265.933 86.944C265.805 86 265.413 85.256 264.757 84.712C264.117 84.168 263.301 83.896 262.309 83.896C261.621 83.896 260.989 84.04 260.413 84.328C259.837 84.6 259.381 84.976 259.045 85.456C258.709 85.92 258.533 86.416 258.517 86.944H265.933ZM276.647 81.736C276.823 81.736 276.959 81.744 277.055 81.76L276.863 84.16C276.687 84.112 276.519 84.088 276.359 84.088C275.367 84.088 274.535 84.392 273.863 85C273.191 85.592 272.855 86.432 272.855 87.52V94H270.335V82H272.855V84.04C273.127 83.4 273.591 82.856 274.247 82.408C274.919 81.96 275.719 81.736 276.647 81.736ZM280.56 79.624C280.08 79.624 279.696 79.496 279.408 79.24C279.136 78.968 279 78.6 279 78.136C279 77.672 279.136 77.312 279.408 77.056C279.696 76.784 280.08 76.648 280.56 76.648C281.04 76.648 281.416 76.784 281.688 77.056C281.976 77.312 282.12 77.672 282.12 78.136C282.12 78.6 281.976 78.968 281.688 79.24C281.416 79.496 281.04 79.624 280.56 79.624ZM279.288 94V82H281.808V94H279.288ZM290.036 81.688C291.204 81.688 292.244 81.976 293.156 82.552C294.068 83.112 294.78 83.88 295.292 84.856C295.804 85.816 296.06 86.872 296.06 88.024C296.06 88.216 296.028 88.52 295.964 88.936H286.268C286.476 89.896 286.924 90.664 287.612 91.24C288.316 91.816 289.204 92.104 290.276 92.104C290.932 92.104 291.556 91.96 292.148 91.672C292.756 91.384 293.204 91.008 293.492 90.544L295.46 91.696C294.916 92.528 294.196 93.176 293.3 93.64C292.404 94.088 291.38 94.312 290.228 94.312C288.948 94.312 287.812 94.04 286.82 93.496C285.844 92.952 285.084 92.2 284.54 91.24C284.012 90.28 283.748 89.2 283.748 88C283.748 86.816 284.012 85.744 284.54 84.784C285.084 83.824 285.828 83.072 286.772 82.528C287.732 81.968 288.82 81.688 290.036 81.688ZM293.66 86.944C293.532 86 293.14 85.256 292.484 84.712C291.844 84.168 291.028 83.896 290.036 83.896C289.348 83.896 288.716 84.04 288.14 84.328C287.564 84.6 287.108 84.976 286.772 85.456C286.436 85.92 286.26 86.416 286.244 86.944H293.66ZM303.918 81.688C304.622 81.688 305.334 81.84 306.054 82.144C306.79 82.432 307.422 82.96 307.95 83.728C308.478 84.496 308.742 85.528 308.742 86.824V94H306.222V86.824C306.222 85.8 305.934 85.064 305.358 84.616C304.782 84.152 304.11 83.92 303.342 83.92C302.59 83.92 301.942 84.184 301.398 84.712C300.854 85.24 300.582 86.096 300.582 87.28V94H298.062V82H300.582V83.2C301.014 82.752 301.51 82.392 302.07 82.12C302.646 81.832 303.262 81.688 303.918 81.688ZM321.937 91.672C321.361 92.488 320.625 93.136 319.729 93.616C318.833 94.08 317.865 94.312 316.825 94.312C315.689 94.312 314.633 94.032 313.657 93.472C312.697 92.896 311.937 92.128 311.377 91.168C310.817 90.192 310.537 89.136 310.537 88C310.537 86.864 310.817 85.816 311.377 84.856C311.937 83.896 312.697 83.136 313.657 82.576C314.633 82 315.689 81.712 316.825 81.712C317.849 81.712 318.801 81.944 319.681 82.408C320.577 82.872 321.321 83.512 321.913 84.328L319.849 85.72C319.465 85.24 319.009 84.872 318.481 84.616C317.969 84.36 317.417 84.232 316.825 84.232C316.137 84.232 315.505 84.4 314.929 84.736C314.353 85.072 313.897 85.528 313.561 86.104C313.225 86.68 313.057 87.312 313.057 88C313.057 88.688 313.225 89.32 313.561 89.896C313.897 90.472 314.353 90.936 314.929 91.288C315.505 91.624 316.137 91.792 316.825 91.792C317.417 91.792 317.969 91.664 318.481 91.408C319.009 91.136 319.465 90.768 319.849 90.304L321.937 91.672ZM329.341 81.688C330.509 81.688 331.549 81.976 332.461 82.552C333.373 83.112 334.085 83.88 334.597 84.856C335.109 85.816 335.365 86.872 335.365 88.024C335.365 88.216 335.333 88.52 335.269 88.936H325.573C325.781 89.896 326.229 90.664 326.917 91.24C327.621 91.816 328.509 92.104 329.581 92.104C330.237 92.104 330.861 91.96 331.453 91.672C332.061 91.384 332.509 91.008 332.797 90.544L334.765 91.696C334.221 92.528 333.501 93.176 332.605 93.64C331.709 94.088 330.685 94.312 329.533 94.312C328.253 94.312 327.117 94.04 326.125 93.496C325.149 92.952 324.389 92.2 323.845 91.24C323.317 90.28 323.053 89.2 323.053 88C323.053 86.816 323.317 85.744 323.845 84.784C324.389 83.824 325.133 83.072 326.077 82.528C327.037 81.968 328.125 81.688 329.341 81.688ZM332.965 86.944C332.837 86 332.445 85.256 331.789 84.712C331.149 84.168 330.333 83.896 329.341 83.896C328.653 83.896 328.021 84.04 327.445 84.328C326.869 84.6 326.413 84.976 326.077 85.456C325.741 85.92 325.565 86.416 325.549 86.944H332.965ZM168.208 109.2C169.776 109.2 171.216 109.576 172.528 110.328C173.856 111.064 174.904 112.08 175.672 113.376C176.44 114.656 176.824 116.08 176.824 117.648C176.824 119.216 176.44 120.64 175.672 121.92C174.904 123.184 173.856 124.184 172.528 124.92C171.216 125.64 169.776 126 168.208 126H161.8V109.2H168.208ZM168.208 123.48C169.296 123.48 170.296 123.224 171.208 122.712C172.12 122.2 172.84 121.496 173.368 120.6C173.896 119.704 174.16 118.712 174.16 117.624C174.16 116.536 173.896 115.544 173.368 114.648C172.84 113.736 172.12 113.024 171.208 112.512C170.296 111.984 169.296 111.72 168.208 111.72H164.464V123.48H168.208ZM184.52 113.688C185.688 113.688 186.728 113.976 187.64 114.552C188.552 115.112 189.264 115.88 189.776 116.856C190.288 117.816 190.544 118.872 190.544 120.024C190.544 120.216 190.512 120.52 190.448 120.936H180.752C180.96 121.896 181.408 122.664 182.096 123.24C182.8 123.816 183.688 124.104 184.76 124.104C185.416 124.104 186.04 123.96 186.632 123.672C187.24 123.384 187.688 123.008 187.976 122.544L189.944 123.696C189.4 124.528 188.68 125.176 187.784 125.64C186.888 126.088 185.864 126.312 184.712 126.312C183.432 126.312 182.296 126.04 181.304 125.496C180.328 124.952 179.568 124.2 179.024 123.24C178.496 122.28 178.232 121.2 178.232 120C178.232 118.816 178.496 117.744 179.024 116.784C179.568 115.824 180.312 115.072 181.256 114.528C182.216 113.968 183.304 113.688 184.52 113.688ZM188.144 118.944C188.016 118 187.624 117.256 186.968 116.712C186.328 116.168 185.512 115.896 184.52 115.896C183.832 115.896 183.2 116.04 182.624 116.328C182.048 116.6 181.592 116.976 181.256 117.456C180.92 117.92 180.744 118.416 180.728 118.944H188.144ZM194.658 117.312C194.658 117.712 194.858 118.008 195.258 118.2C195.674 118.376 196.338 118.576 197.25 118.8C198.178 119.008 198.946 119.232 199.554 119.472C200.162 119.696 200.682 120.056 201.114 120.552C201.562 121.048 201.786 121.72 201.786 122.568C201.786 123.336 201.562 124.008 201.114 124.584C200.666 125.144 200.058 125.576 199.29 125.88C198.538 126.168 197.706 126.312 196.794 126.312C195.562 126.312 194.506 126.072 193.626 125.592C192.746 125.096 192.106 124.408 191.706 123.528L193.77 122.448C194.01 123.056 194.386 123.512 194.898 123.816C195.426 124.104 196.058 124.248 196.794 124.248C197.482 124.248 198.074 124.104 198.57 123.816C199.082 123.528 199.338 123.12 199.338 122.592C199.338 122.128 199.106 121.792 198.642 121.584C198.194 121.36 197.482 121.128 196.506 120.888C195.562 120.648 194.802 120.424 194.226 120.216C193.666 119.992 193.178 119.656 192.762 119.208C192.346 118.744 192.138 118.136 192.138 117.384C192.138 116.648 192.346 116 192.762 115.44C193.178 114.88 193.738 114.448 194.442 114.144C195.146 113.84 195.93 113.688 196.794 113.688C197.818 113.688 198.73 113.912 199.53 114.36C200.346 114.792 200.97 115.4 201.402 116.184L199.338 117.216C198.89 116.24 198.042 115.752 196.794 115.752C196.138 115.752 195.618 115.896 195.234 116.184C194.85 116.456 194.658 116.832 194.658 117.312ZM205.068 111.624C204.588 111.624 204.204 111.496 203.916 111.24C203.644 110.968 203.508 110.6 203.508 110.136C203.508 109.672 203.644 109.312 203.916 109.056C204.204 108.784 204.588 108.648 205.068 108.648C205.548 108.648 205.924 108.784 206.196 109.056C206.484 109.312 206.628 109.672 206.628 110.136C206.628 110.6 206.484 110.968 206.196 111.24C205.924 111.496 205.548 111.624 205.068 111.624ZM203.796 126V114H206.316V126H203.796ZM218.882 114H221.402V125.4C221.402 126.536 221.122 127.536 220.562 128.4C220.002 129.264 219.226 129.928 218.234 130.392C217.258 130.872 216.154 131.112 214.922 131.112C213.53 131.112 212.282 130.848 211.178 130.32C210.09 129.792 209.314 129.088 208.85 128.208L211.01 126.96C211.266 127.472 211.738 127.904 212.426 128.256C213.13 128.608 213.986 128.784 214.994 128.784C216.13 128.784 217.058 128.472 217.778 127.848C218.514 127.224 218.882 126.408 218.882 125.4V124.56C218.322 125.104 217.674 125.536 216.938 125.856C216.218 126.16 215.466 126.312 214.682 126.312C213.482 126.312 212.426 126.04 211.514 125.496C210.602 124.936 209.89 124.184 209.378 123.24C208.882 122.28 208.634 121.208 208.634 120.024C208.634 118.84 208.882 117.768 209.378 116.808C209.89 115.848 210.602 115.096 211.514 114.552C212.426 113.992 213.482 113.712 214.682 113.712C215.466 113.712 216.218 113.872 216.938 114.192C217.674 114.496 218.322 114.928 218.882 115.488V114ZM214.994 123.888C215.714 123.888 216.37 123.72 216.962 123.384C217.554 123.048 218.018 122.584 218.354 121.992C218.706 121.4 218.882 120.736 218.882 120C218.882 119.264 218.706 118.608 218.354 118.032C218.018 117.44 217.554 116.984 216.962 116.664C216.37 116.328 215.714 116.16 214.994 116.16C214.274 116.16 213.618 116.328 213.026 116.664C212.45 116.984 211.994 117.44 211.658 118.032C211.322 118.624 211.154 119.288 211.154 120.024C211.154 120.76 211.322 121.424 211.658 122.016C211.994 122.608 212.45 123.072 213.026 123.408C213.618 123.728 214.274 123.888 214.994 123.888ZM230.511 113.688C231.215 113.688 231.927 113.84 232.647 114.144C233.383 114.432 234.015 114.96 234.543 115.728C235.071 116.496 235.335 117.528 235.335 118.824V126H232.815V118.824C232.815 117.8 232.527 117.064 231.951 116.616C231.375 116.152 230.703 115.92 229.935 115.92C229.183 115.92 228.535 116.184 227.991 116.712C227.447 117.24 227.175 118.096 227.175 119.28V126H224.655V114H227.175V115.2C227.607 114.752 228.103 114.392 228.663 114.12C229.239 113.832 229.855 113.688 230.511 113.688Z" fill="#1B1C23"/>
<rect opacity="0.1" x="85" y="77" width="50" height="50" fill="#FF694B"/>
<path d="M112 106C112 107.77 111.23 109.37 110 110.46C108.94 111.42 107.54 112 106 112C102.69 112 100 109.31 100 106C100 103.24 101.88 100.9 104.42 100.21C105.11 101.95 106.59 103.29 108.42 103.79C108.92 103.93 109.45 104 110 104C110.55 104 111.08 103.93 111.58 103.79C111.85 104.47 112 105.22 112 106Z" stroke="#FF694B" stroke-width="1.5" stroke-linecap="round" stroke-linejoin="round"/>
<path d="M116 98C116 98.78 115.85 99.53 115.58 100.21C114.89 101.95 113.41 103.29 111.58 103.79C111.08 103.93 110.55 104 110 104C109.45 104 108.92 103.93 108.42 103.79C106.59 103.29 105.11 101.95 104.42 100.21C104.15 99.53 104 98.78 104 98C104 94.69 106.69 92 110 92C113.31 92 116 94.69 116 98Z" stroke="#FF694B" stroke-width="1.5" stroke-linecap="round" stroke-linejoin="round"/>
<path d="M120 106C120 109.31 117.31 112 114 112C112.46 112 111.06 111.42 110 110.46C111.23 109.37 112 107.77 112 106C112 105.22 111.85 104.47 111.58 103.79C113.41 103.29 114.89 101.95 115.58 100.21C118.12 100.9 120 103.24 120 106Z" stroke="#FF694B" stroke-width="1.5" stroke-linecap="round" stroke-linejoin="round"/>
<defs>
<filter id="filter0_d_2_386" x="0" y="0" width="480" height="350" filterUnits="userSpaceOnUse" color-interpolation-filters="sRGB">
<feFlood flood-opacity="0" result="BackgroundImageFix"/>
<feColorMatrix in="SourceAlpha" type="matrix" values="0 0 0 0 0 0 0 0 0 0 0 0 0 0 0 0 0 0 127 0" result="hardAlpha"/>
<feOffset dy="10"/>
<feGaussianBlur stdDeviation="15"/>
<feComposite in2="hardAlpha" operator="out"/>
<feColorMatrix type="matrix" values="0 0 0 0 0.895833 0 0 0 0 0.895833 0 0 0 0 0.895833 0 0 0 0.25 0"/>
<feBlend mode="normal" in2="BackgroundImageFix" result="effect1_dropShadow_2_386"/>
<feBlend mode="normal" in="SourceGraphic" in2="effect1_dropShadow_2_386" result="shape"/>
</filter>
</defs>
</svg>
