<svg width="350" height="370" viewBox="0 0 510 380" fill="none" xmlns="http://www.w3.org/2000/svg">
<g filter="url(#filter0_d_2_371)">
<rect x="45" y="20" width="440" height="290" fill="white"/>
</g>
<path d="M146.67 255.5L138.88 251V254.5H100V256.5H138.88V260L146.67 255.5Z" fill="#FF694B"/>
<path d="M103.06 165.4V176.452H108.784V178H101.422V165.4H103.06ZM114.102 178.216C113.25 178.216 112.464 178.006 111.744 177.586C111.024 177.166 110.448 176.596 110.016 175.876C109.596 175.144 109.386 174.352 109.386 173.5C109.386 172.648 109.596 171.862 110.016 171.142C110.448 170.422 111.024 169.852 111.744 169.432C112.464 169.012 113.25 168.802 114.102 168.802C114.954 168.802 115.74 169.012 116.46 169.432C117.18 169.852 117.75 170.422 118.17 171.142C118.602 171.862 118.818 172.648 118.818 173.5C118.818 174.352 118.602 175.144 118.17 175.876C117.75 176.596 117.18 177.166 116.46 177.586C115.74 178.006 114.954 178.216 114.102 178.216ZM114.102 176.668C114.678 176.668 115.206 176.53 115.686 176.254C116.166 175.966 116.544 175.582 116.82 175.102C117.108 174.61 117.252 174.076 117.252 173.5C117.252 172.924 117.108 172.396 116.82 171.916C116.544 171.436 116.166 171.058 115.686 170.782C115.206 170.494 114.678 170.35 114.102 170.35C113.526 170.35 112.992 170.494 112.5 170.782C112.02 171.058 111.636 171.436 111.348 171.916C111.072 172.396 110.934 172.924 110.934 173.5C110.934 174.076 111.072 174.61 111.348 175.102C111.636 175.582 112.02 175.966 112.5 176.254C112.992 176.53 113.526 176.668 114.102 176.668ZM124.848 168.802C124.992 168.802 125.1 168.808 125.172 168.82L125.046 170.296C124.902 170.272 124.788 170.26 124.704 170.26C123.936 170.26 123.288 170.494 122.76 170.962C122.244 171.43 121.986 172.108 121.986 172.996V178H120.438V169H121.986V170.548C122.19 170.056 122.538 169.642 123.03 169.306C123.534 168.97 124.14 168.802 124.848 168.802ZM130.379 168.784C131.255 168.784 132.035 169 132.719 169.432C133.403 169.852 133.931 170.428 134.303 171.16C134.687 171.88 134.879 172.666 134.879 173.518C134.879 173.614 134.873 173.722 134.861 173.842C134.849 173.95 134.837 174.04 134.825 174.112H127.247C127.367 174.916 127.715 175.576 128.291 176.092C128.879 176.596 129.623 176.848 130.523 176.848C131.075 176.848 131.597 176.722 132.089 176.47C132.593 176.218 132.965 175.906 133.205 175.534L134.429 176.254C134.033 176.878 133.493 177.364 132.809 177.712C132.137 178.048 131.369 178.216 130.505 178.216C129.557 178.216 128.717 178.012 127.985 177.604C127.253 177.196 126.683 176.638 126.275 175.93C125.867 175.21 125.663 174.4 125.663 173.5C125.663 172.612 125.861 171.814 126.257 171.106C126.665 170.386 127.223 169.822 127.931 169.414C128.651 168.994 129.467 168.784 130.379 168.784ZM133.403 172.852C133.283 172.012 132.959 171.352 132.431 170.872C131.903 170.392 131.219 170.152 130.379 170.152C129.791 170.152 129.257 170.278 128.777 170.53C128.297 170.782 127.919 171.118 127.643 171.538C127.367 171.946 127.223 172.384 127.211 172.852H133.403ZM146.766 168.784C147.294 168.784 147.834 168.898 148.386 169.126C148.938 169.342 149.412 169.738 149.808 170.314C150.216 170.878 150.42 171.646 150.42 172.618V178H148.854V172.618C148.854 171.742 148.614 171.118 148.134 170.746C147.654 170.362 147.096 170.17 146.46 170.17C145.944 170.17 145.47 170.32 145.038 170.62C144.618 170.92 144.336 171.412 144.192 172.096C144.204 172.204 144.21 172.378 144.21 172.618V178H142.662V172.618C142.662 171.742 142.416 171.118 141.924 170.746C141.444 170.362 140.886 170.17 140.25 170.17C139.758 170.17 139.296 170.314 138.864 170.602C138.444 170.89 138.156 171.352 138 171.988V178H136.452V169H138V169.936C138.312 169.588 138.69 169.312 139.134 169.108C139.578 168.892 140.052 168.784 140.556 168.784C141.144 168.784 141.738 168.922 142.338 169.198C142.95 169.474 143.424 169.93 143.76 170.566C144.048 170.062 144.456 169.642 144.984 169.306C145.524 168.958 146.118 168.784 146.766 168.784ZM158.143 166.948C157.843 166.948 157.603 166.864 157.423 166.696C157.243 166.528 157.153 166.294 157.153 165.994C157.153 165.706 157.243 165.478 157.423 165.31C157.603 165.13 157.843 165.04 158.143 165.04C158.443 165.04 158.683 165.13 158.863 165.31C159.043 165.478 159.133 165.706 159.133 165.994C159.133 166.294 159.043 166.528 158.863 166.696C158.695 166.864 158.455 166.948 158.143 166.948ZM157.369 178V169H158.917V178H157.369ZM166.274 168.784C167.15 168.784 167.93 168.994 168.614 169.414C169.31 169.822 169.85 170.386 170.234 171.106C170.618 171.826 170.81 172.624 170.81 173.5C170.81 174.388 170.618 175.192 170.234 175.912C169.85 176.62 169.316 177.184 168.632 177.604C167.948 178.012 167.162 178.216 166.274 178.216C165.626 178.216 165.008 178.078 164.42 177.802C163.832 177.526 163.328 177.142 162.908 176.65V181.6H161.36V169H162.908V170.35C163.328 169.858 163.832 169.474 164.42 169.198C165.008 168.922 165.626 168.784 166.274 168.784ZM166.112 176.704C166.7 176.704 167.234 176.566 167.714 176.29C168.194 176.014 168.572 175.63 168.848 175.138C169.124 174.646 169.262 174.1 169.262 173.5C169.262 172.888 169.124 172.342 168.848 171.862C168.572 171.37 168.194 170.986 167.714 170.71C167.234 170.422 166.7 170.278 166.112 170.278C165.524 170.278 164.984 170.422 164.492 170.71C164 170.986 163.61 171.37 163.322 171.862C163.046 172.354 162.908 172.906 162.908 173.518C162.908 174.118 163.046 174.664 163.322 175.156C163.61 175.636 164 176.014 164.492 176.29C164.984 176.566 165.524 176.704 166.112 176.704ZM173.87 171.466C173.87 171.814 174.032 172.066 174.356 172.222C174.692 172.378 175.226 172.546 175.958 172.726C176.666 172.894 177.242 173.062 177.686 173.23C178.142 173.398 178.526 173.662 178.838 174.022C179.162 174.382 179.324 174.868 179.324 175.48C179.324 176.308 178.982 176.974 178.298 177.478C177.614 177.97 176.756 178.216 175.724 178.216C174.8 178.216 174.02 178.036 173.384 177.676C172.748 177.316 172.286 176.812 171.998 176.164L173.276 175.498C173.468 175.978 173.774 176.338 174.194 176.578C174.614 176.806 175.124 176.92 175.724 176.92C176.288 176.92 176.774 176.794 177.182 176.542C177.602 176.29 177.812 175.942 177.812 175.498C177.812 175.222 177.71 174.994 177.506 174.814C177.314 174.634 177.068 174.496 176.768 174.4C176.48 174.304 176.066 174.184 175.526 174.04C174.842 173.872 174.284 173.71 173.852 173.554C173.432 173.386 173.066 173.14 172.754 172.816C172.454 172.492 172.304 172.054 172.304 171.502C172.304 170.974 172.454 170.506 172.754 170.098C173.054 169.678 173.462 169.354 173.978 169.126C174.494 168.898 175.07 168.784 175.706 168.784C176.462 168.784 177.128 168.946 177.704 169.27C178.292 169.594 178.742 170.044 179.054 170.62L177.776 171.268C177.596 170.884 177.332 170.59 176.984 170.386C176.636 170.17 176.21 170.062 175.706 170.062C175.142 170.062 174.692 170.194 174.356 170.458C174.032 170.71 173.87 171.046 173.87 171.466ZM187.042 169H188.59V178H187.042V176.938C186.718 177.322 186.328 177.634 185.872 177.874C185.416 178.102 184.918 178.216 184.378 178.216C183.85 178.216 183.31 178.108 182.758 177.892C182.206 177.664 181.732 177.268 181.336 176.704C180.94 176.128 180.742 175.354 180.742 174.382V169H182.29V174.382C182.29 175.258 182.53 175.888 183.01 176.272C183.502 176.644 184.066 176.83 184.702 176.83C185.326 176.83 185.872 176.614 186.34 176.182C186.808 175.738 187.042 175.018 187.042 174.022V169ZM201.469 168.784C201.997 168.784 202.537 168.898 203.089 169.126C203.641 169.342 204.115 169.738 204.511 170.314C204.919 170.878 205.123 171.646 205.123 172.618V178H203.557V172.618C203.557 171.742 203.317 171.118 202.837 170.746C202.357 170.362 201.799 170.17 201.163 170.17C200.647 170.17 200.173 170.32 199.741 170.62C199.321 170.92 199.039 171.412 198.895 172.096C198.907 172.204 198.913 172.378 198.913 172.618V178H197.365V172.618C197.365 171.742 197.119 171.118 196.627 170.746C196.147 170.362 195.589 170.17 194.953 170.17C194.461 170.17 193.999 170.314 193.567 170.602C193.147 170.89 192.859 171.352 192.703 171.988V178H191.155V169H192.703V169.936C193.015 169.588 193.393 169.312 193.837 169.108C194.281 168.892 194.755 168.784 195.259 168.784C195.847 168.784 196.441 168.922 197.041 169.198C197.653 169.474 198.127 169.93 198.463 170.566C198.751 170.062 199.159 169.642 199.687 169.306C200.227 168.958 200.821 168.784 201.469 168.784ZM219.489 165.4H221.037V178H219.489V176.65C219.069 177.142 218.565 177.532 217.977 177.82C217.401 178.096 216.783 178.234 216.123 178.234C215.247 178.234 214.461 178.03 213.765 177.622C213.069 177.202 212.529 176.632 212.145 175.912C211.761 175.192 211.569 174.394 211.569 173.518C211.569 172.63 211.761 171.832 212.145 171.124C212.529 170.404 213.063 169.84 213.747 169.432C214.443 169.012 215.235 168.802 216.123 168.802C216.783 168.802 217.401 168.946 217.977 169.234C218.565 169.51 219.069 169.894 219.489 170.386V165.4ZM216.285 176.74C216.873 176.74 217.413 176.602 217.905 176.326C218.397 176.038 218.781 175.648 219.057 175.156C219.345 174.664 219.489 174.112 219.489 173.5C219.489 172.9 219.345 172.36 219.057 171.88C218.781 171.388 218.397 171.004 217.905 170.728C217.413 170.452 216.873 170.314 216.285 170.314C215.697 170.314 215.163 170.452 214.683 170.728C214.203 171.004 213.825 171.388 213.549 171.88C213.273 172.372 213.135 172.918 213.135 173.518C213.135 174.13 213.273 174.682 213.549 175.174C213.825 175.654 214.203 176.038 214.683 176.326C215.163 176.602 215.697 176.74 216.285 176.74ZM227.375 178.216C226.523 178.216 225.737 178.006 225.017 177.586C224.297 177.166 223.721 176.596 223.289 175.876C222.869 175.144 222.659 174.352 222.659 173.5C222.659 172.648 222.869 171.862 223.289 171.142C223.721 170.422 224.297 169.852 225.017 169.432C225.737 169.012 226.523 168.802 227.375 168.802C228.227 168.802 229.013 169.012 229.733 169.432C230.453 169.852 231.023 170.422 231.443 171.142C231.875 171.862 232.091 172.648 232.091 173.5C232.091 174.352 231.875 175.144 231.443 175.876C231.023 176.596 230.453 177.166 229.733 177.586C229.013 178.006 228.227 178.216 227.375 178.216ZM227.375 176.668C227.951 176.668 228.479 176.53 228.959 176.254C229.439 175.966 229.817 175.582 230.093 175.102C230.381 174.61 230.525 174.076 230.525 173.5C230.525 172.924 230.381 172.396 230.093 171.916C229.817 171.436 229.439 171.058 228.959 170.782C228.479 170.494 227.951 170.35 227.375 170.35C226.799 170.35 226.265 170.494 225.773 170.782C225.293 171.058 224.909 171.436 224.621 171.916C224.345 172.396 224.207 172.924 224.207 173.5C224.207 174.076 224.345 174.61 224.621 175.102C224.909 175.582 225.293 175.966 225.773 176.254C226.265 176.53 226.799 176.668 227.375 176.668ZM235.26 176.092C235.26 176.296 235.302 176.44 235.386 176.524C235.482 176.596 235.626 176.632 235.818 176.632C235.926 176.632 236.028 176.626 236.124 176.614C236.22 176.602 236.31 176.59 236.394 176.578V178C236.01 178.06 235.686 178.09 235.422 178.09C234.882 178.09 234.462 177.952 234.162 177.676C233.862 177.388 233.712 176.89 233.712 176.182V165.4H235.26V176.092ZM241.701 178.216C240.849 178.216 240.063 178.006 239.343 177.586C238.623 177.166 238.047 176.596 237.615 175.876C237.195 175.144 236.985 174.352 236.985 173.5C236.985 172.648 237.195 171.862 237.615 171.142C238.047 170.422 238.623 169.852 239.343 169.432C240.063 169.012 240.849 168.802 241.701 168.802C242.553 168.802 243.339 169.012 244.059 169.432C244.779 169.852 245.349 170.422 245.769 171.142C246.201 171.862 246.417 172.648 246.417 173.5C246.417 174.352 246.201 175.144 245.769 175.876C245.349 176.596 244.779 177.166 244.059 177.586C243.339 178.006 242.553 178.216 241.701 178.216ZM241.701 176.668C242.277 176.668 242.805 176.53 243.285 176.254C243.765 175.966 244.143 175.582 244.419 175.102C244.707 174.61 244.851 174.076 244.851 173.5C244.851 172.924 244.707 172.396 244.419 171.916C244.143 171.436 243.765 171.058 243.285 170.782C242.805 170.494 242.277 170.35 241.701 170.35C241.125 170.35 240.591 170.494 240.099 170.782C239.619 171.058 239.235 171.436 238.947 171.916C238.671 172.396 238.533 172.924 238.533 173.5C238.533 174.076 238.671 174.61 238.947 175.102C239.235 175.582 239.619 175.966 240.099 176.254C240.591 176.53 241.125 176.668 241.701 176.668ZM252.448 168.802C252.592 168.802 252.7 168.808 252.772 168.82L252.646 170.296C252.502 170.272 252.388 170.26 252.304 170.26C251.536 170.26 250.888 170.494 250.36 170.962C249.844 171.43 249.586 172.108 249.586 172.996V178H248.038V169H249.586V170.548C249.79 170.056 250.138 169.642 250.63 169.306C251.134 168.97 251.74 168.802 252.448 168.802ZM260.319 171.466C260.319 171.814 260.481 172.066 260.805 172.222C261.141 172.378 261.675 172.546 262.407 172.726C263.115 172.894 263.691 173.062 264.135 173.23C264.591 173.398 264.975 173.662 265.287 174.022C265.611 174.382 265.773 174.868 265.773 175.48C265.773 176.308 265.431 176.974 264.747 177.478C264.063 177.97 263.205 178.216 262.173 178.216C261.249 178.216 260.469 178.036 259.833 177.676C259.197 177.316 258.735 176.812 258.447 176.164L259.725 175.498C259.917 175.978 260.223 176.338 260.643 176.578C261.063 176.806 261.573 176.92 262.173 176.92C262.737 176.92 263.223 176.794 263.631 176.542C264.051 176.29 264.261 175.942 264.261 175.498C264.261 175.222 264.159 174.994 263.955 174.814C263.763 174.634 263.517 174.496 263.217 174.4C262.929 174.304 262.515 174.184 261.975 174.04C261.291 173.872 260.733 173.71 260.301 173.554C259.881 173.386 259.515 173.14 259.203 172.816C258.903 172.492 258.753 172.054 258.753 171.502C258.753 170.974 258.903 170.506 259.203 170.098C259.503 169.678 259.911 169.354 260.427 169.126C260.943 168.898 261.519 168.784 262.155 168.784C262.911 168.784 263.577 168.946 264.153 169.27C264.741 169.594 265.191 170.044 265.503 170.62L264.225 171.268C264.045 170.884 263.781 170.59 263.433 170.386C263.085 170.17 262.659 170.062 262.155 170.062C261.591 170.062 261.141 170.194 260.805 170.458C260.481 170.71 260.319 171.046 260.319 171.466ZM268.147 166.948C267.847 166.948 267.607 166.864 267.427 166.696C267.247 166.528 267.157 166.294 267.157 165.994C267.157 165.706 267.247 165.478 267.427 165.31C267.607 165.13 267.847 165.04 268.147 165.04C268.447 165.04 268.687 165.13 268.867 165.31C269.047 165.478 269.137 165.706 269.137 165.994C269.137 166.294 269.047 166.528 268.867 166.696C268.699 166.864 268.459 166.948 268.147 166.948ZM267.373 178V169H268.921V178H267.373ZM274.08 175.192C274.08 175.744 274.182 176.128 274.386 176.344C274.602 176.548 274.944 176.65 275.412 176.65C275.556 176.65 275.856 176.626 276.312 176.578V178C275.796 178.06 275.364 178.09 275.016 178.09C274.164 178.09 273.534 177.886 273.126 177.478C272.73 177.07 272.532 176.338 272.532 175.282V170.422H270.534V169H272.532V166.552L274.08 165.994V169H276.276V170.422H274.08V175.192ZM290.434 169H292V178H290.434V176.65C290.014 177.142 289.51 177.532 288.922 177.82C288.346 178.096 287.728 178.234 287.068 178.234C286.192 178.234 285.406 178.03 284.71 177.622C284.014 177.202 283.474 176.632 283.09 175.912C282.706 175.192 282.514 174.394 282.514 173.518C282.514 172.63 282.706 171.832 283.09 171.124C283.474 170.404 284.008 169.84 284.692 169.432C285.388 169.012 286.18 168.802 287.068 168.802C287.728 168.802 288.346 168.946 288.922 169.234C289.51 169.51 290.014 169.894 290.434 170.386V169ZM287.23 176.74C287.818 176.74 288.358 176.602 288.85 176.326C289.342 176.038 289.726 175.648 290.002 175.156C290.29 174.664 290.434 174.112 290.434 173.5C290.434 172.9 290.29 172.36 290.002 171.88C289.726 171.388 289.342 171.004 288.85 170.728C288.358 170.452 287.818 170.314 287.23 170.314C286.642 170.314 286.108 170.452 285.628 170.728C285.148 171.004 284.77 171.388 284.494 171.88C284.218 172.372 284.08 172.918 284.08 173.518C284.08 174.13 284.218 174.682 284.494 175.174C284.77 175.654 285.148 176.038 285.628 176.326C286.108 176.602 286.642 176.74 287.23 176.74ZM304.846 168.784C305.374 168.784 305.914 168.898 306.466 169.126C307.018 169.342 307.492 169.738 307.888 170.314C308.296 170.878 308.5 171.646 308.5 172.618V178H306.934V172.618C306.934 171.742 306.694 171.118 306.214 170.746C305.734 170.362 305.176 170.17 304.54 170.17C304.024 170.17 303.55 170.32 303.118 170.62C302.698 170.92 302.416 171.412 302.272 172.096C302.284 172.204 302.29 172.378 302.29 172.618V178H300.742V172.618C300.742 171.742 300.496 171.118 300.004 170.746C299.524 170.362 298.966 170.17 298.33 170.17C297.838 170.17 297.376 170.314 296.944 170.602C296.524 170.89 296.236 171.352 296.08 171.988V178H294.532V169H296.08V169.936C296.392 169.588 296.77 169.312 297.214 169.108C297.658 168.892 298.132 168.784 298.636 168.784C299.224 168.784 299.818 168.922 300.418 169.198C301.03 169.474 301.504 169.93 301.84 170.566C302.128 170.062 302.536 169.642 303.064 169.306C303.604 168.958 304.198 168.784 304.846 168.784ZM314.615 168.784C315.491 168.784 316.271 169 316.955 169.432C317.639 169.852 318.167 170.428 318.539 171.16C318.923 171.88 319.115 172.666 319.115 173.518C319.115 173.614 319.109 173.722 319.097 173.842C319.085 173.95 319.073 174.04 319.061 174.112H311.483C311.603 174.916 311.951 175.576 312.527 176.092C313.115 176.596 313.859 176.848 314.759 176.848C315.311 176.848 315.833 176.722 316.325 176.47C316.829 176.218 317.201 175.906 317.441 175.534L318.665 176.254C318.269 176.878 317.729 177.364 317.045 177.712C316.373 178.048 315.605 178.216 314.741 178.216C313.793 178.216 312.953 178.012 312.221 177.604C311.489 177.196 310.919 176.638 310.511 175.93C310.103 175.21 309.899 174.4 309.899 173.5C309.899 172.612 310.097 171.814 310.493 171.106C310.901 170.386 311.459 169.822 312.167 169.414C312.887 168.994 313.703 168.784 314.615 168.784ZM317.639 172.852C317.519 172.012 317.195 171.352 316.667 170.872C316.139 170.392 315.455 170.152 314.615 170.152C314.027 170.152 313.493 170.278 313.013 170.53C312.533 170.782 312.155 171.118 311.879 171.538C311.603 171.946 311.459 172.384 311.447 172.852H317.639ZM323.211 175.192C323.211 175.744 323.313 176.128 323.517 176.344C323.733 176.548 324.075 176.65 324.543 176.65C324.687 176.65 324.987 176.626 325.443 176.578V178C324.927 178.06 324.495 178.09 324.147 178.09C323.295 178.09 322.665 177.886 322.257 177.478C321.861 177.07 321.663 176.338 321.663 175.282V170.422H319.665V169H321.663V166.552L323.211 165.994V169H325.407V170.422H323.211V175.192ZM328.12 178.144C327.82 178.096 327.61 178 327.49 177.856C327.382 177.712 327.328 177.472 327.328 177.136C327.328 176.8 327.418 176.542 327.598 176.362C327.79 176.182 328.042 176.092 328.354 176.092C328.678 176.092 328.936 176.194 329.128 176.398C329.32 176.59 329.416 176.848 329.416 177.172C329.404 177.544 329.35 177.862 329.254 178.126C329.158 178.39 328.978 178.732 328.714 179.152L328.012 180.214L327.418 179.728L328.12 178.144ZM344.359 176.254C343.927 176.854 343.375 177.334 342.703 177.694C342.043 178.042 341.323 178.216 340.543 178.216C339.691 178.216 338.905 178.006 338.185 177.586C337.465 177.166 336.889 176.596 336.457 175.876C336.037 175.144 335.827 174.352 335.827 173.5C335.827 172.648 336.037 171.862 336.457 171.142C336.889 170.422 337.465 169.852 338.185 169.432C338.905 169.012 339.691 168.802 340.543 168.802C341.311 168.802 342.025 168.976 342.685 169.324C343.345 169.672 343.897 170.14 344.341 170.728L343.063 171.592C342.751 171.196 342.379 170.89 341.947 170.674C341.515 170.458 341.047 170.35 340.543 170.35C339.967 170.35 339.439 170.494 338.959 170.782C338.479 171.058 338.095 171.436 337.807 171.916C337.531 172.396 337.393 172.924 337.393 173.5C337.393 174.076 337.531 174.61 337.807 175.102C338.095 175.582 338.479 175.966 338.959 176.254C339.439 176.53 339.967 176.668 340.543 176.668C341.047 176.668 341.515 176.56 341.947 176.344C342.391 176.116 342.763 175.804 343.063 175.408L344.359 176.254ZM349.895 178.216C349.043 178.216 348.257 178.006 347.537 177.586C346.817 177.166 346.241 176.596 345.809 175.876C345.389 175.144 345.179 174.352 345.179 173.5C345.179 172.648 345.389 171.862 345.809 171.142C346.241 170.422 346.817 169.852 347.537 169.432C348.257 169.012 349.043 168.802 349.895 168.802C350.747 168.802 351.533 169.012 352.253 169.432C352.973 169.852 353.543 170.422 353.963 171.142C354.395 171.862 354.611 172.648 354.611 173.5C354.611 174.352 354.395 175.144 353.963 175.876C353.543 176.596 352.973 177.166 352.253 177.586C351.533 178.006 350.747 178.216 349.895 178.216ZM349.895 176.668C350.471 176.668 350.999 176.53 351.479 176.254C351.959 175.966 352.337 175.582 352.613 175.102C352.901 174.61 353.045 174.076 353.045 173.5C353.045 172.924 352.901 172.396 352.613 171.916C352.337 171.436 351.959 171.058 351.479 170.782C350.999 170.494 350.471 170.35 349.895 170.35C349.319 170.35 348.785 170.494 348.293 170.782C347.813 171.058 347.429 171.436 347.141 171.916C346.865 172.396 346.727 172.924 346.727 173.5C346.727 174.076 346.865 174.61 347.141 175.102C347.429 175.582 347.813 175.966 348.293 176.254C348.785 176.53 349.319 176.668 349.895 176.668ZM360.443 168.784C360.971 168.784 361.511 168.898 362.063 169.126C362.615 169.342 363.089 169.738 363.485 170.314C363.881 170.878 364.079 171.646 364.079 172.618V178H362.531V172.618C362.531 171.742 362.291 171.118 361.811 170.746C361.331 170.362 360.767 170.17 360.119 170.17C359.495 170.17 358.949 170.392 358.481 170.836C358.013 171.268 357.779 171.982 357.779 172.978V178H356.231V169H357.779V170.062C358.103 169.678 358.493 169.372 358.949 169.144C359.405 168.904 359.903 168.784 360.443 168.784ZM367.317 171.466C367.317 171.814 367.479 172.066 367.803 172.222C368.139 172.378 368.673 172.546 369.405 172.726C370.113 172.894 370.689 173.062 371.133 173.23C371.589 173.398 371.973 173.662 372.285 174.022C372.609 174.382 372.771 174.868 372.771 175.48C372.771 176.308 372.429 176.974 371.745 177.478C371.061 177.97 370.203 178.216 369.171 178.216C368.247 178.216 367.467 178.036 366.831 177.676C366.195 177.316 365.733 176.812 365.445 176.164L366.723 175.498C366.915 175.978 367.221 176.338 367.641 176.578C368.061 176.806 368.571 176.92 369.171 176.92C369.735 176.92 370.221 176.794 370.629 176.542C371.049 176.29 371.259 175.942 371.259 175.498C371.259 175.222 371.157 174.994 370.953 174.814C370.761 174.634 370.515 174.496 370.215 174.4C369.927 174.304 369.513 174.184 368.973 174.04C368.289 173.872 367.731 173.71 367.299 173.554C366.879 173.386 366.513 173.14 366.201 172.816C365.901 172.492 365.751 172.054 365.751 171.502C365.751 170.974 365.901 170.506 366.201 170.098C366.501 169.678 366.909 169.354 367.425 169.126C367.941 168.898 368.517 168.784 369.153 168.784C369.909 168.784 370.575 168.946 371.151 169.27C371.739 169.594 372.189 170.044 372.501 170.62L371.223 171.268C371.043 170.884 370.779 170.59 370.431 170.386C370.083 170.17 369.657 170.062 369.153 170.062C368.589 170.062 368.139 170.194 367.803 170.458C367.479 170.71 367.317 171.046 367.317 171.466ZM378.529 168.784C379.405 168.784 380.185 169 380.869 169.432C381.553 169.852 382.081 170.428 382.453 171.16C382.837 171.88 383.029 172.666 383.029 173.518C383.029 173.614 383.023 173.722 383.011 173.842C382.999 173.95 382.987 174.04 382.975 174.112H375.397C375.517 174.916 375.865 175.576 376.441 176.092C377.029 176.596 377.773 176.848 378.673 176.848C379.225 176.848 379.747 176.722 380.239 176.47C380.743 176.218 381.115 175.906 381.355 175.534L382.579 176.254C382.183 176.878 381.643 177.364 380.959 177.712C380.287 178.048 379.519 178.216 378.655 178.216C377.707 178.216 376.867 178.012 376.135 177.604C375.403 177.196 374.833 176.638 374.425 175.93C374.017 175.21 373.813 174.4 373.813 173.5C373.813 172.612 374.011 171.814 374.407 171.106C374.815 170.386 375.373 169.822 376.081 169.414C376.801 168.994 377.617 168.784 378.529 168.784ZM381.553 172.852C381.433 172.012 381.109 171.352 380.581 170.872C380.053 170.392 379.369 170.152 378.529 170.152C377.941 170.152 377.407 170.278 376.927 170.53C376.447 170.782 376.069 171.118 375.793 171.538C375.517 171.946 375.373 172.384 375.361 172.852H381.553ZM392.558 176.254C392.126 176.854 391.574 177.334 390.902 177.694C390.242 178.042 389.522 178.216 388.742 178.216C387.89 178.216 387.104 178.006 386.384 177.586C385.664 177.166 385.088 176.596 384.656 175.876C384.236 175.144 384.026 174.352 384.026 173.5C384.026 172.648 384.236 171.862 384.656 171.142C385.088 170.422 385.664 169.852 386.384 169.432C387.104 169.012 387.89 168.802 388.742 168.802C389.51 168.802 390.224 168.976 390.884 169.324C391.544 169.672 392.096 170.14 392.54 170.728L391.262 171.592C390.95 171.196 390.578 170.89 390.146 170.674C389.714 170.458 389.246 170.35 388.742 170.35C388.166 170.35 387.638 170.494 387.158 170.782C386.678 171.058 386.294 171.436 386.006 171.916C385.73 172.396 385.592 172.924 385.592 173.5C385.592 174.076 385.73 174.61 386.006 175.102C386.294 175.582 386.678 175.966 387.158 176.254C387.638 176.53 388.166 176.668 388.742 176.668C389.246 176.668 389.714 176.56 390.146 176.344C390.59 176.116 390.962 175.804 391.262 175.408L392.558 176.254ZM396.723 175.192C396.723 175.744 396.825 176.128 397.029 176.344C397.245 176.548 397.587 176.65 398.055 176.65C398.199 176.65 398.499 176.626 398.955 176.578V178C398.439 178.06 398.007 178.09 397.659 178.09C396.807 178.09 396.177 177.886 395.769 177.478C395.373 177.07 395.175 176.338 395.175 175.282V170.422H393.177V169H395.175V166.552L396.723 165.994V169H398.919V170.422H396.723V175.192ZM404.58 168.784C405.456 168.784 406.236 169 406.92 169.432C407.604 169.852 408.132 170.428 408.504 171.16C408.888 171.88 409.08 172.666 409.08 173.518C409.08 173.614 409.074 173.722 409.062 173.842C409.05 173.95 409.038 174.04 409.026 174.112H401.448C401.568 174.916 401.916 175.576 402.492 176.092C403.08 176.596 403.824 176.848 404.724 176.848C405.276 176.848 405.798 176.722 406.29 176.47C406.794 176.218 407.166 175.906 407.406 175.534L408.63 176.254C408.234 176.878 407.694 177.364 407.01 177.712C406.338 178.048 405.57 178.216 404.706 178.216C403.758 178.216 402.918 178.012 402.186 177.604C401.454 177.196 400.884 176.638 400.476 175.93C400.068 175.21 399.864 174.4 399.864 173.5C399.864 172.612 400.062 171.814 400.458 171.106C400.866 170.386 401.424 169.822 402.132 169.414C402.852 168.994 403.668 168.784 404.58 168.784ZM407.604 172.852C407.484 172.012 407.16 171.352 406.632 170.872C406.104 170.392 405.42 170.152 404.58 170.152C403.992 170.152 403.458 170.278 402.978 170.53C402.498 170.782 402.12 171.118 401.844 171.538C401.568 171.946 401.424 172.384 401.412 172.852H407.604ZM108.676 199H110.242V208H108.676V206.65C108.256 207.142 107.752 207.532 107.164 207.82C106.588 208.096 105.97 208.234 105.31 208.234C104.434 208.234 103.648 208.03 102.952 207.622C102.256 207.202 101.716 206.632 101.332 205.912C100.948 205.192 100.756 204.394 100.756 203.518C100.756 202.63 100.948 201.832 101.332 201.124C101.716 200.404 102.25 199.84 102.934 199.432C103.63 199.012 104.422 198.802 105.31 198.802C105.97 198.802 106.588 198.946 107.164 199.234C107.752 199.51 108.256 199.894 108.676 200.386V199ZM105.472 206.74C106.06 206.74 106.6 206.602 107.092 206.326C107.584 206.038 107.968 205.648 108.244 205.156C108.532 204.664 108.676 204.112 108.676 203.5C108.676 202.9 108.532 202.36 108.244 201.88C107.968 201.388 107.584 201.004 107.092 200.728C106.6 200.452 106.06 200.314 105.472 200.314C104.884 200.314 104.35 200.452 103.87 200.728C103.39 201.004 103.012 201.388 102.736 201.88C102.46 202.372 102.322 202.918 102.322 203.518C102.322 204.13 102.46 204.682 102.736 205.174C103.012 205.654 103.39 206.038 103.87 206.326C104.35 206.602 104.884 206.74 105.472 206.74ZM119.821 195.4H121.369V208H119.821V206.65C119.401 207.142 118.897 207.532 118.309 207.82C117.733 208.096 117.115 208.234 116.455 208.234C115.579 208.234 114.793 208.03 114.097 207.622C113.401 207.202 112.861 206.632 112.477 205.912C112.093 205.192 111.901 204.394 111.901 203.518C111.901 202.63 112.093 201.832 112.477 201.124C112.861 200.404 113.395 199.84 114.079 199.432C114.775 199.012 115.567 198.802 116.455 198.802C117.115 198.802 117.733 198.946 118.309 199.234C118.897 199.51 119.401 199.894 119.821 200.386V195.4ZM116.617 206.74C117.205 206.74 117.745 206.602 118.237 206.326C118.729 206.038 119.113 205.648 119.389 205.156C119.677 204.664 119.821 204.112 119.821 203.5C119.821 202.9 119.677 202.36 119.389 201.88C119.113 201.388 118.729 201.004 118.237 200.728C117.745 200.452 117.205 200.314 116.617 200.314C116.029 200.314 115.495 200.452 115.015 200.728C114.535 201.004 114.157 201.388 113.881 201.88C113.605 202.372 113.467 202.918 113.467 203.518C113.467 204.13 113.605 204.682 113.881 205.174C114.157 205.654 114.535 206.038 115.015 206.326C115.495 206.602 116.029 206.74 116.617 206.74ZM124.675 196.948C124.375 196.948 124.135 196.864 123.955 196.696C123.775 196.528 123.685 196.294 123.685 195.994C123.685 195.706 123.775 195.478 123.955 195.31C124.135 195.13 124.375 195.04 124.675 195.04C124.975 195.04 125.215 195.13 125.395 195.31C125.575 195.478 125.665 195.706 125.665 195.994C125.665 196.294 125.575 196.528 125.395 196.696C125.227 196.864 124.987 196.948 124.675 196.948ZM123.901 208V199H125.449V208H123.901ZM132.805 198.784C133.681 198.784 134.461 198.994 135.145 199.414C135.841 199.822 136.381 200.386 136.765 201.106C137.149 201.826 137.341 202.624 137.341 203.5C137.341 204.388 137.149 205.192 136.765 205.912C136.381 206.62 135.847 207.184 135.163 207.604C134.479 208.012 133.693 208.216 132.805 208.216C132.157 208.216 131.539 208.078 130.951 207.802C130.363 207.526 129.859 207.142 129.439 206.65V211.6H127.891V199H129.439V200.35C129.859 199.858 130.363 199.474 130.951 199.198C131.539 198.922 132.157 198.784 132.805 198.784ZM132.643 206.704C133.231 206.704 133.765 206.566 134.245 206.29C134.725 206.014 135.103 205.63 135.379 205.138C135.655 204.646 135.793 204.1 135.793 203.5C135.793 202.888 135.655 202.342 135.379 201.862C135.103 201.37 134.725 200.986 134.245 200.71C133.765 200.422 133.231 200.278 132.643 200.278C132.055 200.278 131.515 200.422 131.023 200.71C130.531 200.986 130.141 201.37 129.853 201.862C129.577 202.354 129.439 202.906 129.439 203.518C129.439 204.118 129.577 204.664 129.853 205.156C130.141 205.636 130.531 206.014 131.023 206.29C131.515 206.566 132.055 206.704 132.643 206.704ZM139.95 196.948C139.65 196.948 139.41 196.864 139.23 196.696C139.05 196.528 138.96 196.294 138.96 195.994C138.96 195.706 139.05 195.478 139.23 195.31C139.41 195.13 139.65 195.04 139.95 195.04C140.25 195.04 140.49 195.13 140.67 195.31C140.85 195.478 140.94 195.706 140.94 195.994C140.94 196.294 140.85 196.528 140.67 196.696C140.502 196.864 140.262 196.948 139.95 196.948ZM139.176 208V199H140.724V208H139.176ZM144.127 201.466C144.127 201.814 144.289 202.066 144.613 202.222C144.949 202.378 145.483 202.546 146.215 202.726C146.923 202.894 147.499 203.062 147.943 203.23C148.399 203.398 148.783 203.662 149.095 204.022C149.419 204.382 149.581 204.868 149.581 205.48C149.581 206.308 149.239 206.974 148.555 207.478C147.871 207.97 147.013 208.216 145.981 208.216C145.057 208.216 144.277 208.036 143.641 207.676C143.005 207.316 142.543 206.812 142.255 206.164L143.533 205.498C143.725 205.978 144.031 206.338 144.451 206.578C144.871 206.806 145.381 206.92 145.981 206.92C146.545 206.92 147.031 206.794 147.439 206.542C147.859 206.29 148.069 205.942 148.069 205.498C148.069 205.222 147.967 204.994 147.763 204.814C147.571 204.634 147.325 204.496 147.025 204.4C146.737 204.304 146.323 204.184 145.783 204.04C145.099 203.872 144.541 203.71 144.109 203.554C143.689 203.386 143.323 203.14 143.011 202.816C142.711 202.492 142.561 202.054 142.561 201.502C142.561 200.974 142.711 200.506 143.011 200.098C143.311 199.678 143.719 199.354 144.235 199.126C144.751 198.898 145.327 198.784 145.963 198.784C146.719 198.784 147.385 198.946 147.961 199.27C148.549 199.594 148.999 200.044 149.311 200.62L148.033 201.268C147.853 200.884 147.589 200.59 147.241 200.386C146.893 200.17 146.467 200.062 145.963 200.062C145.399 200.062 144.949 200.194 144.613 200.458C144.289 200.71 144.127 201.046 144.127 201.466ZM159.226 206.254C158.794 206.854 158.242 207.334 157.57 207.694C156.91 208.042 156.19 208.216 155.41 208.216C154.558 208.216 153.772 208.006 153.052 207.586C152.332 207.166 151.756 206.596 151.324 205.876C150.904 205.144 150.694 204.352 150.694 203.5C150.694 202.648 150.904 201.862 151.324 201.142C151.756 200.422 152.332 199.852 153.052 199.432C153.772 199.012 154.558 198.802 155.41 198.802C156.178 198.802 156.892 198.976 157.552 199.324C158.212 199.672 158.764 200.14 159.208 200.728L157.93 201.592C157.618 201.196 157.246 200.89 156.814 200.674C156.382 200.458 155.914 200.35 155.41 200.35C154.834 200.35 154.306 200.494 153.826 200.782C153.346 201.058 152.962 201.436 152.674 201.916C152.398 202.396 152.26 202.924 152.26 203.5C152.26 204.076 152.398 204.61 152.674 205.102C152.962 205.582 153.346 205.966 153.826 206.254C154.306 206.53 154.834 206.668 155.41 206.668C155.914 206.668 156.382 206.56 156.814 206.344C157.258 206.116 157.63 205.804 157.93 205.408L159.226 206.254ZM161.554 196.948C161.254 196.948 161.014 196.864 160.834 196.696C160.654 196.528 160.564 196.294 160.564 195.994C160.564 195.706 160.654 195.478 160.834 195.31C161.014 195.13 161.254 195.04 161.554 195.04C161.854 195.04 162.094 195.13 162.274 195.31C162.454 195.478 162.544 195.706 162.544 195.994C162.544 196.294 162.454 196.528 162.274 196.696C162.106 196.864 161.866 196.948 161.554 196.948ZM160.78 208V199H162.328V208H160.78ZM168.982 198.784C169.51 198.784 170.05 198.898 170.602 199.126C171.154 199.342 171.628 199.738 172.024 200.314C172.42 200.878 172.618 201.646 172.618 202.618V208H171.07V202.618C171.07 201.742 170.83 201.118 170.35 200.746C169.87 200.362 169.306 200.17 168.658 200.17C168.034 200.17 167.488 200.392 167.02 200.836C166.552 201.268 166.318 201.982 166.318 202.978V208H164.77V199H166.318V200.062C166.642 199.678 167.032 199.372 167.488 199.144C167.944 198.904 168.442 198.784 168.982 198.784ZM182.066 199H183.614V207.568C183.614 208.42 183.404 209.164 182.984 209.8C182.576 210.448 182.012 210.946 181.292 211.294C180.572 211.642 179.762 211.816 178.862 211.816C177.818 211.816 176.894 211.618 176.09 211.222C175.286 210.838 174.716 210.316 174.38 209.656L175.712 208.882C175.916 209.302 176.288 209.656 176.828 209.944C177.38 210.232 178.064 210.376 178.88 210.376C179.804 210.376 180.566 210.118 181.166 209.602C181.766 209.086 182.066 208.408 182.066 207.568V206.668C181.646 207.16 181.142 207.544 180.554 207.82C179.966 208.096 179.348 208.234 178.7 208.234C177.824 208.234 177.038 208.03 176.342 207.622C175.658 207.202 175.124 206.632 174.74 205.912C174.356 205.192 174.164 204.394 174.164 203.518C174.164 202.63 174.356 201.832 174.74 201.124C175.124 200.404 175.658 199.84 176.342 199.432C177.026 199.012 177.812 198.802 178.7 198.802C179.348 198.802 179.966 198.94 180.554 199.216C181.142 199.492 181.646 199.876 182.066 200.368V199ZM178.862 206.74C179.45 206.74 179.99 206.602 180.482 206.326C180.974 206.038 181.358 205.648 181.634 205.156C181.922 204.664 182.066 204.112 182.066 203.5C182.066 202.9 181.922 202.36 181.634 201.88C181.358 201.388 180.974 201.004 180.482 200.728C179.99 200.452 179.45 200.314 178.862 200.314C178.274 200.314 177.74 200.452 177.26 200.728C176.78 201.004 176.402 201.388 176.126 201.88C175.85 202.372 175.712 202.918 175.712 203.518C175.712 204.13 175.85 204.682 176.126 205.174C176.402 205.654 176.78 206.038 177.26 206.326C177.74 206.602 178.274 206.74 178.862 206.74ZM194.943 198.784C195.819 198.784 196.599 199 197.283 199.432C197.967 199.852 198.495 200.428 198.867 201.16C199.251 201.88 199.443 202.666 199.443 203.518C199.443 203.614 199.437 203.722 199.425 203.842C199.413 203.95 199.401 204.04 199.389 204.112H191.811C191.931 204.916 192.279 205.576 192.855 206.092C193.443 206.596 194.187 206.848 195.087 206.848C195.639 206.848 196.161 206.722 196.653 206.47C197.157 206.218 197.529 205.906 197.769 205.534L198.993 206.254C198.597 206.878 198.057 207.364 197.373 207.712C196.701 208.048 195.933 208.216 195.069 208.216C194.121 208.216 193.281 208.012 192.549 207.604C191.817 207.196 191.247 206.638 190.839 205.93C190.431 205.21 190.227 204.4 190.227 203.5C190.227 202.612 190.425 201.814 190.821 201.106C191.229 200.386 191.787 199.822 192.495 199.414C193.215 198.994 194.031 198.784 194.943 198.784ZM197.967 202.852C197.847 202.012 197.523 201.352 196.995 200.872C196.467 200.392 195.783 200.152 194.943 200.152C194.355 200.152 193.821 200.278 193.341 200.53C192.861 200.782 192.483 201.118 192.207 201.538C191.931 201.946 191.787 202.384 191.775 202.852H197.967ZM202.564 206.092C202.564 206.296 202.606 206.44 202.69 206.524C202.786 206.596 202.93 206.632 203.122 206.632C203.23 206.632 203.332 206.626 203.428 206.614C203.524 206.602 203.614 206.59 203.698 206.578V208C203.314 208.06 202.99 208.09 202.726 208.09C202.186 208.09 201.766 207.952 201.466 207.676C201.166 207.388 201.016 206.89 201.016 206.182V195.4H202.564V206.092ZM206.272 196.948C205.972 196.948 205.732 196.864 205.552 196.696C205.372 196.528 205.282 196.294 205.282 195.994C205.282 195.706 205.372 195.478 205.552 195.31C205.732 195.13 205.972 195.04 206.272 195.04C206.572 195.04 206.812 195.13 206.992 195.31C207.172 195.478 207.262 195.706 207.262 195.994C207.262 196.294 207.172 196.528 206.992 196.696C206.824 196.864 206.584 196.948 206.272 196.948ZM205.498 208V199H207.046V208H205.498ZM212.205 205.192C212.205 205.744 212.307 206.128 212.511 206.344C212.727 206.548 213.069 206.65 213.537 206.65C213.681 206.65 213.981 206.626 214.437 206.578V208C213.921 208.06 213.489 208.09 213.141 208.09C212.289 208.09 211.659 207.886 211.251 207.478C210.855 207.07 210.657 206.338 210.657 205.282V200.422H208.659V199H210.657V196.552L212.205 195.994V199H214.401V200.422H212.205V205.192ZM217.114 208.144C216.814 208.096 216.604 208 216.484 207.856C216.376 207.712 216.322 207.472 216.322 207.136C216.322 206.8 216.412 206.542 216.592 206.362C216.784 206.182 217.036 206.092 217.348 206.092C217.672 206.092 217.93 206.194 218.122 206.398C218.314 206.59 218.41 206.848 218.41 207.172C218.398 207.544 218.344 207.862 218.248 208.126C218.152 208.39 217.972 208.732 217.708 209.152L217.006 210.214L216.412 209.728L217.114 208.144ZM226.639 201.466C226.639 201.814 226.801 202.066 227.125 202.222C227.461 202.378 227.995 202.546 228.727 202.726C229.435 202.894 230.011 203.062 230.455 203.23C230.911 203.398 231.295 203.662 231.607 204.022C231.931 204.382 232.093 204.868 232.093 205.48C232.093 206.308 231.751 206.974 231.067 207.478C230.383 207.97 229.525 208.216 228.493 208.216C227.569 208.216 226.789 208.036 226.153 207.676C225.517 207.316 225.055 206.812 224.767 206.164L226.045 205.498C226.237 205.978 226.543 206.338 226.963 206.578C227.383 206.806 227.893 206.92 228.493 206.92C229.057 206.92 229.543 206.794 229.951 206.542C230.371 206.29 230.581 205.942 230.581 205.498C230.581 205.222 230.479 204.994 230.275 204.814C230.083 204.634 229.837 204.496 229.537 204.4C229.249 204.304 228.835 204.184 228.295 204.04C227.611 203.872 227.053 203.71 226.621 203.554C226.201 203.386 225.835 203.14 225.523 202.816C225.223 202.492 225.073 202.054 225.073 201.502C225.073 200.974 225.223 200.506 225.523 200.098C225.823 199.678 226.231 199.354 226.747 199.126C227.263 198.898 227.839 198.784 228.475 198.784C229.231 198.784 229.897 198.946 230.473 199.27C231.061 199.594 231.511 200.044 231.823 200.62L230.545 201.268C230.365 200.884 230.101 200.59 229.753 200.386C229.405 200.17 228.979 200.062 228.475 200.062C227.911 200.062 227.461 200.194 227.125 200.458C226.801 200.71 226.639 201.046 226.639 201.466ZM237.852 198.784C238.728 198.784 239.508 199 240.192 199.432C240.876 199.852 241.404 200.428 241.776 201.16C242.16 201.88 242.352 202.666 242.352 203.518C242.352 203.614 242.346 203.722 242.334 203.842C242.322 203.95 242.31 204.04 242.298 204.112H234.72C234.84 204.916 235.188 205.576 235.764 206.092C236.352 206.596 237.096 206.848 237.996 206.848C238.548 206.848 239.07 206.722 239.562 206.47C240.066 206.218 240.438 205.906 240.678 205.534L241.902 206.254C241.506 206.878 240.966 207.364 240.282 207.712C239.61 208.048 238.842 208.216 237.978 208.216C237.03 208.216 236.19 208.012 235.458 207.604C234.726 207.196 234.156 206.638 233.748 205.93C233.34 205.21 233.136 204.4 233.136 203.5C233.136 202.612 233.334 201.814 233.73 201.106C234.138 200.386 234.696 199.822 235.404 199.414C236.124 198.994 236.94 198.784 237.852 198.784ZM240.876 202.852C240.756 202.012 240.432 201.352 239.904 200.872C239.376 200.392 238.692 200.152 237.852 200.152C237.264 200.152 236.73 200.278 236.25 200.53C235.77 200.782 235.392 201.118 235.116 201.538C234.84 201.946 234.696 202.384 234.684 202.852H240.876ZM251.322 195.4H252.87V208H251.322V206.65C250.902 207.142 250.398 207.532 249.81 207.82C249.234 208.096 248.616 208.234 247.956 208.234C247.08 208.234 246.294 208.03 245.598 207.622C244.902 207.202 244.362 206.632 243.978 205.912C243.594 205.192 243.402 204.394 243.402 203.518C243.402 202.63 243.594 201.832 243.978 201.124C244.362 200.404 244.896 199.84 245.58 199.432C246.276 199.012 247.068 198.802 247.956 198.802C248.616 198.802 249.234 198.946 249.81 199.234C250.398 199.51 250.902 199.894 251.322 200.386V195.4ZM248.118 206.74C248.706 206.74 249.246 206.602 249.738 206.326C250.23 206.038 250.614 205.648 250.89 205.156C251.178 204.664 251.322 204.112 251.322 203.5C251.322 202.9 251.178 202.36 250.89 201.88C250.614 201.388 250.23 201.004 249.738 200.728C249.246 200.452 248.706 200.314 248.118 200.314C247.53 200.314 246.996 200.452 246.516 200.728C246.036 201.004 245.658 201.388 245.382 201.88C245.106 202.372 244.968 202.918 244.968 203.518C244.968 204.13 245.106 204.682 245.382 205.174C245.658 205.654 246.036 206.038 246.516 206.326C246.996 206.602 247.53 206.74 248.118 206.74ZM267.459 195.4H269.007V208H267.459V206.65C267.039 207.142 266.535 207.532 265.947 207.82C265.371 208.096 264.753 208.234 264.093 208.234C263.217 208.234 262.431 208.03 261.735 207.622C261.039 207.202 260.499 206.632 260.115 205.912C259.731 205.192 259.539 204.394 259.539 203.518C259.539 202.63 259.731 201.832 260.115 201.124C260.499 200.404 261.033 199.84 261.717 199.432C262.413 199.012 263.205 198.802 264.093 198.802C264.753 198.802 265.371 198.946 265.947 199.234C266.535 199.51 267.039 199.894 267.459 200.386V195.4ZM264.255 206.74C264.843 206.74 265.383 206.602 265.875 206.326C266.367 206.038 266.751 205.648 267.027 205.156C267.315 204.664 267.459 204.112 267.459 203.5C267.459 202.9 267.315 202.36 267.027 201.88C266.751 201.388 266.367 201.004 265.875 200.728C265.383 200.452 264.843 200.314 264.255 200.314C263.667 200.314 263.133 200.452 262.653 200.728C262.173 201.004 261.795 201.388 261.519 201.88C261.243 202.372 261.105 202.918 261.105 203.518C261.105 204.13 261.243 204.682 261.519 205.174C261.795 205.654 262.173 206.038 262.653 206.326C263.133 206.602 263.667 206.74 264.255 206.74ZM275.346 208.216C274.494 208.216 273.708 208.006 272.988 207.586C272.268 207.166 271.692 206.596 271.26 205.876C270.84 205.144 270.63 204.352 270.63 203.5C270.63 202.648 270.84 201.862 271.26 201.142C271.692 200.422 272.268 199.852 272.988 199.432C273.708 199.012 274.494 198.802 275.346 198.802C276.198 198.802 276.984 199.012 277.704 199.432C278.424 199.852 278.994 200.422 279.414 201.142C279.846 201.862 280.062 202.648 280.062 203.5C280.062 204.352 279.846 205.144 279.414 205.876C278.994 206.596 278.424 207.166 277.704 207.586C276.984 208.006 276.198 208.216 275.346 208.216ZM275.346 206.668C275.922 206.668 276.45 206.53 276.93 206.254C277.41 205.966 277.788 205.582 278.064 205.102C278.352 204.61 278.496 204.076 278.496 203.5C278.496 202.924 278.352 202.396 278.064 201.916C277.788 201.436 277.41 201.058 276.93 200.782C276.45 200.494 275.922 200.35 275.346 200.35C274.77 200.35 274.236 200.494 273.744 200.782C273.264 201.058 272.88 201.436 272.592 201.916C272.316 202.396 272.178 202.924 272.178 203.5C272.178 204.076 272.316 204.61 272.592 205.102C272.88 205.582 273.264 205.966 273.744 206.254C274.236 206.53 274.77 206.668 275.346 206.668ZM290.814 198.784C291.69 198.784 292.47 199 293.154 199.432C293.838 199.852 294.366 200.428 294.738 201.16C295.122 201.88 295.314 202.666 295.314 203.518C295.314 203.614 295.308 203.722 295.296 203.842C295.284 203.95 295.272 204.04 295.26 204.112H287.682C287.802 204.916 288.15 205.576 288.726 206.092C289.314 206.596 290.058 206.848 290.958 206.848C291.51 206.848 292.032 206.722 292.524 206.47C293.028 206.218 293.4 205.906 293.64 205.534L294.864 206.254C294.468 206.878 293.928 207.364 293.244 207.712C292.572 208.048 291.804 208.216 290.94 208.216C289.992 208.216 289.152 208.012 288.42 207.604C287.688 207.196 287.118 206.638 286.71 205.93C286.302 205.21 286.098 204.4 286.098 203.5C286.098 202.612 286.296 201.814 286.692 201.106C287.1 200.386 287.658 199.822 288.366 199.414C289.086 198.994 289.902 198.784 290.814 198.784ZM293.838 202.852C293.718 202.012 293.394 201.352 292.866 200.872C292.338 200.392 291.654 200.152 290.814 200.152C290.226 200.152 289.692 200.278 289.212 200.53C288.732 200.782 288.354 201.118 288.078 201.538C287.802 201.946 287.658 202.384 287.646 202.852H293.838ZM297.643 196.948C297.343 196.948 297.103 196.864 296.923 196.696C296.743 196.528 296.653 196.294 296.653 195.994C296.653 195.706 296.743 195.478 296.923 195.31C297.103 195.13 297.343 195.04 297.643 195.04C297.943 195.04 298.183 195.13 298.363 195.31C298.543 195.478 298.633 195.706 298.633 195.994C298.633 196.294 298.543 196.528 298.363 196.696C298.195 196.864 297.955 196.948 297.643 196.948ZM296.869 208V199H298.417V208H296.869ZM306.714 199H308.262V208H306.714V206.938C306.39 207.322 306 207.634 305.544 207.874C305.088 208.102 304.59 208.216 304.05 208.216C303.522 208.216 302.982 208.108 302.43 207.892C301.878 207.664 301.404 207.268 301.008 206.704C300.612 206.128 300.414 205.354 300.414 204.382V199H301.962V204.382C301.962 205.258 302.202 205.888 302.682 206.272C303.174 206.644 303.738 206.83 304.374 206.83C304.998 206.83 305.544 206.614 306.012 206.182C306.48 205.738 306.714 205.018 306.714 204.022V199ZM311.717 201.466C311.717 201.814 311.879 202.066 312.203 202.222C312.539 202.378 313.073 202.546 313.805 202.726C314.513 202.894 315.089 203.062 315.533 203.23C315.989 203.398 316.373 203.662 316.685 204.022C317.009 204.382 317.171 204.868 317.171 205.48C317.171 206.308 316.829 206.974 316.145 207.478C315.461 207.97 314.603 208.216 313.571 208.216C312.647 208.216 311.867 208.036 311.231 207.676C310.595 207.316 310.133 206.812 309.845 206.164L311.123 205.498C311.315 205.978 311.621 206.338 312.041 206.578C312.461 206.806 312.971 206.92 313.571 206.92C314.135 206.92 314.621 206.794 315.029 206.542C315.449 206.29 315.659 205.942 315.659 205.498C315.659 205.222 315.557 204.994 315.353 204.814C315.161 204.634 314.915 204.496 314.615 204.4C314.327 204.304 313.913 204.184 313.373 204.04C312.689 203.872 312.131 203.71 311.699 203.554C311.279 203.386 310.913 203.14 310.601 202.816C310.301 202.492 310.151 202.054 310.151 201.502C310.151 200.974 310.301 200.506 310.601 200.098C310.901 199.678 311.309 199.354 311.825 199.126C312.341 198.898 312.917 198.784 313.553 198.784C314.309 198.784 314.975 198.946 315.551 199.27C316.139 199.594 316.589 200.044 316.901 200.62L315.623 201.268C315.443 200.884 315.179 200.59 314.831 200.386C314.483 200.17 314.057 200.062 313.553 200.062C312.989 200.062 312.539 200.194 312.203 200.458C311.879 200.71 311.717 201.046 311.717 201.466ZM329.104 198.784C329.632 198.784 330.172 198.898 330.724 199.126C331.276 199.342 331.75 199.738 332.146 200.314C332.554 200.878 332.758 201.646 332.758 202.618V208H331.192V202.618C331.192 201.742 330.952 201.118 330.472 200.746C329.992 200.362 329.434 200.17 328.798 200.17C328.282 200.17 327.808 200.32 327.376 200.62C326.956 200.92 326.674 201.412 326.53 202.096C326.542 202.204 326.548 202.378 326.548 202.618V208H325V202.618C325 201.742 324.754 201.118 324.262 200.746C323.782 200.362 323.224 200.17 322.588 200.17C322.096 200.17 321.634 200.314 321.202 200.602C320.782 200.89 320.494 201.352 320.338 201.988V208H318.79V199H320.338V199.936C320.65 199.588 321.028 199.312 321.472 199.108C321.916 198.892 322.39 198.784 322.894 198.784C323.482 198.784 324.076 198.922 324.676 199.198C325.288 199.474 325.762 199.93 326.098 200.566C326.386 200.062 326.794 199.642 327.322 199.306C327.862 198.958 328.456 198.784 329.104 198.784ZM338.873 208.216C338.021 208.216 337.235 208.006 336.515 207.586C335.795 207.166 335.219 206.596 334.787 205.876C334.367 205.144 334.157 204.352 334.157 203.5C334.157 202.648 334.367 201.862 334.787 201.142C335.219 200.422 335.795 199.852 336.515 199.432C337.235 199.012 338.021 198.802 338.873 198.802C339.725 198.802 340.511 199.012 341.231 199.432C341.951 199.852 342.521 200.422 342.941 201.142C343.373 201.862 343.589 202.648 343.589 203.5C343.589 204.352 343.373 205.144 342.941 205.876C342.521 206.596 341.951 207.166 341.231 207.586C340.511 208.006 339.725 208.216 338.873 208.216ZM338.873 206.668C339.449 206.668 339.977 206.53 340.457 206.254C340.937 205.966 341.315 205.582 341.591 205.102C341.879 204.61 342.023 204.076 342.023 203.5C342.023 202.924 341.879 202.396 341.591 201.916C341.315 201.436 340.937 201.058 340.457 200.782C339.977 200.494 339.449 200.35 338.873 200.35C338.297 200.35 337.763 200.494 337.271 200.782C336.791 201.058 336.407 201.436 336.119 201.916C335.843 202.396 335.705 202.924 335.705 203.5C335.705 204.076 335.843 204.61 336.119 205.102C336.407 205.582 336.791 205.966 337.271 206.254C337.763 206.53 338.297 206.668 338.873 206.668ZM345.507 207.298C345.507 207.01 345.585 206.788 345.741 206.632C345.909 206.464 346.131 206.38 346.407 206.38C346.695 206.38 346.917 206.464 347.073 206.632C347.229 206.788 347.307 207.01 347.307 207.298C347.307 207.574 347.229 207.796 347.073 207.964C346.917 208.12 346.695 208.198 346.407 208.198C346.131 208.198 345.909 208.12 345.741 207.964C345.585 207.796 345.507 207.574 345.507 207.298Z" fill="#757683"/>
<path d="M191.944 89.872L195.376 77.2H198.112L193.456 94H190.552L186.832 81.712L183.112 94H180.208L175.552 77.2H178.288L181.72 89.872L185.44 77.2H188.224L191.944 89.872ZM204.067 81.688C205.235 81.688 206.275 81.976 207.187 82.552C208.099 83.112 208.811 83.88 209.323 84.856C209.835 85.816 210.091 86.872 210.091 88.024C210.091 88.216 210.059 88.52 209.995 88.936H200.299C200.507 89.896 200.955 90.664 201.643 91.24C202.347 91.816 203.235 92.104 204.307 92.104C204.963 92.104 205.587 91.96 206.179 91.672C206.787 91.384 207.235 91.008 207.523 90.544L209.491 91.696C208.947 92.528 208.227 93.176 207.331 93.64C206.435 94.088 205.411 94.312 204.259 94.312C202.979 94.312 201.843 94.04 200.851 93.496C199.875 92.952 199.115 92.2 198.571 91.24C198.043 90.28 197.779 89.2 197.779 88C197.779 86.816 198.043 85.744 198.571 84.784C199.115 83.824 199.859 83.072 200.803 82.528C201.763 81.968 202.851 81.688 204.067 81.688ZM207.691 86.944C207.563 86 207.171 85.256 206.515 84.712C205.875 84.168 205.059 83.896 204.067 83.896C203.379 83.896 202.747 84.04 202.171 84.328C201.595 84.6 201.139 84.976 200.803 85.456C200.467 85.92 200.291 86.416 200.275 86.944H207.691ZM219.005 81.712C220.205 81.712 221.261 81.992 222.173 82.552C223.085 83.096 223.789 83.848 224.285 84.808C224.797 85.768 225.053 86.84 225.053 88.024C225.053 89.208 224.797 90.28 224.285 91.24C223.789 92.184 223.085 92.936 222.173 93.496C221.261 94.04 220.205 94.312 219.005 94.312C218.173 94.312 217.373 94.136 216.605 93.784C215.837 93.432 215.173 92.952 214.613 92.344V94H212.093V77.2H214.613V83.704C215.173 83.08 215.837 82.592 216.605 82.24C217.373 81.888 218.173 81.712 219.005 81.712ZM218.717 91.888C219.437 91.888 220.085 91.728 220.661 91.408C221.253 91.072 221.709 90.608 222.029 90.016C222.365 89.424 222.533 88.76 222.533 88.024C222.533 87.288 222.365 86.624 222.029 86.032C221.709 85.44 221.253 84.984 220.661 84.664C220.085 84.328 219.437 84.16 218.717 84.16C217.997 84.16 217.333 84.328 216.725 84.664C216.133 84.984 215.661 85.44 215.309 86.032C214.973 86.608 214.805 87.264 214.805 88C214.805 88.736 214.973 89.4 215.309 89.992C215.661 90.584 216.133 91.048 216.725 91.384C217.333 91.72 217.997 91.888 218.717 91.888ZM240.606 77.2C242.174 77.2 243.614 77.576 244.926 78.328C246.254 79.064 247.302 80.08 248.07 81.376C248.838 82.656 249.222 84.08 249.222 85.648C249.222 87.216 248.838 88.64 248.07 89.92C247.302 91.184 246.254 92.184 244.926 92.92C243.614 93.64 242.174 94 240.606 94H234.198V77.2H240.606ZM240.606 91.48C241.694 91.48 242.694 91.224 243.606 90.712C244.518 90.2 245.238 89.496 245.766 88.6C246.294 87.704 246.558 86.712 246.558 85.624C246.558 84.536 246.294 83.544 245.766 82.648C245.238 81.736 244.518 81.024 243.606 80.512C242.694 79.984 241.694 79.72 240.606 79.72H236.862V91.48H240.606ZM256.919 81.688C258.087 81.688 259.127 81.976 260.039 82.552C260.951 83.112 261.663 83.88 262.175 84.856C262.687 85.816 262.943 86.872 262.943 88.024C262.943 88.216 262.911 88.52 262.847 88.936H253.151C253.359 89.896 253.807 90.664 254.495 91.24C255.199 91.816 256.087 92.104 257.159 92.104C257.815 92.104 258.439 91.96 259.031 91.672C259.639 91.384 260.087 91.008 260.375 90.544L262.343 91.696C261.799 92.528 261.079 93.176 260.183 93.64C259.287 94.088 258.263 94.312 257.111 94.312C255.831 94.312 254.695 94.04 253.703 93.496C252.727 92.952 251.967 92.2 251.423 91.24C250.895 90.28 250.631 89.2 250.631 88C250.631 86.816 250.895 85.744 251.423 84.784C251.967 83.824 252.711 83.072 253.655 82.528C254.615 81.968 255.703 81.688 256.919 81.688ZM260.543 86.944C260.415 86 260.023 85.256 259.367 84.712C258.727 84.168 257.911 83.896 256.919 83.896C256.231 83.896 255.599 84.04 255.023 84.328C254.447 84.6 253.991 84.976 253.655 85.456C253.319 85.92 253.143 86.416 253.127 86.944H260.543ZM267.057 85.312C267.057 85.712 267.257 86.008 267.657 86.2C268.073 86.376 268.737 86.576 269.648 86.8C270.577 87.008 271.345 87.232 271.953 87.472C272.561 87.696 273.081 88.056 273.513 88.552C273.961 89.048 274.185 89.72 274.185 90.568C274.185 91.336 273.961 92.008 273.513 92.584C273.065 93.144 272.457 93.576 271.689 93.88C270.937 94.168 270.105 94.312 269.193 94.312C267.961 94.312 266.905 94.072 266.025 93.592C265.145 93.096 264.505 92.408 264.104 91.528L266.169 90.448C266.409 91.056 266.785 91.512 267.297 91.816C267.825 92.104 268.457 92.248 269.193 92.248C269.881 92.248 270.473 92.104 270.969 91.816C271.481 91.528 271.737 91.12 271.737 90.592C271.737 90.128 271.505 89.792 271.041 89.584C270.593 89.36 269.881 89.128 268.905 88.888C267.961 88.648 267.201 88.424 266.625 88.216C266.065 87.992 265.577 87.656 265.161 87.208C264.745 86.744 264.537 86.136 264.537 85.384C264.537 84.648 264.745 84 265.161 83.44C265.577 82.88 266.137 82.448 266.84 82.144C267.545 81.84 268.329 81.688 269.193 81.688C270.217 81.688 271.129 81.912 271.929 82.36C272.745 82.792 273.369 83.4 273.801 84.184L271.737 85.216C271.289 84.24 270.441 83.752 269.193 83.752C268.537 83.752 268.017 83.896 267.633 84.184C267.249 84.456 267.057 84.832 267.057 85.312ZM277.467 79.624C276.987 79.624 276.603 79.496 276.315 79.24C276.043 78.968 275.907 78.6 275.907 78.136C275.907 77.672 276.043 77.312 276.315 77.056C276.603 76.784 276.987 76.648 277.467 76.648C277.947 76.648 278.323 76.784 278.595 77.056C278.883 77.312 279.027 77.672 279.027 78.136C279.027 78.6 278.883 78.968 278.595 79.24C278.323 79.496 277.947 79.624 277.467 79.624ZM276.195 94V82H278.715V94H276.195ZM291.281 82H293.801V93.4C293.801 94.536 293.521 95.536 292.961 96.4C292.401 97.264 291.625 97.928 290.633 98.392C289.657 98.872 288.553 99.112 287.321 99.112C285.929 99.112 284.681 98.848 283.577 98.32C282.489 97.792 281.713 97.088 281.249 96.208L283.409 94.96C283.665 95.472 284.137 95.904 284.825 96.256C285.529 96.608 286.385 96.784 287.393 96.784C288.529 96.784 289.457 96.472 290.177 95.848C290.913 95.224 291.281 94.408 291.281 93.4V92.56C290.721 93.104 290.073 93.536 289.337 93.856C288.617 94.16 287.865 94.312 287.081 94.312C285.881 94.312 284.825 94.04 283.913 93.496C283.001 92.936 282.289 92.184 281.777 91.24C281.281 90.28 281.033 89.208 281.033 88.024C281.033 86.84 281.281 85.768 281.777 84.808C282.289 83.848 283.001 83.096 283.913 82.552C284.825 81.992 285.881 81.712 287.081 81.712C287.865 81.712 288.617 81.872 289.337 82.192C290.073 82.496 290.721 82.928 291.281 83.488V82ZM287.393 91.888C288.113 91.888 288.769 91.72 289.361 91.384C289.953 91.048 290.417 90.584 290.753 89.992C291.105 89.4 291.281 88.736 291.281 88C291.281 87.264 291.105 86.608 290.753 86.032C290.417 85.44 289.953 84.984 289.361 84.664C288.769 84.328 288.113 84.16 287.393 84.16C286.673 84.16 286.017 84.328 285.425 84.664C284.849 84.984 284.393 85.44 284.057 86.032C283.721 86.624 283.553 87.288 283.553 88.024C283.553 88.76 283.721 89.424 284.057 90.016C284.393 90.608 284.849 91.072 285.425 91.408C286.017 91.728 286.673 91.888 287.393 91.888ZM302.91 81.688C303.614 81.688 304.326 81.84 305.046 82.144C305.782 82.432 306.414 82.96 306.942 83.728C307.47 84.496 307.734 85.528 307.734 86.824V94H305.214V86.824C305.214 85.8 304.926 85.064 304.35 84.616C303.774 84.152 303.102 83.92 302.334 83.92C301.582 83.92 300.934 84.184 300.39 84.712C299.846 85.24 299.574 86.096 299.574 87.28V94H297.054V82H299.574V83.2C300.006 82.752 300.502 82.392 301.062 82.12C301.638 81.832 302.254 81.688 302.91 81.688ZM190.696 126H187.84L186.472 122.376H179.488L178.12 126H175.24L181.528 109.2H184.408L190.696 126ZM182.992 113.016L180.424 119.856H185.536L182.992 113.016ZM198.074 113.688C198.778 113.688 199.49 113.84 200.21 114.144C200.946 114.432 201.578 114.96 202.106 115.728C202.634 116.496 202.898 117.528 202.898 118.824V126H200.378V118.824C200.378 117.8 200.09 117.064 199.514 116.616C198.938 116.152 198.266 115.92 197.498 115.92C196.746 115.92 196.098 116.184 195.554 116.712C195.01 117.24 194.738 118.096 194.738 119.28V126H192.218V114H194.738V115.2C195.17 114.752 195.666 114.392 196.226 114.12C196.802 113.832 197.418 113.688 198.074 113.688ZM215.037 109.2H217.557V126H215.037V124.536C214.477 125.096 213.829 125.536 213.093 125.856C212.373 126.16 211.621 126.312 210.837 126.312C209.637 126.312 208.581 126.04 207.669 125.496C206.757 124.936 206.045 124.184 205.533 123.24C205.037 122.28 204.789 121.208 204.789 120.024C204.789 118.84 205.037 117.768 205.533 116.808C206.045 115.848 206.757 115.096 207.669 114.552C208.581 113.992 209.637 113.712 210.837 113.712C211.621 113.712 212.373 113.872 213.093 114.192C213.829 114.496 214.477 114.928 215.037 115.488V109.2ZM211.125 123.888C211.845 123.888 212.501 123.72 213.093 123.384C213.701 123.048 214.173 122.584 214.509 121.992C214.861 121.4 215.037 120.736 215.037 120C215.037 119.264 214.861 118.608 214.509 118.032C214.173 117.44 213.701 116.984 213.093 116.664C212.501 116.328 211.845 116.16 211.125 116.16C210.405 116.16 209.749 116.328 209.157 116.664C208.581 116.984 208.125 117.44 207.789 118.032C207.469 118.624 207.309 119.288 207.309 120.024C207.309 120.76 207.469 121.424 207.789 122.016C208.125 122.608 208.581 123.072 209.157 123.408C209.749 123.728 210.405 123.888 211.125 123.888ZM233.528 109.2C235.096 109.2 236.536 109.576 237.848 110.328C239.176 111.064 240.224 112.08 240.992 113.376C241.76 114.656 242.144 116.08 242.144 117.648C242.144 119.216 241.76 120.64 240.992 121.92C240.224 123.184 239.176 124.184 237.848 124.92C236.536 125.64 235.096 126 233.528 126H227.12V109.2H233.528ZM233.528 123.48C234.616 123.48 235.616 123.224 236.528 122.712C237.44 122.2 238.16 121.496 238.688 120.6C239.216 119.704 239.48 118.712 239.48 117.624C239.48 116.536 239.216 115.544 238.688 114.648C238.16 113.736 237.44 113.024 236.528 112.512C235.616 111.984 234.616 111.72 233.528 111.72H229.784V123.48H233.528ZM249.841 113.688C251.009 113.688 252.049 113.976 252.961 114.552C253.873 115.112 254.585 115.88 255.097 116.856C255.609 117.816 255.865 118.872 255.865 120.024C255.865 120.216 255.833 120.52 255.769 120.936H246.073C246.281 121.896 246.729 122.664 247.417 123.24C248.121 123.816 249.009 124.104 250.081 124.104C250.737 124.104 251.361 123.96 251.953 123.672C252.561 123.384 253.009 123.008 253.297 122.544L255.265 123.696C254.721 124.528 254.001 125.176 253.105 125.64C252.209 126.088 251.185 126.312 250.033 126.312C248.753 126.312 247.617 126.04 246.625 125.496C245.649 124.952 244.889 124.2 244.345 123.24C243.817 122.28 243.553 121.2 243.553 120C243.553 118.816 243.817 117.744 244.345 116.784C244.889 115.824 245.633 115.072 246.577 114.528C247.537 113.968 248.625 113.688 249.841 113.688ZM253.465 118.944C253.337 118 252.945 117.256 252.289 116.712C251.649 116.168 250.833 115.896 249.841 115.896C249.153 115.896 248.521 116.04 247.945 116.328C247.369 116.6 246.913 116.976 246.577 117.456C246.241 117.92 246.065 118.416 246.049 118.944H253.465ZM262.195 123.024L265.651 114H268.339L263.731 126H260.635L256.051 114H258.715L262.195 123.024ZM274.989 113.688C276.157 113.688 277.197 113.976 278.109 114.552C279.021 115.112 279.733 115.88 280.245 116.856C280.757 117.816 281.013 118.872 281.013 120.024C281.013 120.216 280.981 120.52 280.917 120.936H271.221C271.429 121.896 271.877 122.664 272.565 123.24C273.269 123.816 274.157 124.104 275.229 124.104C275.885 124.104 276.509 123.96 277.101 123.672C277.709 123.384 278.157 123.008 278.445 122.544L280.413 123.696C279.869 124.528 279.149 125.176 278.253 125.64C277.357 126.088 276.333 126.312 275.181 126.312C273.901 126.312 272.765 126.04 271.773 125.496C270.797 124.952 270.037 124.2 269.493 123.24C268.965 122.28 268.701 121.2 268.701 120C268.701 118.816 268.965 117.744 269.493 116.784C270.037 115.824 270.781 115.072 271.725 114.528C272.685 113.968 273.773 113.688 274.989 113.688ZM278.613 118.944C278.485 118 278.093 117.256 277.437 116.712C276.797 116.168 275.981 115.896 274.989 115.896C274.301 115.896 273.669 116.04 273.093 116.328C272.517 116.6 272.061 116.976 271.725 117.456C271.389 117.92 271.213 118.416 271.197 118.944H278.613ZM285.535 123.024C285.535 123.296 285.591 123.488 285.703 123.6C285.831 123.696 286.031 123.744 286.303 123.744C286.511 123.744 286.759 123.72 287.047 123.672V126C286.343 126.096 285.847 126.144 285.559 126.144C284.743 126.144 284.111 125.928 283.663 125.496C283.231 125.064 283.015 124.296 283.015 123.192V109.2H285.535V123.024ZM294.114 126.312C292.978 126.312 291.922 126.032 290.946 125.472C289.986 124.896 289.226 124.128 288.666 123.168C288.106 122.192 287.826 121.136 287.826 120C287.826 118.864 288.106 117.816 288.666 116.856C289.226 115.896 289.986 115.136 290.946 114.576C291.922 114 292.978 113.712 294.114 113.712C295.25 113.712 296.298 114 297.258 114.576C298.234 115.136 299.002 115.896 299.562 116.856C300.122 117.816 300.402 118.864 300.402 120C300.402 121.136 300.122 122.192 299.562 123.168C299.002 124.128 298.234 124.896 297.258 125.472C296.298 126.032 295.25 126.312 294.114 126.312ZM294.114 123.792C294.802 123.792 295.434 123.624 296.01 123.288C296.586 122.936 297.042 122.472 297.378 121.896C297.714 121.32 297.882 120.688 297.882 120C297.882 119.312 297.714 118.68 297.378 118.104C297.042 117.528 296.586 117.072 296.01 116.736C295.434 116.4 294.802 116.232 294.114 116.232C293.426 116.232 292.794 116.4 292.218 116.736C291.642 117.072 291.178 117.528 290.826 118.104C290.49 118.68 290.322 119.312 290.322 120C290.322 120.688 290.49 121.32 290.826 121.896C291.178 122.472 291.642 122.936 292.218 123.288C292.794 123.624 293.426 123.792 294.114 123.792ZM309.188 113.712C310.388 113.712 311.444 113.984 312.356 114.528C313.268 115.072 313.972 115.824 314.468 116.784C314.98 117.744 315.236 118.816 315.236 120C315.236 121.184 314.98 122.256 314.468 123.216C313.972 124.176 313.268 124.936 312.356 125.496C311.444 126.04 310.388 126.312 309.188 126.312C308.404 126.312 307.644 126.16 306.908 125.856C306.188 125.536 305.548 125.096 304.988 124.536V130.8H302.468V114H304.988V115.464C305.548 114.92 306.188 114.496 306.908 114.192C307.644 113.872 308.404 113.712 309.188 113.712ZM308.876 123.864C309.596 123.864 310.244 123.696 310.82 123.36C311.412 123.024 311.876 122.568 312.212 121.992C312.548 121.4 312.716 120.736 312.716 120C312.716 119.264 312.548 118.6 312.212 118.008C311.876 117.416 311.412 116.952 310.82 116.616C310.244 116.28 309.596 116.112 308.876 116.112C308.156 116.112 307.5 116.28 306.908 116.616C306.316 116.952 305.844 117.424 305.492 118.032C305.156 118.624 304.988 119.288 304.988 120.024C304.988 120.76 305.156 121.424 305.492 122.016C305.844 122.592 306.316 123.048 306.908 123.384C307.5 123.704 308.156 123.864 308.876 123.864ZM331.643 113.688C332.347 113.688 333.059 113.84 333.779 114.144C334.515 114.432 335.147 114.96 335.675 115.728C336.203 116.496 336.467 117.528 336.467 118.824V126H333.947V118.824C333.947 117.8 333.659 117.064 333.083 116.616C332.507 116.152 331.835 115.92 331.067 115.92C330.443 115.92 329.875 116.112 329.363 116.496C328.867 116.864 328.539 117.472 328.379 118.32C328.395 118.416 328.403 118.584 328.403 118.824V126H325.883V118.824C325.883 117.784 325.595 117.04 325.019 116.592C324.459 116.144 323.795 115.92 323.027 115.92C322.435 115.92 321.883 116.096 321.371 116.448C320.875 116.8 320.539 117.36 320.363 118.128V126H317.843V114H320.363V115.08C320.795 114.648 321.283 114.312 321.827 114.072C322.371 113.816 322.955 113.688 323.579 113.688C324.347 113.688 325.115 113.864 325.883 114.216C326.667 114.552 327.283 115.12 327.731 115.92C328.131 115.296 328.675 114.768 329.363 114.336C330.067 113.904 330.827 113.688 331.643 113.688ZM344.552 113.688C345.72 113.688 346.76 113.976 347.672 114.552C348.584 115.112 349.296 115.88 349.808 116.856C350.32 117.816 350.576 118.872 350.576 120.024C350.576 120.216 350.544 120.52 350.48 120.936H340.784C340.992 121.896 341.44 122.664 342.128 123.24C342.832 123.816 343.72 124.104 344.792 124.104C345.448 124.104 346.072 123.96 346.664 123.672C347.272 123.384 347.72 123.008 348.008 122.544L349.976 123.696C349.432 124.528 348.712 125.176 347.816 125.64C346.92 126.088 345.896 126.312 344.744 126.312C343.464 126.312 342.328 126.04 341.336 125.496C340.36 124.952 339.6 124.2 339.056 123.24C338.528 122.28 338.264 121.2 338.264 120C338.264 118.816 338.528 117.744 339.056 116.784C339.6 115.824 340.344 115.072 341.288 114.528C342.248 113.968 343.336 113.688 344.552 113.688ZM348.176 118.944C348.048 118 347.656 117.256 347 116.712C346.36 116.168 345.544 115.896 344.552 115.896C343.864 115.896 343.232 116.04 342.656 116.328C342.08 116.6 341.624 116.976 341.288 117.456C340.952 117.92 340.776 118.416 340.76 118.944H348.176ZM358.433 113.688C359.137 113.688 359.849 113.84 360.569 114.144C361.305 114.432 361.937 114.96 362.465 115.728C362.993 116.496 363.257 117.528 363.257 118.824V126H360.737V118.824C360.737 117.8 360.449 117.064 359.873 116.616C359.297 116.152 358.625 115.92 357.857 115.92C357.105 115.92 356.457 116.184 355.913 116.712C355.369 117.24 355.097 118.096 355.097 119.28V126H352.577V114H355.097V115.2C355.529 114.752 356.025 114.392 356.585 114.12C357.161 113.832 357.777 113.688 358.433 113.688ZM369.355 122.064C369.355 122.704 369.483 123.144 369.739 123.384C370.011 123.624 370.443 123.744 371.035 123.744C371.371 123.744 371.755 123.72 372.187 123.672V126C371.467 126.08 370.859 126.12 370.363 126.12C369.163 126.12 368.275 125.84 367.699 125.28C367.123 124.704 366.835 123.688 366.835 122.232V116.28H364.363V114H366.835V110.88L369.355 110.016V114H372.139V116.28H369.355V122.064Z" fill="#1B1C23"/>
<rect x="100" y="77" width="50" height="50" fill="#FF694B"/>
<path d="M121.5 108.97H121C117 108.97 115 107.97 115 102.97V97.97C115 93.97 117 91.97 121 91.97H129C133 91.97 135 93.97 135 97.97V102.97C135 106.97 133 108.97 129 108.97H128.5C128.19 108.97 127.89 109.12 127.7 109.37L126.2 111.37C125.54 112.25 124.46 112.25 123.8 111.37L122.3 109.37C122.14 109.15 121.78 108.97 121.5 108.97Z" stroke="white" stroke-width="1.5" stroke-miterlimit="10" stroke-linecap="round" stroke-linejoin="round"/>
<path d="M121 98.7L119 100.7L121 102.7" stroke="white" stroke-width="1.5" stroke-miterlimit="10" stroke-linecap="round" stroke-linejoin="round"/>
<path d="M129 98.7L131 100.7L129 102.7" stroke="white" stroke-width="1.5" stroke-miterlimit="10" stroke-linecap="round" stroke-linejoin="round"/>
<path d="M126 98.3701L124 103.03" stroke="white" stroke-width="1.5" stroke-miterlimit="10" stroke-linecap="round" stroke-linejoin="round"/>
<defs>
<filter id="filter0_d_2_371" x="0" y="0" width="510" height="380" filterUnits="userSpaceOnUse" color-interpolation-filters="sRGB">
<feFlood flood-opacity="0" result="BackgroundImageFix"/>
<feColorMatrix in="SourceAlpha" type="matrix" values="0 0 0 0 0 0 0 0 0 0 0 0 0 0 0 0 0 0 127 0" result="hardAlpha"/>
<feOffset dy="25"/>
<feGaussianBlur stdDeviation="22.5"/>
<feComposite in2="hardAlpha" operator="out"/>
<feColorMatrix type="matrix" values="0 0 0 0 0.770833 0 0 0 0 0.770833 0 0 0 0 0.770833 0 0 0 0.25 0"/>
<feBlend mode="normal" in2="BackgroundImageFix" result="effect1_dropShadow_2_371"/>
<feBlend mode="normal" in="SourceGraphic" in2="effect1_dropShadow_2_371" result="shape"/>
</filter>
</defs>
</svg>
